<?xml version="1.0" encoding="utf-8" standalone="no"?>
<!DOCTYPE svg PUBLIC "-//W3C//DTD SVG 1.1//EN"
  "http://www.w3.org/Graphics/SVG/1.1/DTD/svg11.dtd">
<svg xmlns:xlink="http://www.w3.org/1999/xlink" width="460.8pt" height="345.6pt" viewBox="0 0 460.8 345.6" xmlns="http://www.w3.org/2000/svg" version="1.1">
 <metadata>
  <rdf:RDF xmlns:dc="http://purl.org/dc/elements/1.1/" xmlns:cc="http://creativecommons.org/ns#" xmlns:rdf="http://www.w3.org/1999/02/22-rdf-syntax-ns#">
   <cc:Work>
    <dc:type rdf:resource="http://purl.org/dc/dcmitype/StillImage"/>
    <dc:date>2024-07-31T14:22:26.170663</dc:date>
    <dc:format>image/svg+xml</dc:format>
    <dc:creator>
     <cc:Agent>
      <dc:title>Matplotlib v3.9.1, https://matplotlib.org/</dc:title>
     </cc:Agent>
    </dc:creator>
   </cc:Work>
  </rdf:RDF>
 </metadata>
 <defs>
  <style type="text/css">*{stroke-linejoin: round; stroke-linecap: butt}</style>
 </defs>
 <g id="figure_1">
  <g id="patch_1">
   <path d="M 0 345.6 
L 460.8 345.6 
L 460.8 0 
L 0 0 
z
" style="fill: #ffffff"/>
  </g>
  <g id="axes_1">
   <g id="patch_2">
    <path d="M 57.6 307.584 
L 414.72 307.584 
L 414.72 41.472 
L 57.6 41.472 
z
" style="fill: #ffffff"/>
   </g>
   <g id="matplotlib.axis_1">
    <g id="xtick_1">
     <g id="line2d_1">
      <defs>
       <path id="m2cde3b3b1f" d="M 0 0 
L 0 3.5 
" style="stroke: #000000; stroke-width: 0.8"/>
      </defs>
      <g>
       <use xlink:href="#m2cde3b3b1f" x="73.832727" y="307.584" style="stroke: #000000; stroke-width: 0.8"/>
      </g>
     </g>
     <g id="text_1">
      <!-- 0 -->
      <g transform="translate(70.651477 322.182437) scale(0.1 -0.1)">
       <defs>
        <path id="DejaVuSans-30" d="M 2034 4250 
Q 1547 4250 1301 3770 
Q 1056 3291 1056 2328 
Q 1056 1369 1301 889 
Q 1547 409 2034 409 
Q 2525 409 2770 889 
Q 3016 1369 3016 2328 
Q 3016 3291 2770 3770 
Q 2525 4250 2034 4250 
z
M 2034 4750 
Q 2819 4750 3233 4129 
Q 3647 3509 3647 2328 
Q 3647 1150 3233 529 
Q 2819 -91 2034 -91 
Q 1250 -91 836 529 
Q 422 1150 422 2328 
Q 422 3509 836 4129 
Q 1250 4750 2034 4750 
z
" transform="scale(0.015625)"/>
       </defs>
       <use xlink:href="#DejaVuSans-30"/>
      </g>
     </g>
    </g>
    <g id="xtick_2">
     <g id="line2d_2">
      <g>
       <use xlink:href="#m2cde3b3b1f" x="127.941818" y="307.584" style="stroke: #000000; stroke-width: 0.8"/>
      </g>
     </g>
     <g id="text_2">
      <!-- 100 -->
      <g transform="translate(118.398068 322.182437) scale(0.1 -0.1)">
       <defs>
        <path id="DejaVuSans-31" d="M 794 531 
L 1825 531 
L 1825 4091 
L 703 3866 
L 703 4441 
L 1819 4666 
L 2450 4666 
L 2450 531 
L 3481 531 
L 3481 0 
L 794 0 
L 794 531 
z
" transform="scale(0.015625)"/>
       </defs>
       <use xlink:href="#DejaVuSans-31"/>
       <use xlink:href="#DejaVuSans-30" x="63.623047"/>
       <use xlink:href="#DejaVuSans-30" x="127.246094"/>
      </g>
     </g>
    </g>
    <g id="xtick_3">
     <g id="line2d_3">
      <g>
       <use xlink:href="#m2cde3b3b1f" x="182.050909" y="307.584" style="stroke: #000000; stroke-width: 0.8"/>
      </g>
     </g>
     <g id="text_3">
      <!-- 200 -->
      <g transform="translate(172.507159 322.182437) scale(0.1 -0.1)">
       <defs>
        <path id="DejaVuSans-32" d="M 1228 531 
L 3431 531 
L 3431 0 
L 469 0 
L 469 531 
Q 828 903 1448 1529 
Q 2069 2156 2228 2338 
Q 2531 2678 2651 2914 
Q 2772 3150 2772 3378 
Q 2772 3750 2511 3984 
Q 2250 4219 1831 4219 
Q 1534 4219 1204 4116 
Q 875 4013 500 3803 
L 500 4441 
Q 881 4594 1212 4672 
Q 1544 4750 1819 4750 
Q 2544 4750 2975 4387 
Q 3406 4025 3406 3419 
Q 3406 3131 3298 2873 
Q 3191 2616 2906 2266 
Q 2828 2175 2409 1742 
Q 1991 1309 1228 531 
z
" transform="scale(0.015625)"/>
       </defs>
       <use xlink:href="#DejaVuSans-32"/>
       <use xlink:href="#DejaVuSans-30" x="63.623047"/>
       <use xlink:href="#DejaVuSans-30" x="127.246094"/>
      </g>
     </g>
    </g>
    <g id="xtick_4">
     <g id="line2d_4">
      <g>
       <use xlink:href="#m2cde3b3b1f" x="236.16" y="307.584" style="stroke: #000000; stroke-width: 0.8"/>
      </g>
     </g>
     <g id="text_4">
      <!-- 300 -->
      <g transform="translate(226.61625 322.182437) scale(0.1 -0.1)">
       <defs>
        <path id="DejaVuSans-33" d="M 2597 2516 
Q 3050 2419 3304 2112 
Q 3559 1806 3559 1356 
Q 3559 666 3084 287 
Q 2609 -91 1734 -91 
Q 1441 -91 1130 -33 
Q 819 25 488 141 
L 488 750 
Q 750 597 1062 519 
Q 1375 441 1716 441 
Q 2309 441 2620 675 
Q 2931 909 2931 1356 
Q 2931 1769 2642 2001 
Q 2353 2234 1838 2234 
L 1294 2234 
L 1294 2753 
L 1863 2753 
Q 2328 2753 2575 2939 
Q 2822 3125 2822 3475 
Q 2822 3834 2567 4026 
Q 2313 4219 1838 4219 
Q 1578 4219 1281 4162 
Q 984 4106 628 3988 
L 628 4550 
Q 988 4650 1302 4700 
Q 1616 4750 1894 4750 
Q 2613 4750 3031 4423 
Q 3450 4097 3450 3541 
Q 3450 3153 3228 2886 
Q 3006 2619 2597 2516 
z
" transform="scale(0.015625)"/>
       </defs>
       <use xlink:href="#DejaVuSans-33"/>
       <use xlink:href="#DejaVuSans-30" x="63.623047"/>
       <use xlink:href="#DejaVuSans-30" x="127.246094"/>
      </g>
     </g>
    </g>
    <g id="xtick_5">
     <g id="line2d_5">
      <g>
       <use xlink:href="#m2cde3b3b1f" x="290.269091" y="307.584" style="stroke: #000000; stroke-width: 0.8"/>
      </g>
     </g>
     <g id="text_5">
      <!-- 400 -->
      <g transform="translate(280.725341 322.182437) scale(0.1 -0.1)">
       <defs>
        <path id="DejaVuSans-34" d="M 2419 4116 
L 825 1625 
L 2419 1625 
L 2419 4116 
z
M 2253 4666 
L 3047 4666 
L 3047 1625 
L 3713 1625 
L 3713 1100 
L 3047 1100 
L 3047 0 
L 2419 0 
L 2419 1100 
L 313 1100 
L 313 1709 
L 2253 4666 
z
" transform="scale(0.015625)"/>
       </defs>
       <use xlink:href="#DejaVuSans-34"/>
       <use xlink:href="#DejaVuSans-30" x="63.623047"/>
       <use xlink:href="#DejaVuSans-30" x="127.246094"/>
      </g>
     </g>
    </g>
    <g id="xtick_6">
     <g id="line2d_6">
      <g>
       <use xlink:href="#m2cde3b3b1f" x="344.378182" y="307.584" style="stroke: #000000; stroke-width: 0.8"/>
      </g>
     </g>
     <g id="text_6">
      <!-- 500 -->
      <g transform="translate(334.834432 322.182437) scale(0.1 -0.1)">
       <defs>
        <path id="DejaVuSans-35" d="M 691 4666 
L 3169 4666 
L 3169 4134 
L 1269 4134 
L 1269 2991 
Q 1406 3038 1543 3061 
Q 1681 3084 1819 3084 
Q 2600 3084 3056 2656 
Q 3513 2228 3513 1497 
Q 3513 744 3044 326 
Q 2575 -91 1722 -91 
Q 1428 -91 1123 -41 
Q 819 9 494 109 
L 494 744 
Q 775 591 1075 516 
Q 1375 441 1709 441 
Q 2250 441 2565 725 
Q 2881 1009 2881 1497 
Q 2881 1984 2565 2268 
Q 2250 2553 1709 2553 
Q 1456 2553 1204 2497 
Q 953 2441 691 2322 
L 691 4666 
z
" transform="scale(0.015625)"/>
       </defs>
       <use xlink:href="#DejaVuSans-35"/>
       <use xlink:href="#DejaVuSans-30" x="63.623047"/>
       <use xlink:href="#DejaVuSans-30" x="127.246094"/>
      </g>
     </g>
    </g>
    <g id="xtick_7">
     <g id="line2d_7">
      <g>
       <use xlink:href="#m2cde3b3b1f" x="398.487273" y="307.584" style="stroke: #000000; stroke-width: 0.8"/>
      </g>
     </g>
     <g id="text_7">
      <!-- 600 -->
      <g transform="translate(388.943523 322.182437) scale(0.1 -0.1)">
       <defs>
        <path id="DejaVuSans-36" d="M 2113 2584 
Q 1688 2584 1439 2293 
Q 1191 2003 1191 1497 
Q 1191 994 1439 701 
Q 1688 409 2113 409 
Q 2538 409 2786 701 
Q 3034 994 3034 1497 
Q 3034 2003 2786 2293 
Q 2538 2584 2113 2584 
z
M 3366 4563 
L 3366 3988 
Q 3128 4100 2886 4159 
Q 2644 4219 2406 4219 
Q 1781 4219 1451 3797 
Q 1122 3375 1075 2522 
Q 1259 2794 1537 2939 
Q 1816 3084 2150 3084 
Q 2853 3084 3261 2657 
Q 3669 2231 3669 1497 
Q 3669 778 3244 343 
Q 2819 -91 2113 -91 
Q 1303 -91 875 529 
Q 447 1150 447 2328 
Q 447 3434 972 4092 
Q 1497 4750 2381 4750 
Q 2619 4750 2861 4703 
Q 3103 4656 3366 4563 
z
" transform="scale(0.015625)"/>
       </defs>
       <use xlink:href="#DejaVuSans-36"/>
       <use xlink:href="#DejaVuSans-30" x="63.623047"/>
       <use xlink:href="#DejaVuSans-30" x="127.246094"/>
      </g>
     </g>
    </g>
    <g id="text_8">
     <!-- Tempo (s) -->
     <g transform="translate(211.680312 335.860562) scale(0.1 -0.1)">
      <defs>
       <path id="DejaVuSans-54" d="M -19 4666 
L 3928 4666 
L 3928 4134 
L 2272 4134 
L 2272 0 
L 1638 0 
L 1638 4134 
L -19 4134 
L -19 4666 
z
" transform="scale(0.015625)"/>
       <path id="DejaVuSans-65" d="M 3597 1894 
L 3597 1613 
L 953 1613 
Q 991 1019 1311 708 
Q 1631 397 2203 397 
Q 2534 397 2845 478 
Q 3156 559 3463 722 
L 3463 178 
Q 3153 47 2828 -22 
Q 2503 -91 2169 -91 
Q 1331 -91 842 396 
Q 353 884 353 1716 
Q 353 2575 817 3079 
Q 1281 3584 2069 3584 
Q 2775 3584 3186 3129 
Q 3597 2675 3597 1894 
z
M 3022 2063 
Q 3016 2534 2758 2815 
Q 2500 3097 2075 3097 
Q 1594 3097 1305 2825 
Q 1016 2553 972 2059 
L 3022 2063 
z
" transform="scale(0.015625)"/>
       <path id="DejaVuSans-6d" d="M 3328 2828 
Q 3544 3216 3844 3400 
Q 4144 3584 4550 3584 
Q 5097 3584 5394 3201 
Q 5691 2819 5691 2113 
L 5691 0 
L 5113 0 
L 5113 2094 
Q 5113 2597 4934 2840 
Q 4756 3084 4391 3084 
Q 3944 3084 3684 2787 
Q 3425 2491 3425 1978 
L 3425 0 
L 2847 0 
L 2847 2094 
Q 2847 2600 2669 2842 
Q 2491 3084 2119 3084 
Q 1678 3084 1418 2786 
Q 1159 2488 1159 1978 
L 1159 0 
L 581 0 
L 581 3500 
L 1159 3500 
L 1159 2956 
Q 1356 3278 1631 3431 
Q 1906 3584 2284 3584 
Q 2666 3584 2933 3390 
Q 3200 3197 3328 2828 
z
" transform="scale(0.015625)"/>
       <path id="DejaVuSans-70" d="M 1159 525 
L 1159 -1331 
L 581 -1331 
L 581 3500 
L 1159 3500 
L 1159 2969 
Q 1341 3281 1617 3432 
Q 1894 3584 2278 3584 
Q 2916 3584 3314 3078 
Q 3713 2572 3713 1747 
Q 3713 922 3314 415 
Q 2916 -91 2278 -91 
Q 1894 -91 1617 61 
Q 1341 213 1159 525 
z
M 3116 1747 
Q 3116 2381 2855 2742 
Q 2594 3103 2138 3103 
Q 1681 3103 1420 2742 
Q 1159 2381 1159 1747 
Q 1159 1113 1420 752 
Q 1681 391 2138 391 
Q 2594 391 2855 752 
Q 3116 1113 3116 1747 
z
" transform="scale(0.015625)"/>
       <path id="DejaVuSans-6f" d="M 1959 3097 
Q 1497 3097 1228 2736 
Q 959 2375 959 1747 
Q 959 1119 1226 758 
Q 1494 397 1959 397 
Q 2419 397 2687 759 
Q 2956 1122 2956 1747 
Q 2956 2369 2687 2733 
Q 2419 3097 1959 3097 
z
M 1959 3584 
Q 2709 3584 3137 3096 
Q 3566 2609 3566 1747 
Q 3566 888 3137 398 
Q 2709 -91 1959 -91 
Q 1206 -91 779 398 
Q 353 888 353 1747 
Q 353 2609 779 3096 
Q 1206 3584 1959 3584 
z
" transform="scale(0.015625)"/>
       <path id="DejaVuSans-20" transform="scale(0.015625)"/>
       <path id="DejaVuSans-28" d="M 1984 4856 
Q 1566 4138 1362 3434 
Q 1159 2731 1159 2009 
Q 1159 1288 1364 580 
Q 1569 -128 1984 -844 
L 1484 -844 
Q 1016 -109 783 600 
Q 550 1309 550 2009 
Q 550 2706 781 3412 
Q 1013 4119 1484 4856 
L 1984 4856 
z
" transform="scale(0.015625)"/>
       <path id="DejaVuSans-73" d="M 2834 3397 
L 2834 2853 
Q 2591 2978 2328 3040 
Q 2066 3103 1784 3103 
Q 1356 3103 1142 2972 
Q 928 2841 928 2578 
Q 928 2378 1081 2264 
Q 1234 2150 1697 2047 
L 1894 2003 
Q 2506 1872 2764 1633 
Q 3022 1394 3022 966 
Q 3022 478 2636 193 
Q 2250 -91 1575 -91 
Q 1294 -91 989 -36 
Q 684 19 347 128 
L 347 722 
Q 666 556 975 473 
Q 1284 391 1588 391 
Q 1994 391 2212 530 
Q 2431 669 2431 922 
Q 2431 1156 2273 1281 
Q 2116 1406 1581 1522 
L 1381 1569 
Q 847 1681 609 1914 
Q 372 2147 372 2553 
Q 372 3047 722 3315 
Q 1072 3584 1716 3584 
Q 2034 3584 2315 3537 
Q 2597 3491 2834 3397 
z
" transform="scale(0.015625)"/>
       <path id="DejaVuSans-29" d="M 513 4856 
L 1013 4856 
Q 1481 4119 1714 3412 
Q 1947 2706 1947 2009 
Q 1947 1309 1714 600 
Q 1481 -109 1013 -844 
L 513 -844 
Q 928 -128 1133 580 
Q 1338 1288 1338 2009 
Q 1338 2731 1133 3434 
Q 928 4138 513 4856 
z
" transform="scale(0.015625)"/>
      </defs>
      <use xlink:href="#DejaVuSans-54"/>
      <use xlink:href="#DejaVuSans-65" x="44.083984"/>
      <use xlink:href="#DejaVuSans-6d" x="105.607422"/>
      <use xlink:href="#DejaVuSans-70" x="203.019531"/>
      <use xlink:href="#DejaVuSans-6f" x="266.496094"/>
      <use xlink:href="#DejaVuSans-20" x="327.677734"/>
      <use xlink:href="#DejaVuSans-28" x="359.464844"/>
      <use xlink:href="#DejaVuSans-73" x="398.478516"/>
      <use xlink:href="#DejaVuSans-29" x="450.578125"/>
     </g>
    </g>
   </g>
   <g id="matplotlib.axis_2">
    <g id="ytick_1">
     <g id="line2d_8">
      <defs>
       <path id="mdf61041bff" d="M 0 0 
L -3.5 0 
" style="stroke: #000000; stroke-width: 0.8"/>
      </defs>
      <g>
       <use xlink:href="#mdf61041bff" x="57.6" y="286.89234" style="stroke: #000000; stroke-width: 0.8"/>
      </g>
     </g>
     <g id="text_9">
      <!-- −6 -->
      <g transform="translate(35.857813 290.691558) scale(0.1 -0.1)">
       <defs>
        <path id="DejaVuSans-2212" d="M 678 2272 
L 4684 2272 
L 4684 1741 
L 678 1741 
L 678 2272 
z
" transform="scale(0.015625)"/>
       </defs>
       <use xlink:href="#DejaVuSans-2212"/>
       <use xlink:href="#DejaVuSans-36" x="83.789062"/>
      </g>
     </g>
    </g>
    <g id="ytick_2">
     <g id="line2d_9">
      <g>
       <use xlink:href="#mdf61041bff" x="57.6" y="249.333599" style="stroke: #000000; stroke-width: 0.8"/>
      </g>
     </g>
     <g id="text_10">
      <!-- −4 -->
      <g transform="translate(35.857813 253.132817) scale(0.1 -0.1)">
       <use xlink:href="#DejaVuSans-2212"/>
       <use xlink:href="#DejaVuSans-34" x="83.789062"/>
      </g>
     </g>
    </g>
    <g id="ytick_3">
     <g id="line2d_10">
      <g>
       <use xlink:href="#mdf61041bff" x="57.6" y="211.774857" style="stroke: #000000; stroke-width: 0.8"/>
      </g>
     </g>
     <g id="text_11">
      <!-- −2 -->
      <g transform="translate(35.857813 215.574076) scale(0.1 -0.1)">
       <use xlink:href="#DejaVuSans-2212"/>
       <use xlink:href="#DejaVuSans-32" x="83.789062"/>
      </g>
     </g>
    </g>
    <g id="ytick_4">
     <g id="line2d_11">
      <g>
       <use xlink:href="#mdf61041bff" x="57.6" y="174.216116" style="stroke: #000000; stroke-width: 0.8"/>
      </g>
     </g>
     <g id="text_12">
      <!-- 0 -->
      <g transform="translate(44.2375 178.015335) scale(0.1 -0.1)">
       <use xlink:href="#DejaVuSans-30"/>
      </g>
     </g>
    </g>
    <g id="ytick_5">
     <g id="line2d_12">
      <g>
       <use xlink:href="#mdf61041bff" x="57.6" y="136.657375" style="stroke: #000000; stroke-width: 0.8"/>
      </g>
     </g>
     <g id="text_13">
      <!-- 2 -->
      <g transform="translate(44.2375 140.456594) scale(0.1 -0.1)">
       <use xlink:href="#DejaVuSans-32"/>
      </g>
     </g>
    </g>
    <g id="ytick_6">
     <g id="line2d_13">
      <g>
       <use xlink:href="#mdf61041bff" x="57.6" y="99.098634" style="stroke: #000000; stroke-width: 0.8"/>
      </g>
     </g>
     <g id="text_14">
      <!-- 4 -->
      <g transform="translate(44.2375 102.897853) scale(0.1 -0.1)">
       <use xlink:href="#DejaVuSans-34"/>
      </g>
     </g>
    </g>
    <g id="ytick_7">
     <g id="line2d_14">
      <g>
       <use xlink:href="#mdf61041bff" x="57.6" y="61.539893" style="stroke: #000000; stroke-width: 0.8"/>
      </g>
     </g>
     <g id="text_15">
      <!-- 6 -->
      <g transform="translate(44.2375 65.339112) scale(0.1 -0.1)">
       <use xlink:href="#DejaVuSans-36"/>
      </g>
     </g>
    </g>
    <g id="text_16">
     <!-- Velocidade (rad/s) -->
     <g transform="translate(29.778125 220.917844) rotate(-90) scale(0.1 -0.1)">
      <defs>
       <path id="DejaVuSans-56" d="M 1831 0 
L 50 4666 
L 709 4666 
L 2188 738 
L 3669 4666 
L 4325 4666 
L 2547 0 
L 1831 0 
z
" transform="scale(0.015625)"/>
       <path id="DejaVuSans-6c" d="M 603 4863 
L 1178 4863 
L 1178 0 
L 603 0 
L 603 4863 
z
" transform="scale(0.015625)"/>
       <path id="DejaVuSans-63" d="M 3122 3366 
L 3122 2828 
Q 2878 2963 2633 3030 
Q 2388 3097 2138 3097 
Q 1578 3097 1268 2742 
Q 959 2388 959 1747 
Q 959 1106 1268 751 
Q 1578 397 2138 397 
Q 2388 397 2633 464 
Q 2878 531 3122 666 
L 3122 134 
Q 2881 22 2623 -34 
Q 2366 -91 2075 -91 
Q 1284 -91 818 406 
Q 353 903 353 1747 
Q 353 2603 823 3093 
Q 1294 3584 2113 3584 
Q 2378 3584 2631 3529 
Q 2884 3475 3122 3366 
z
" transform="scale(0.015625)"/>
       <path id="DejaVuSans-69" d="M 603 3500 
L 1178 3500 
L 1178 0 
L 603 0 
L 603 3500 
z
M 603 4863 
L 1178 4863 
L 1178 4134 
L 603 4134 
L 603 4863 
z
" transform="scale(0.015625)"/>
       <path id="DejaVuSans-64" d="M 2906 2969 
L 2906 4863 
L 3481 4863 
L 3481 0 
L 2906 0 
L 2906 525 
Q 2725 213 2448 61 
Q 2172 -91 1784 -91 
Q 1150 -91 751 415 
Q 353 922 353 1747 
Q 353 2572 751 3078 
Q 1150 3584 1784 3584 
Q 2172 3584 2448 3432 
Q 2725 3281 2906 2969 
z
M 947 1747 
Q 947 1113 1208 752 
Q 1469 391 1925 391 
Q 2381 391 2643 752 
Q 2906 1113 2906 1747 
Q 2906 2381 2643 2742 
Q 2381 3103 1925 3103 
Q 1469 3103 1208 2742 
Q 947 2381 947 1747 
z
" transform="scale(0.015625)"/>
       <path id="DejaVuSans-61" d="M 2194 1759 
Q 1497 1759 1228 1600 
Q 959 1441 959 1056 
Q 959 750 1161 570 
Q 1363 391 1709 391 
Q 2188 391 2477 730 
Q 2766 1069 2766 1631 
L 2766 1759 
L 2194 1759 
z
M 3341 1997 
L 3341 0 
L 2766 0 
L 2766 531 
Q 2569 213 2275 61 
Q 1981 -91 1556 -91 
Q 1019 -91 701 211 
Q 384 513 384 1019 
Q 384 1609 779 1909 
Q 1175 2209 1959 2209 
L 2766 2209 
L 2766 2266 
Q 2766 2663 2505 2880 
Q 2244 3097 1772 3097 
Q 1472 3097 1187 3025 
Q 903 2953 641 2809 
L 641 3341 
Q 956 3463 1253 3523 
Q 1550 3584 1831 3584 
Q 2591 3584 2966 3190 
Q 3341 2797 3341 1997 
z
" transform="scale(0.015625)"/>
       <path id="DejaVuSans-67" d="M 2906 1791 
Q 2906 2416 2648 2759 
Q 2391 3103 1925 3103 
Q 1463 3103 1205 2759 
Q 947 2416 947 1791 
Q 947 1169 1205 825 
Q 1463 481 1925 481 
Q 2391 481 2648 825 
Q 2906 1169 2906 1791 
z
M 3481 434 
Q 3481 -459 3084 -895 
Q 2688 -1331 1869 -1331 
Q 1566 -1331 1297 -1286 
Q 1028 -1241 775 -1147 
L 775 -588 
Q 1028 -725 1275 -790 
Q 1522 -856 1778 -856 
Q 2344 -856 2625 -561 
Q 2906 -266 2906 331 
L 2906 616 
Q 2728 306 2450 153 
Q 2172 0 1784 0 
Q 1141 0 747 490 
Q 353 981 353 1791 
Q 353 2603 747 3093 
Q 1141 3584 1784 3584 
Q 2172 3584 2450 3431 
Q 2728 3278 2906 2969 
L 2906 3500 
L 3481 3500 
L 3481 434 
z
" transform="scale(0.015625)"/>
       <path id="DejaVuSans-2f" d="M 1625 4666 
L 2156 4666 
L 531 -594 
L 0 -594 
L 1625 4666 
z
" transform="scale(0.015625)"/>
      </defs>
      <use xlink:href="#DejaVuSans-56"/>
      <use xlink:href="#DejaVuSans-65" x="60.658203"/>
      <use xlink:href="#DejaVuSans-6c" x="122.181641"/>
      <use xlink:href="#DejaVuSans-6f" x="149.964844"/>
      <use xlink:href="#DejaVuSans-63" x="211.146484"/>
      <use xlink:href="#DejaVuSans-69" x="266.126953"/>
      <use xlink:href="#DejaVuSans-64" x="293.910156"/>
      <use xlink:href="#DejaVuSans-61" x="357.386719"/>
      <use xlink:href="#DejaVuSans-64" x="418.666016"/>
      <use xlink:href="#DejaVuSans-65" x="482.142578"/>
      <use xlink:href="#DejaVuSans-20" x="543.666016"/>
      <use xlink:href="#DejaVuSans-28" x="575.453125"/>
      <use xlink:href="#DejaVuSans-64" x="614.466797"/>
      <use xlink:href="#DejaVuSans-65" x="677.943359"/>
      <use xlink:href="#DejaVuSans-67" x="739.466797"/>
      <use xlink:href="#DejaVuSans-2f" x="802.943359"/>
      <use xlink:href="#DejaVuSans-73" x="836.634766"/>
      <use xlink:href="#DejaVuSans-29" x="888.734375"/>
     </g>
    </g>
   </g>
   <g id="line2d_15">
    <path d="M 73.832727 174.216116 
L 73.968 168.80976 
L 73.995055 168.80976 
L 74.103273 168.040774 
L 74.157382 167.936624 
L 74.157382 167.936624 
L 74.292655 166.99426 
L 74.427927 164.505362 
L 74.536145 161.1324 
L 74.536145 161.1324 
L 75.104291 143.982934 
L 75.131345 143.982934 
L 75.401891 142.441424 
L 75.564218 138.916098 
L 75.672436 134.099454 
L 75.699491 134.099454 
L 75.807709 129.76669 
L 75.807709 129.76669 
L 76.132364 121.10065 
L 76.159418 121.10065 
L 76.3488 120.491089 
L 76.402909 120.384372 
L 76.511127 118.9921 
L 76.754618 113.002139 
L 76.754618 113.002139 
L 76.862836 107.906247 
L 76.889891 107.906247 
L 77.187491 100.225239 
L 77.214545 100.225239 
L 77.322764 99.911401 
L 77.349818 99.959919 
L 77.512145 99.902597 
L 77.593309 98.960015 
L 77.620364 98.960015 
L 77.809745 94.473727 
L 77.809745 94.473727 
L 78.269673 82.243392 
L 78.404945 82.287133 
L 78.404945 82.287133 
L 78.594327 82.922598 
L 78.621382 82.881803 
L 78.7296 82.034369 
L 78.7296 82.034369 
L 78.918982 77.767434 
L 78.918982 77.767434 
L 79.3248 68.195626 
L 79.433018 68.300827 
L 79.730618 70.110504 
L 79.784727 69.913022 
L 79.92 68.0932 
L 80.028218 65.520663 
L 80.028218 65.520663 
L 80.379927 58.50403 
L 80.461091 58.606257 
L 80.596364 59.89114 
L 80.704582 61.554376 
L 80.731636 61.554376 
L 80.8128 62.180736 
L 80.839855 62.167607 
L 80.893964 62.077927 
L 80.893964 62.077927 
L 81.002182 60.963503 
L 81.002182 60.963503 
L 81.435055 53.568 
L 81.516218 53.984025 
L 81.543273 53.984025 
L 81.678545 56.383558 
L 81.949091 59.460734 
L 81.949091 59.460734 
L 81.976145 59.49947 
L 82.0032 59.460734 
L 82.111418 58.579911 
L 82.111418 58.579911 
L 82.219636 56.383558 
L 82.246691 56.383558 
L 82.246691 56.383558 
L 82.490182 53.568 
L 82.490182 53.568 
L 82.544291 53.697158 
L 82.652509 54.913682 
L 82.760727 57.066774 
L 82.760727 57.066774 
L 83.085382 62.180736 
L 83.139491 62.120265 
L 83.139491 62.120265 
L 83.247709 60.941698 
L 83.274764 60.941698 
L 83.545309 58.50403 
L 83.626473 58.952089 
L 83.734691 61.271046 
L 83.761745 61.271046 
L 83.842909 64.05898 
L 83.869964 64.05898 
L 84.194618 70.04867 
L 84.194618 70.04867 
L 84.221673 70.110504 
L 84.248727 70.033855 
L 84.492218 68.448833 
L 84.573382 68.165304 
L 84.600436 68.300682 
L 84.627491 68.300682 
L 84.627491 68.300682 
L 84.708655 69.536293 
L 84.735709 69.536293 
L 84.925091 74.409938 
L 85.033309 77.767434 
L 85.033309 77.767434 
L 85.303855 82.881803 
L 85.412073 82.850304 
L 85.412073 82.850304 
L 85.520291 82.287133 
L 85.5744 82.20702 
L 85.628509 82.174947 
L 85.655564 82.243392 
L 85.763782 83.706623 
L 85.790836 83.706623 
L 86.007273 89.833122 
L 86.115491 94.473727 
L 86.142545 94.473727 
L 86.413091 99.767881 
L 86.521309 100.016581 
L 86.548364 99.959919 
L 86.710691 100.068133 
L 86.710691 100.068133 
L 86.818909 101.124691 
L 86.900073 103.448415 
L 86.927127 103.448415 
L 87.630545 120.610832 
L 87.765818 120.934807 
L 87.765818 120.934807 
L 87.901091 122.422516 
L 87.901091 122.422516 
L 88.090473 127.706535 
L 88.198691 131.930754 
L 88.198691 131.930754 
L 88.577455 142.763671 
L 88.793891 143.859296 
L 88.902109 144.620374 
L 89.010327 146.406111 
L 89.010327 146.406111 
L 89.226764 153.525521 
L 89.307927 157.991997 
L 89.334982 157.991997 
L 89.659636 167.276019 
L 89.686691 167.276019 
L 89.794909 168.040774 
L 89.849018 168.145093 
L 89.849018 168.145093 
L 89.984291 169.093382 
L 90.092509 171.596665 
L 90.119564 171.596665 
L 90.363055 180.391459 
L 90.444218 184.784339 
L 90.471273 184.784339 
L 90.768873 192.156311 
L 90.795927 192.156311 
L 90.795927 192.156311 
L 91.147636 194.906589 
L 91.255855 198.50856 
L 91.282909 198.50856 
L 91.391127 203.645366 
L 91.418182 203.645366 
L 91.824 215.921038 
L 91.851055 215.921038 
L 92.283927 219.535185 
L 92.283927 219.535185 
L 92.554473 228.846866 
L 92.662691 233.711936 
L 92.689745 233.711936 
L 92.689745 233.711936 
L 92.933236 238.320414 
L 92.987345 238.406109 
L 92.987345 238.406109 
L 93.095564 238.500306 
L 93.149673 238.538833 
L 93.149673 238.538833 
L 93.230836 238.905395 
L 93.230836 238.905395 
L 93.312 240.293787 
L 93.339055 240.293787 
L 93.528436 245.534803 
L 93.528436 245.534803 
L 93.636655 250.441332 
L 93.663709 250.441332 
L 93.771927 254.703005 
L 93.798982 254.703005 
L 94.015418 257.755635 
L 94.069527 257.817843 
L 94.123636 257.72539 
L 94.231855 257.453148 
L 94.285964 257.488506 
L 94.285964 257.488506 
L 94.394182 258.625326 
L 94.421236 258.625326 
L 94.610618 263.249197 
L 94.691782 266.815161 
L 94.718836 266.815161 
L 95.016436 273.673471 
L 95.151709 273.640814 
L 95.3952 272.492545 
L 95.449309 272.661539 
L 95.557527 273.897149 
L 95.557527 273.897149 
L 95.773964 279.349777 
L 95.855127 282.375104 
L 95.882182 282.375104 
L 96.098618 285.670157 
L 96.125673 285.642331 
L 96.260945 284.937249 
L 96.369164 283.535845 
L 96.396218 283.535845 
L 96.477382 282.928384 
L 96.504436 282.928384 
L 96.558545 283.005612 
L 96.666764 284.073831 
L 96.666764 284.073831 
L 97.072582 292.485898 
L 97.1808 292.999694 
L 97.1808 292.923403 
L 97.207855 292.923403 
L 97.316073 291.570834 
L 97.343127 291.570834 
L 97.640727 288.260543 
L 97.667782 288.389702 
L 97.694836 288.389702 
L 97.803055 289.529018 
L 97.884218 291.501993 
L 97.911273 291.501993 
L 98.208873 295.488 
L 98.208873 295.44603 
L 98.235927 295.44603 
L 98.344145 294.487574 
L 98.344145 294.487574 
L 98.777018 288.260543 
L 98.831127 288.43541 
L 98.993455 290.339994 
L 98.993455 290.339994 
L 99.101673 292.27209 
L 99.128727 292.27209 
L 99.128727 292.27209 
L 99.209891 292.999694 
L 99.236945 292.996058 
L 99.291055 292.909542 
L 99.291055 292.909542 
L 99.399273 291.744493 
L 99.399273 291.744493 
L 99.480436 289.516214 
L 99.507491 289.516214 
L 99.886255 282.928384 
L 99.940364 282.995463 
L 100.048582 283.797176 
L 100.1568 284.937249 
L 100.1568 284.937249 
L 100.292073 285.670158 
L 100.319127 285.496317 
L 100.481455 283.632169 
L 100.562618 280.917807 
L 100.589673 280.917807 
L 100.968436 272.661539 
L 100.968436 272.661539 
L 101.022545 272.492545 
L 101.076655 272.572044 
L 101.320145 273.775907 
L 101.401309 273.513722 
L 101.509527 271.494699 
L 101.536582 271.494699 
L 101.834182 262.413132 
L 101.9424 259.60772 
L 101.9424 259.60772 
L 102.158836 257.453148 
L 102.158836 257.462894 
L 102.24 257.573646 
L 102.375273 257.811577 
L 102.402327 257.755635 
L 102.510545 256.447309 
L 102.5376 256.447309 
L 102.645818 253.164888 
L 102.672873 253.164888 
L 103.213964 238.612196 
L 103.268073 238.538833 
L 103.268073 238.538833 
L 103.484509 238.185577 
L 103.484509 238.185577 
L 103.619782 236.490867 
L 103.728 232.83574 
L 103.755055 232.83574 
L 103.836218 228.846866 
L 103.863273 228.846866 
L 104.242036 217.589267 
L 104.431418 216.501479 
L 104.431418 216.501479 
L 104.566691 215.921038 
L 104.566691 215.921038 
L 104.674909 213.955968 
L 104.701964 213.955968 
L 104.9184 206.959953 
L 104.999564 202.547257 
L 105.026618 202.547257 
L 105.351273 193.674388 
L 105.594764 192.329661 
L 105.594764 192.329661 
L 105.702982 191.311954 
L 105.784145 189.172543 
L 105.8112 189.172543 
L 106.1088 178.144363 
L 106.1088 178.144363 
L 106.217018 173.14911 
L 106.244073 173.14911 
L 106.352291 169.863305 
L 106.379345 169.863305 
L 106.595782 168.040774 
L 106.731055 167.276019 
L 106.839273 165.734221 
L 107.028655 160.128993 
L 107.028655 160.128993 
L 107.136873 155.757747 
L 107.136873 155.757747 
L 107.515636 144.353276 
L 107.542691 144.353276 
L 107.623855 143.761402 
L 107.650909 143.761402 
L 107.813236 143.021561 
L 107.921455 141.031502 
L 107.948509 141.031502 
L 108.029673 138.063387 
L 108.056727 138.063387 
L 108.651927 120.81781 
L 108.678982 120.81781 
L 108.678982 120.738875 
L 108.922473 120.023595 
L 108.922473 120.023595 
L 109.057745 117.922016 
L 109.274182 110.983589 
L 109.274182 110.983589 
L 109.3824 105.966965 
L 109.409455 105.966965 
L 109.68 100.225239 
L 109.68 100.225239 
L 109.788218 99.911401 
L 109.815273 99.928336 
L 109.923491 100.016746 
L 109.950545 99.982347 
L 110.058764 99.302309 
L 110.058764 99.302309 
L 110.221091 96.095133 
L 110.221091 96.095133 
L 110.789236 82.166029 
L 110.843345 82.20702 
L 110.843345 82.20702 
L 110.924509 82.642536 
L 110.951564 82.642536 
L 111.059782 82.922598 
L 111.086836 82.778292 
L 111.113891 82.778292 
L 111.195055 81.632183 
L 111.222109 81.632183 
L 111.411491 76.949026 
L 111.519709 73.577423 
L 111.519709 73.577423 
L 111.790255 68.300682 
L 111.790255 68.300682 
L 111.844364 68.165305 
L 111.898473 68.300827 
L 112.196073 70.110504 
L 112.250182 69.913022 
L 112.385455 68.0932 
L 112.493673 64.794627 
L 112.520727 64.794627 
L 112.845382 58.570259 
L 112.845382 58.570259 
L 112.872436 58.50403 
L 112.899491 58.606257 
L 112.926545 58.606257 
L 113.007709 59.555617 
L 113.305309 62.180736 
L 113.305309 62.167607 
L 113.359418 62.077927 
L 113.359418 62.077927 
L 113.467636 60.963503 
L 113.927564 53.568 
L 113.981673 53.768603 
L 114.116945 55.441846 
L 114.198109 57.338192 
L 114.225164 57.338192 
L 114.4416 59.49947 
L 114.495709 59.345521 
L 114.603927 57.789105 
L 114.630982 57.789105 
L 114.7392 55.441846 
L 114.766255 55.441846 
L 114.955636 53.568 
L 114.982691 53.590618 
L 115.063855 54.156064 
L 115.063855 54.156064 
L 115.253236 57.674556 
L 115.361455 60.013215 
L 115.361455 60.013215 
L 115.577891 62.180736 
L 115.577891 62.180736 
L 115.659055 61.799668 
L 115.659055 61.799668 
L 116.010764 58.50403 
L 116.064873 58.719283 
L 116.173091 60.133471 
L 116.281309 63.326353 
L 116.308364 63.326353 
L 116.416582 66.895233 
L 116.443636 66.895233 
L 116.551855 69.410447 
L 116.578909 69.410447 
L 116.578909 69.410447 
L 116.687127 70.110504 
L 116.741236 70.033855 
L 116.903564 68.851646 
L 116.903564 68.851646 
L 117.038836 68.165304 
L 117.065891 68.195625 
L 117.147055 68.752467 
L 117.255273 71.29184 
L 117.282327 71.29184 
L 117.823418 82.922598 
L 117.877527 82.850304 
L 117.985745 82.394677 
L 117.985745 82.394677 
L 118.066909 82.166029 
L 118.121018 82.243392 
L 118.202182 83.25167 
L 118.229236 83.25167 
L 118.418618 87.993324 
L 118.878545 99.902597 
L 118.932655 99.982347 
L 118.986764 100.016581 
L 119.040873 99.959919 
L 119.122036 99.921414 
L 119.149091 99.970063 
L 119.257309 101.124691 
L 119.284364 101.124691 
L 119.446691 105.065802 
L 119.554909 108.92184 
L 119.554909 108.92184 
L 119.933673 119.75171 
L 120.123055 120.647841 
L 120.123055 120.647841 
L 120.231273 120.934807 
L 120.366545 122.422516 
L 120.366545 122.422516 
L 120.474764 125.83985 
L 120.501818 125.83985 
L 120.501818 125.83985 
L 120.610036 130.841822 
L 120.637091 130.841822 
L 120.718255 135.154251 
L 120.745309 135.154251 
L 121.042909 143.021561 
L 121.069964 143.021561 
L 121.069964 143.021561 
L 121.502836 147.051113 
L 121.502836 147.051113 
L 121.773382 156.88094 
L 121.854545 161.132401 
L 121.8816 161.132401 
L 122.152145 167.500965 
L 122.1792 167.500965 
L 122.260364 168.040774 
L 122.287418 168.040774 
L 122.422691 168.80976 
L 122.530909 170.361037 
L 122.530909 170.361037 
L 122.720291 175.99587 
L 122.828509 180.391459 
L 123.207273 191.935085 
L 123.234327 191.935085 
L 123.315491 192.576758 
L 123.342545 192.576758 
L 123.531927 193.674388 
L 123.531927 193.674388 
L 123.694255 196.838567 
L 123.694255 196.838567 
L 123.991855 208.029741 
L 123.991855 208.029741 
L 124.100073 211.831568 
L 124.100073 211.831568 
L 124.343564 216.111784 
L 124.668218 218.406383 
L 124.911709 224.638408 
L 125.019927 229.895231 
L 125.046982 229.895231 
L 125.1552 234.521282 
L 125.182255 234.521282 
L 125.425745 238.320414 
L 125.588073 238.500306 
L 125.588073 238.500306 
L 125.669236 238.731178 
L 125.669236 238.731178 
L 125.777455 240.293787 
L 125.804509 240.293787 
L 125.912727 242.903696 
L 125.912727 242.903696 
L 126.507927 257.811577 
L 126.589091 257.72539 
L 126.697309 257.453148 
L 126.751418 257.488506 
L 126.751418 257.488506 
L 126.832582 257.954151 
L 126.832582 257.954151 
L 126.967855 260.211896 
L 127.076073 264.11942 
L 127.103127 264.11942 
L 127.211345 267.70029 
L 127.211345 267.70029 
L 127.508945 273.673471 
L 127.508945 273.673471 
L 127.563055 273.775907 
L 127.590109 273.733417 
L 127.725382 272.99683 
L 127.806545 272.50514 
L 127.8336 272.50514 
L 127.887709 272.542475 
L 127.968873 273.472388 
L 127.995927 273.472388 
L 128.185309 277.770217 
L 128.293527 280.917807 
L 128.564073 285.670157 
L 128.618182 285.642331 
L 128.618182 285.642331 
L 128.7264 284.937249 
L 128.807564 283.797176 
L 128.834618 283.797176 
L 128.996945 282.930153 
L 129.024 283.005612 
L 129.132218 284.073831 
L 129.348655 288.860897 
L 129.429818 291.267817 
L 129.456873 291.267817 
L 129.646255 292.999694 
L 129.646255 292.923403 
L 129.673309 292.923403 
L 129.781527 291.570834 
L 129.808582 291.570834 
L 129.889745 289.931739 
L 129.9168 289.931739 
L 130.106182 288.260543 
L 130.133236 288.389702 
L 130.160291 288.389702 
L 130.160291 288.389702 
L 130.268509 289.529018 
L 130.349673 291.501993 
L 130.376727 291.501993 
L 130.674327 295.488 
L 130.674327 295.44603 
L 130.701382 295.44603 
L 130.782545 294.836152 
L 130.890764 292.592126 
L 130.917818 292.592126 
L 131.242473 288.260543 
L 131.350691 289.192144 
L 131.377745 289.192144 
L 131.377745 289.192144 
L 131.485964 290.757676 
L 131.485964 290.757676 
L 131.7024 292.999694 
L 131.729455 292.996058 
L 131.810618 292.485898 
L 131.972945 289.516214 
L 131.972945 289.516214 
L 132.081164 286.850936 
L 132.081164 286.850936 
L 132.351709 282.930153 
L 132.351709 282.930153 
L 132.405818 282.995463 
L 132.405818 282.995463 
L 132.514036 283.797176 
L 132.622255 285.183481 
L 132.649309 285.183481 
L 132.730473 285.670158 
L 132.757527 285.623099 
L 132.784582 285.623099 
L 132.8928 284.617963 
L 132.973964 282.375104 
L 133.001018 282.375104 
L 133.488 272.492545 
L 133.542109 272.572044 
L 133.623273 273.174434 
L 133.650327 273.174434 
L 133.7856 273.775907 
L 133.839709 273.673471 
L 133.920873 272.548297 
L 133.947927 272.548297 
L 134.137309 267.70029 
L 134.245527 263.249197 
L 134.272582 263.249197 
L 134.3808 259.60772 
L 134.407855 259.60772 
L 134.489018 257.954151 
L 134.516073 257.954151 
L 134.624291 257.453148 
L 134.6784 257.506955 
L 134.840727 257.811577 
L 134.867782 257.755635 
L 134.976 256.864999 
L 134.976 256.864999 
L 135.138327 253.164888 
L 135.138327 253.164888 
L 135.246545 248.472313 
L 135.2736 248.472313 
L 135.381818 244.609098 
L 135.652364 238.905395 
L 135.652364 238.905395 
L 135.814691 238.480399 
L 135.814691 238.480399 
L 135.895855 238.406109 
L 136.004073 237.397285 
L 136.031127 237.397285 
L 136.220509 232.83574 
L 136.220509 232.83574 
L 136.788655 216.872627 
L 136.788655 216.872627 
L 137.113309 214.968686 
L 137.113309 214.968686 
L 137.194473 212.618415 
L 137.221527 212.618415 
L 137.546182 200.435161 
L 137.627345 196.838567 
L 137.6544 196.838567 
L 137.897891 193.014757 
L 137.897891 193.014757 
L 138.168436 191.311954 
L 138.2496 189.172543 
L 138.276655 189.172543 
L 138.520145 180.391459 
L 138.520145 180.391459 
L 138.601309 175.99587 
L 138.628364 175.99587 
L 138.925964 168.80976 
L 138.925964 168.80976 
L 139.358836 164.505362 
L 139.656436 153.525521 
L 139.656436 153.525521 
L 139.764655 148.579249 
L 139.791709 148.579249 
L 140.0352 144.144 
L 140.386909 141.579224 
L 140.386909 141.579224 
L 140.576291 136.17352 
L 140.657455 131.930753 
L 140.684509 131.930753 
L 141.036218 121.615925 
L 141.2256 120.610832 
L 141.279709 120.562681 
L 141.387927 120.023595 
L 141.387927 120.023595 
L 141.5232 117.922016 
L 141.739636 110.983589 
L 141.847855 105.966965 
L 141.874909 105.966965 
L 141.983127 102.124334 
L 142.010182 102.124334 
L 142.010182 102.124334 
L 142.091345 100.449594 
L 142.1184 100.449594 
L 142.253673 99.911401 
L 142.280727 99.928336 
L 142.388945 100.016746 
L 142.416 99.982347 
L 142.497164 99.569987 
L 142.632436 97.465834 
L 142.7136 94.473727 
L 142.740655 94.473727 
L 143.200582 82.243392 
L 143.335855 82.287133 
L 143.417018 82.757623 
L 143.444073 82.757623 
L 143.525236 82.922598 
L 143.552291 82.778292 
L 143.579345 82.778292 
L 143.687564 81.632183 
L 143.687564 81.632183 
L 143.904 76.108373 
L 144.012218 72.007117 
L 144.039273 72.007117 
L 144.039273 72.007117 
L 144.147491 69.103127 
L 144.174545 69.103127 
L 144.309818 68.165305 
L 144.336873 68.203111 
L 144.472145 69.082456 
L 144.580364 70.033855 
L 144.688582 70.04867 
L 144.688582 70.04867 
L 144.769745 69.043534 
L 144.7968 69.043534 
L 145.013236 64.05898 
L 145.013236 64.05898 
L 145.121455 60.6722 
L 145.337891 58.50403 
L 145.337891 58.517642 
L 145.392 58.606257 
L 145.392 58.606257 
L 145.500218 59.555617 
L 145.608436 60.941698 
L 145.608436 60.941698 
L 145.770764 62.180736 
L 145.797818 62.077927 
L 145.824873 62.077927 
L 145.933091 60.963503 
L 145.933091 60.963503 
L 146.393018 53.568 
L 146.447127 53.768603 
L 146.609455 55.904775 
L 146.717673 57.789105 
L 146.717673 57.789105 
L 146.907055 59.49947 
L 146.934109 59.460734 
L 147.015273 58.899378 
L 147.123491 56.865572 
L 147.150545 56.865572 
L 147.421091 53.568 
L 147.421091 53.590618 
L 147.4752 53.697158 
L 147.4752 53.697158 
L 147.583418 54.913682 
L 147.583418 54.913682 
L 147.691636 57.066774 
L 147.691636 57.066774 
L 148.016291 62.180736 
L 148.0704 62.120265 
L 148.0704 62.120265 
L 148.205673 60.941698 
L 148.313891 59.24815 
L 148.340945 59.24815 
L 148.422109 58.517642 
L 148.449164 58.517642 
L 148.476218 58.50403 
L 148.503273 58.570259 
L 148.611491 59.66309 
L 148.719709 62.609377 
L 148.746764 62.609377 
L 149.125527 70.04867 
L 149.125527 70.04867 
L 149.179636 70.103362 
L 149.206691 70.033855 
L 149.341964 69.082456 
L 149.423127 68.300827 
L 149.450182 68.300827 
L 149.504291 68.165304 
L 149.5584 68.300682 
L 149.666618 69.536293 
L 149.666618 69.536293 
L 149.856 74.409938 
L 149.856 74.409938 
L 149.937164 77.767434 
L 149.964218 77.767434 
L 150.234764 82.778292 
L 150.288873 82.922598 
L 150.342982 82.757623 
L 150.370036 82.757623 
L 150.478255 82.20702 
L 150.586473 82.243392 
L 150.694691 83.25167 
L 150.694691 83.25167 
L 150.884073 87.993324 
L 150.884073 87.993324 
L 151.344 99.902597 
L 151.398109 99.982347 
L 151.398109 99.982347 
L 151.452218 100.016581 
L 151.506327 99.959919 
L 151.533382 99.911401 
L 151.614545 100.068133 
L 151.6416 100.068133 
L 151.6416 100.068133 
L 151.749818 101.124691 
L 151.749818 101.124691 
L 151.912145 105.065802 
L 151.912145 105.065802 
L 152.020364 108.92184 
L 152.399127 120.023595 
L 152.426182 120.023595 
L 152.426182 120.023595 
L 152.615564 120.686319 
L 152.615564 120.686319 
L 152.696727 120.934807 
L 152.804945 122.422516 
L 152.832 122.422516 
L 152.832 122.422516 
L 152.940218 125.002207 
L 153.643636 143.676953 
L 153.697745 143.761402 
L 153.805964 144.620374 
L 153.833018 144.620374 
L 153.995345 147.776483 
L 154.103564 151.394597 
L 154.103564 151.394597 
L 154.6176 167.276019 
L 155.050473 171.596665 
L 155.158691 175.99587 
L 155.185745 175.99587 
L 155.293964 181.521074 
L 155.618618 190.895241 
L 155.835055 192.674486 
L 155.835055 192.674486 
L 155.970327 193.401237 
L 156.1056 195.470885 
L 156.1056 195.470885 
L 156.213818 198.50856 
L 156.213818 198.50856 
L 156.836073 216.358459 
L 156.890182 216.436853 
L 156.890182 216.436853 
L 157.052509 217.052941 
L 157.052509 217.052941 
L 157.187782 218.931089 
L 157.268945 221.803982 
L 157.296 221.803982 
L 157.8912 238.320414 
L 157.8912 238.320414 
L 158.053527 238.500306 
L 158.134691 238.731178 
L 158.242909 239.833367 
L 158.242909 239.833367 
L 158.432291 244.609098 
L 158.432291 244.609098 
L 158.919273 257.640398 
L 159.000436 257.817843 
L 159.027491 257.785218 
L 159.189818 257.453148 
L 159.216873 257.578585 
L 159.243927 257.578585 
L 159.352145 258.625326 
L 159.541527 263.249197 
L 159.649745 266.815161 
L 159.649745 266.815161 
L 159.947345 273.673471 
L 160.082618 273.640814 
L 160.190836 272.99683 
L 160.190836 272.99683 
L 160.326109 272.492545 
L 160.353164 272.661539 
L 160.380218 272.661539 
L 160.488436 273.897149 
L 160.488436 273.897149 
L 160.5696 276.278334 
L 160.596655 276.278334 
L 161.029527 285.670157 
L 161.083636 285.642331 
L 161.191855 284.937249 
L 161.191855 284.937249 
L 161.4624 282.930153 
L 161.489455 283.005612 
L 161.597673 284.073831 
L 161.597673 284.073831 
L 161.841164 289.516215 
L 161.949382 292.152727 
L 161.976436 292.152727 
L 162.111709 292.999694 
L 162.138764 292.923403 
L 162.246982 291.570834 
L 162.274036 291.570834 
L 162.274036 291.570834 
L 162.544582 288.260543 
L 162.598691 288.286378 
L 162.679855 288.822871 
L 162.869236 292.048674 
L 163.058618 295.321112 
L 163.139782 295.44603 
L 163.193891 295.321112 
L 163.680873 288.260543 
L 163.762036 288.628312 
L 164.167855 292.999694 
L 164.276073 292.485898 
L 164.465455 288.860897 
L 164.546618 286.208068 
L 164.790109 282.930153 
L 164.871273 282.995463 
L 164.952436 283.797176 
L 164.979491 283.797176 
L 165.222982 285.670158 
L 165.250036 285.623099 
L 165.358255 284.617963 
L 165.439418 282.375104 
L 165.466473 282.375104 
L 165.953455 272.492545 
L 165.953455 272.492545 
L 166.007564 272.572044 
L 166.251055 273.775907 
L 166.332218 273.513722 
L 166.413382 272.061175 
L 166.710982 264.11942 
L 166.873309 259.077874 
L 167.089745 257.453148 
L 167.143855 257.573646 
L 167.197964 257.650661 
L 167.306182 257.811577 
L 167.333236 257.755635 
L 167.441455 256.864999 
L 167.549673 253.967649 
L 167.576727 253.967649 
L 168.198982 238.500306 
L 168.361309 238.406109 
L 168.469527 237.397285 
L 168.685964 232.83574 
L 169.254109 216.872627 
L 169.254109 216.872627 
L 169.578764 214.968686 
L 169.686982 211.831568 
L 170.3904 192.881032 
L 170.3904 192.881032 
L 170.606836 191.656368 
L 170.715055 189.172543 
L 170.742109 189.172543 
L 170.742109 189.172543 
L 171.039709 177.051856 
L 171.066764 177.051856 
L 171.066764 177.051856 
L 171.364364 168.80976 
L 171.391418 168.80976 
L 171.824291 164.505362 
L 172.121891 152.441461 
L 172.148945 152.441461 
L 172.446545 144.620374 
L 172.635927 143.49796 
L 172.744145 143.021561 
L 172.879418 141.031502 
L 172.960582 138.063387 
L 172.987636 138.063387 
L 173.609891 120.738875 
L 173.691055 120.647841 
L 173.691055 120.647841 
L 173.799273 120.384372 
L 173.799273 120.384372 
L 173.907491 119.409489 
L 173.907491 119.409489 
L 174.096873 114.881908 
L 174.205091 110.983589 
L 174.205091 110.983589 
L 174.583855 100.449594 
L 174.583855 100.449594 
L 174.719127 99.911401 
L 174.746182 99.928336 
L 174.8544 100.016746 
L 174.881455 99.982347 
L 174.962618 99.569987 
L 174.962618 99.569987 
L 175.043782 98.041765 
L 175.070836 98.041765 
L 175.314327 90.781571 
L 175.314327 90.781571 
L 175.638982 82.590111 
L 175.638982 82.590111 
L 175.7472 82.166029 
L 175.774255 82.287133 
L 175.828364 82.394677 
L 175.828364 82.394677 
L 175.990691 82.922598 
L 176.017745 82.881803 
L 176.125964 82.034369 
L 176.234182 79.291579 
L 176.261236 79.291579 
L 176.775273 68.165305 
L 176.775273 68.203111 
L 176.829382 68.300827 
L 177.126982 70.110504 
L 177.181091 69.70061 
L 177.208145 69.70061 
L 177.208145 69.70061 
L 177.343418 67.521256 
L 177.343418 67.521256 
L 177.451636 64.05898 
L 177.478691 64.05898 
L 177.776291 58.50403 
L 177.857455 58.606257 
L 177.857455 58.606257 
L 177.965673 59.89114 
L 177.992727 59.89114 
L 178.100945 61.264788 
L 178.100945 61.264788 
L 178.236218 62.180736 
L 178.263273 62.167607 
L 178.344436 61.66694 
L 178.452655 59.466873 
L 178.479709 59.466873 
L 178.858473 53.568 
L 178.858473 53.568 
L 178.939636 53.984025 
L 179.047855 55.904775 
L 179.074909 55.904775 
L 179.372509 59.49947 
L 179.372509 59.460734 
L 179.399564 59.460734 
L 179.399564 59.460734 
L 179.480727 58.579911 
L 179.507782 58.579911 
L 179.886545 53.568 
L 179.940655 53.697158 
L 180.075927 55.387017 
L 180.075927 55.387017 
L 180.5088 62.180736 
L 180.589964 61.799668 
L 180.671127 60.596801 
L 180.698182 60.596801 
L 180.941673 58.50403 
L 180.995782 58.719283 
L 181.076945 60.133471 
L 181.104 60.133471 
L 181.618036 70.110504 
L 181.6992 69.9102 
L 181.780364 69.082456 
L 181.807418 69.082456 
L 181.969745 68.165304 
L 181.9968 68.300682 
L 182.023855 68.300682 
L 182.105018 69.536293 
L 182.132073 69.536293 
L 182.348509 75.257799 
L 182.456727 79.291579 
L 182.483782 79.291579 
L 182.564945 81.632183 
L 182.592 81.632183 
L 182.754327 82.922598 
L 182.781382 82.908892 
L 182.8896 82.51735 
L 182.8896 82.51735 
L 182.970764 82.166029 
L 182.997818 82.166029 
L 183.051927 82.243392 
L 183.160145 83.25167 
L 183.349527 87.993324 
L 183.457745 92.672694 
L 183.4848 92.672694 
L 183.7824 99.569987 
L 183.7824 99.569987 
L 183.917673 100.016581 
L 183.944727 99.959919 
L 184.107055 100.068133 
L 184.107055 100.068133 
L 184.215273 101.124691 
L 184.215273 101.124691 
L 184.3776 105.065802 
L 184.485818 108.92184 
L 184.485818 108.92184 
L 184.891636 120.231745 
L 185.081018 120.738875 
L 185.135127 120.81781 
L 185.243345 121.98017 
L 185.2704 121.98017 
L 185.2704 121.98017 
L 185.432727 125.83985 
L 185.540945 130.841822 
L 185.568 130.841822 
L 185.649164 135.154251 
L 185.676218 135.154251 
L 185.973818 142.763671 
L 186.190255 143.859296 
L 186.325527 144.953504 
L 186.433745 147.776483 
L 186.4608 147.776483 
L 186.4608 147.776483 
L 186.569018 152.441461 
L 187.028945 166.647479 
L 187.028945 166.647479 
L 187.245382 168.26219 
L 187.272436 168.26219 
L 187.407709 169.442364 
L 187.407709 169.442364 
L 187.570036 173.14911 
L 187.570036 173.14911 
L 187.678255 178.144364 
L 187.705309 178.144364 
L 188.138182 191.656368 
L 188.138182 191.656368 
L 188.354618 192.881032 
L 188.489891 194.012225 
L 188.571055 196.115215 
L 188.598109 196.115215 
L 188.895709 206.959953 
L 189.003927 211.831568 
L 189.030982 211.831568 
L 189.1392 214.502691 
L 189.1392 214.502691 
L 189.355636 216.501479 
L 189.409745 216.564946 
L 189.517964 217.052941 
L 189.626182 218.931089 
L 189.653236 218.931089 
L 189.761455 222.696331 
L 189.788509 222.696331 
L 190.3296 238.320414 
L 190.383709 238.406109 
L 190.491927 238.500306 
L 190.546036 238.538833 
L 190.546036 238.538833 
L 190.654255 239.143059 
L 190.762473 241.450032 
L 190.789527 241.450032 
L 191.033018 250.441332 
L 191.330618 257.457655 
L 191.357673 257.457655 
L 191.465891 257.817843 
L 191.465891 257.785218 
L 191.52 257.72539 
L 191.655273 257.453148 
L 191.682327 257.578585 
L 191.709382 257.578585 
L 191.790545 258.625326 
L 191.8176 258.625326 
L 192.006982 263.249197 
L 192.1152 267.70029 
L 192.142255 267.70029 
L 192.250473 271.4947 
L 192.277527 271.4947 
L 192.277527 271.4947 
L 192.493964 273.775907 
L 192.493964 273.775907 
L 192.575127 273.508886 
L 192.683345 272.683637 
L 192.7104 272.683637 
L 192.764509 272.492545 
L 192.818618 272.661539 
L 192.845673 272.661539 
L 192.980945 274.395848 
L 193.062109 277.007385 
L 193.089164 277.007385 
L 193.494982 285.623099 
L 193.494982 285.623099 
L 193.522036 285.670157 
L 193.549091 285.546229 
L 193.576145 285.546229 
L 193.738473 284.080415 
L 193.738473 284.080415 
L 193.927855 282.930153 
L 193.927855 282.930153 
L 194.009018 283.387442 
L 194.144291 285.598728 
L 194.252509 288.860897 
L 194.279564 288.860897 
L 194.550109 292.999694 
L 194.604218 292.923403 
L 194.712436 291.570834 
L 195.037091 288.260543 
L 195.037091 288.286378 
L 195.0912 288.389702 
L 195.199418 289.529018 
L 195.199418 289.529018 
L 195.605236 295.488 
L 195.632291 295.321112 
L 195.821673 293.11972 
L 195.929891 290.449132 
L 195.956945 290.449132 
L 195.956945 290.449132 
L 196.173382 288.260543 
L 196.173382 288.260543 
L 196.254545 288.628312 
L 196.254545 288.628312 
L 196.443927 291.172164 
L 196.525091 292.552183 
L 196.552145 292.552183 
L 196.633309 292.999694 
L 196.687418 292.909542 
L 196.795636 291.267817 
L 196.822691 291.267817 
L 197.309673 282.928384 
L 197.336727 282.995463 
L 197.444945 283.797176 
L 197.526109 284.937249 
L 197.553164 284.937249 
L 197.688436 285.670158 
L 197.715491 285.623099 
L 197.823709 284.617963 
L 197.931927 281.666228 
L 197.958982 281.666228 
L 197.958982 281.666228 
L 198.391855 272.492545 
L 198.473018 272.572044 
L 198.473018 272.572044 
L 198.716509 273.775907 
L 198.797673 273.513722 
L 198.905891 271.494699 
L 198.932945 271.494699 
L 198.932945 271.494699 
L 199.203491 263.249197 
L 199.284655 260.211896 
L 199.311709 260.211896 
L 199.528145 257.453148 
L 199.609309 257.506955 
L 199.771636 257.811577 
L 199.798691 257.755635 
L 199.879855 257.200799 
L 199.988073 255.364324 
L 199.988073 255.364324 
L 200.258618 246.495152 
L 200.258618 246.495152 
L 200.366836 242.14188 
L 200.393891 242.14188 
L 200.637382 238.538833 
L 200.799709 238.453445 
L 200.880873 238.185577 
L 200.880873 238.185577 
L 201.016145 236.490867 
L 201.016145 236.490867 
L 201.232582 229.895231 
L 201.665455 217.289084 
L 201.881891 216.253997 
L 201.908945 216.253997 
L 201.908945 216.253997 
L 201.990109 215.356894 
L 202.179491 211.831568 
L 202.287709 208.029741 
L 202.287709 208.029741 
L 202.747636 193.674388 
L 202.747636 193.674388 
L 202.991127 192.329661 
L 203.099345 191.311954 
L 203.099345 191.311954 
L 203.207564 189.172543 
L 203.207564 189.172543 
L 203.451055 180.391459 
L 203.532218 175.99587 
L 203.559273 175.99587 
L 203.856873 168.80976 
L 204.289745 164.505362 
L 204.289745 164.505362 
L 204.397964 161.1324 
L 204.397964 161.1324 
L 204.966109 144.144 
L 204.966109 144.144 
L 205.317818 141.579224 
L 205.480145 136.17352 
L 205.967127 121.324953 
L 205.994182 121.324953 
L 206.1024 120.686319 
L 206.183564 120.610832 
L 206.264727 120.231745 
L 206.291782 120.231745 
L 206.4 118.9921 
L 206.4 118.9921 
L 206.508218 115.743549 
L 206.535273 115.743549 
L 207.130473 99.970063 
L 207.130473 99.970063 
L 207.184582 99.911401 
L 207.238691 99.993538 
L 207.373964 99.902597 
L 207.373964 99.902597 
L 207.455127 98.960015 
L 207.482182 98.960015 
L 207.671564 94.473727 
L 207.779782 89.833122 
L 207.806836 89.833122 
L 207.806836 89.833122 
L 208.131491 82.379578 
L 208.212655 82.166029 
L 208.239709 82.20702 
L 208.456145 82.922598 
L 208.510255 82.778292 
L 208.618473 81.632183 
L 208.618473 81.632183 
L 208.807855 76.949026 
L 208.889018 73.577423 
L 208.916073 73.577423 
L 209.186618 68.300682 
L 209.186618 68.300682 
L 209.240727 68.165305 
L 209.294836 68.300827 
L 209.592436 70.110504 
L 209.646545 69.70061 
L 209.6736 69.70061 
L 209.781818 67.521256 
L 209.808873 67.521256 
L 210.2688 58.50403 
L 210.295855 58.606257 
L 210.322909 58.606257 
L 210.458182 59.89114 
L 210.458182 59.89114 
L 210.5664 61.554376 
L 210.593455 61.554376 
L 210.674618 62.180736 
L 210.701673 62.167607 
L 210.755782 62.077927 
L 210.864 60.515302 
L 210.891055 60.515302 
L 210.891055 60.515302 
L 211.323927 53.568 
L 211.350982 53.768603 
L 211.567418 56.383558 
L 211.567418 56.383558 
L 211.837964 59.49947 
L 211.837964 59.460734 
L 211.865018 59.460734 
L 211.973236 58.20661 
L 212.000291 58.20661 
L 212.108509 56.383558 
L 212.108509 56.383558 
L 212.352 53.568 
L 212.352 53.590618 
L 212.406109 53.697158 
L 212.514327 54.913682 
L 212.622545 57.674556 
L 212.6496 57.674556 
L 212.9472 62.167607 
L 212.9472 62.167607 
L 212.974255 62.180736 
L 212.974255 62.180736 
L 213.217745 59.89114 
L 213.217745 59.89114 
L 213.298909 58.76326 
L 213.325964 58.76326 
L 213.407127 58.50403 
L 213.434182 58.570259 
L 213.5424 59.66309 
L 213.5424 59.66309 
L 213.785891 65.520663 
L 213.894109 68.0932 
L 214.083491 70.110504 
L 214.110545 70.103362 
L 214.191709 69.540105 
L 214.218764 69.540105 
L 214.4352 68.165304 
L 214.462255 68.300682 
L 214.489309 68.300682 
L 214.597527 69.536293 
L 214.705745 72.77258 
L 214.7328 72.77258 
L 215.165673 82.881803 
L 215.273891 82.850304 
L 215.273891 82.850304 
L 215.463273 82.166029 
L 215.517382 82.379578 
L 215.544436 82.379578 
L 215.679709 84.243681 
L 215.679709 84.243681 
L 215.950255 92.672694 
L 216.247855 99.569987 
L 216.247855 99.569987 
L 216.383127 100.016581 
L 216.383127 99.993538 
L 216.5184 99.921414 
L 216.545455 99.970063 
L 216.653673 100.7478 
L 216.653673 100.7478 
L 216.734836 102.74706 
L 216.761891 102.74706 
L 217.032436 112.004467 
L 217.032436 112.004467 
L 217.1136 115.743549 
L 217.140655 115.743549 
L 217.384145 120.384372 
L 217.438255 120.491089 
L 217.438255 120.491089 
L 217.546473 120.686319 
L 217.546473 120.686319 
L 217.627636 120.934807 
L 217.7088 121.98017 
L 217.735855 121.98017 
L 217.925236 126.74404 
L 217.925236 126.74404 
L 218.493382 143.378507 
L 218.520436 143.378507 
L 218.790982 144.953504 
L 219.575564 167.67871 
L 219.846109 169.442364 
L 220.062545 174.035553 
L 220.062545 174.035553 
L 220.6848 192.329661 
L 220.955345 194.012225 
L 221.117673 197.63797 
L 221.117673 197.63797 
L 221.225891 202.547257 
L 221.252945 202.547257 
L 221.252945 202.547257 
L 221.685818 215.921038 
L 221.712873 215.921038 
L 222.145745 219.535185 
L 222.145745 219.535185 
L 222.416291 228.846866 
L 222.768 238.185577 
L 222.930327 238.480399 
L 222.930327 238.480399 
L 223.011491 238.538833 
L 223.011491 238.538833 
L 223.119709 239.143059 
L 223.119709 239.143059 
L 223.282036 242.14188 
L 223.3632 245.534803 
L 223.390255 245.534803 
L 223.823127 257.457655 
L 223.931345 257.817843 
L 223.9584 257.785218 
L 224.120727 257.453148 
L 224.147782 257.578585 
L 224.174836 257.578585 
L 224.283055 258.625326 
L 224.391273 261.622033 
L 224.418327 261.622033 
L 224.418327 261.622033 
L 224.932364 273.758663 
L 224.932364 273.758663 
L 224.959418 273.775907 
L 224.986473 273.733417 
L 225.094691 272.99683 
L 225.121745 272.99683 
L 225.229964 272.492545 
L 225.284073 272.542475 
L 225.365236 273.124529 
L 225.473455 275.59387 
L 225.960436 285.670157 
L 226.014545 285.642331 
L 226.095709 285.183481 
L 226.095709 285.183481 
L 226.176873 284.080415 
L 226.203927 284.080415 
L 226.393309 282.930153 
L 226.447418 283.387442 
L 226.609745 286.208068 
L 226.988509 292.909542 
L 226.988509 292.909542 
L 227.042618 292.999694 
L 227.069673 292.923403 
L 227.204945 291.570834 
L 227.286109 289.931739 
L 227.313164 289.931739 
L 227.502545 288.260543 
L 227.5296 288.389702 
L 227.556655 288.389702 
L 227.556655 288.389702 
L 227.664873 289.529018 
L 227.664873 289.529018 
L 227.773091 292.048674 
L 227.800145 292.048674 
L 228.070691 295.488 
L 228.070691 295.488 
L 228.097745 295.321112 
L 228.287127 293.11972 
L 228.287127 293.11972 
L 228.395345 290.449132 
L 228.4224 290.449132 
L 228.638836 288.260543 
L 228.638836 288.311205 
L 228.665891 288.311205 
L 228.665891 288.311205 
L 228.774109 289.192144 
L 228.774109 289.192144 
L 229.125818 292.996058 
L 229.152873 292.909542 
L 229.261091 291.744493 
L 229.369309 289.516214 
L 229.369309 289.516214 
L 229.748073 282.928384 
L 229.802182 282.995463 
L 229.9104 284.080415 
L 229.937455 284.080415 
L 230.153891 285.670158 
L 230.180945 285.623099 
L 230.289164 284.162488 
L 230.316218 284.162488 
L 230.424436 280.917807 
L 230.451491 280.917807 
L 230.559709 277.007385 
L 230.586764 277.007385 
L 230.586764 277.007385 
L 230.857309 272.492545 
L 230.938473 272.572044 
L 231.046691 273.174434 
L 231.181964 273.775907 
L 231.236073 273.673471 
L 231.344291 272.548297 
L 231.425455 270.144887 
L 231.452509 270.144887 
L 231.9936 257.488506 
L 231.9936 257.488506 
L 232.047709 257.462894 
L 232.074764 257.506955 
L 232.237091 257.811577 
L 232.264145 257.755635 
L 232.372364 256.447309 
L 232.399418 256.447309 
L 232.399418 256.447309 
L 232.5888 251.391502 
L 232.697018 247.478432 
L 232.697018 247.478432 
L 233.021673 238.905395 
L 233.048727 238.905395 
L 233.211055 238.480399 
L 233.292218 238.406109 
L 233.373382 237.731418 
L 233.400436 237.731418 
L 233.535709 235.257144 
L 233.616873 231.900932 
L 233.643927 231.900932 
L 234.157964 216.872627 
L 234.185018 216.872627 
L 234.266182 216.501479 
L 234.293236 216.501479 
L 234.401455 216.111784 
L 234.482618 214.968686 
L 234.509673 214.968686 
L 234.672 210.97186 
L 234.780218 206.959953 
L 234.780218 206.959953 
L 235.213091 193.674388 
L 235.456582 192.156311 
L 235.483636 192.156311 
L 235.618909 190.401401 
L 235.808291 184.784339 
L 235.808291 184.784339 
L 235.916509 179.261675 
L 235.943564 179.261675 
L 236.295273 168.80976 
L 236.322327 168.80976 
L 236.322327 168.80976 
L 236.7552 164.505362 
L 236.998691 155.757747 
L 237.106909 150.395743 
L 237.377455 144.353276 
L 237.404509 144.353276 
L 237.512727 143.676953 
L 237.566836 143.593342 
L 237.648 143.021561 
L 237.675055 143.021561 
L 237.810327 141.031502 
L 237.810327 141.031502 
L 237.891491 138.063387 
L 237.918545 138.063387 
L 238.513745 120.934807 
L 238.513745 120.934807 
L 238.8384 119.409489 
L 238.8384 119.409489 
L 238.946618 116.541573 
L 238.973673 116.541573 
L 239.622982 99.921414 
L 239.7312 99.993538 
L 239.7312 99.993538 
L 239.758255 100.016746 
L 239.839418 99.902597 
L 239.947636 98.960015 
L 239.947636 98.960015 
L 240.109964 95.31185 
L 240.218182 90.781571 
L 240.245236 90.781571 
L 240.569891 82.590111 
L 240.678109 82.166029 
L 240.705164 82.20702 
L 240.9216 82.922598 
L 240.975709 82.778292 
L 241.083927 81.632183 
L 241.083927 81.632183 
L 241.300364 76.108373 
L 241.300364 76.108373 
L 241.652073 68.300682 
L 241.652073 68.300682 
L 241.706182 68.165305 
L 241.760291 68.300827 
L 241.868509 69.316148 
L 241.895564 69.316148 
L 242.003782 70.103362 
L 242.084945 70.04867 
L 242.166109 69.043534 
L 242.193164 69.043534 
L 242.4096 64.05898 
L 242.490764 61.271046 
L 242.517818 61.271046 
L 242.734255 58.50403 
L 242.734255 58.50403 
L 242.788364 58.606257 
L 242.788364 58.606257 
L 242.896582 59.555617 
L 243.0048 61.264788 
L 243.031855 61.264788 
L 243.167127 62.180736 
L 243.194182 62.167607 
L 243.275345 61.66694 
L 243.464727 58.285534 
L 243.545891 55.910995 
L 243.572945 55.910995 
L 243.762327 53.568 
L 243.789382 53.628313 
L 243.816436 53.628313 
L 243.924655 54.612192 
L 243.924655 54.612192 
L 244.005818 56.383558 
L 244.032873 56.383558 
L 244.303418 59.49947 
L 244.303418 59.460734 
L 244.330473 59.460734 
L 244.438691 58.20661 
L 244.465745 58.20661 
L 244.465745 58.20661 
L 244.817455 53.568 
L 244.844509 53.697158 
L 245.006836 55.387017 
L 245.006836 55.387017 
L 245.439709 62.180736 
L 245.439709 62.120265 
L 245.466764 62.120265 
L 245.602036 60.941698 
L 245.710255 59.24815 
L 245.737309 59.24815 
L 245.737309 59.24815 
L 245.845527 58.517642 
L 245.845527 58.517642 
L 245.872582 58.50403 
L 245.899636 58.570259 
L 245.9808 59.267679 
L 245.9808 59.267679 
L 246.089018 61.271046 
L 246.089018 61.271046 
L 246.548945 70.110504 
L 246.548945 70.110504 
L 246.603055 70.033855 
L 246.765382 68.851646 
L 246.765382 68.851646 
L 246.900655 68.165304 
L 246.927709 68.300682 
L 246.954764 68.300682 
L 246.954764 68.300682 
L 247.035927 69.536293 
L 247.062982 69.536293 
L 247.279418 75.257799 
L 247.387636 79.291579 
L 247.414691 79.291579 
L 247.522909 82.034369 
L 247.549964 82.034369 
L 247.549964 82.034369 
L 247.658182 82.922598 
L 247.739345 82.850304 
L 247.739345 82.850304 
L 247.928727 82.166029 
L 247.982836 82.379578 
L 248.009891 82.379578 
L 248.145164 84.243681 
L 248.145164 84.243681 
L 248.226327 87.126013 
L 248.253382 87.126013 
L 248.740364 99.767881 
L 248.848582 100.016581 
L 248.875636 99.993538 
L 248.983855 99.921414 
L 249.010909 99.970063 
L 249.092073 100.7478 
L 249.119127 100.7478 
L 249.281455 104.223539 
L 249.389673 108.92184 
L 249.416727 108.92184 
L 249.768436 119.75171 
L 250.228364 122.422516 
L 250.228364 122.422516 
L 250.4448 128.717689 
L 250.4448 128.717689 
L 250.525964 133.020844 
L 250.553018 133.020844 
L 250.904727 143.021561 
L 250.931782 143.021561 
L 251.3376 146.406111 
L 251.445818 149.454547 
L 252.068073 167.820035 
L 252.095127 167.820035 
L 252.176291 168.26219 
L 252.203345 168.26219 
L 252.284509 169.093382 
L 252.500945 173.14911 
L 252.500945 173.14911 
L 253.204364 192.674486 
L 253.258473 192.771708 
L 253.258473 192.771708 
L 253.366691 193.401237 
L 253.366691 193.401237 
L 253.474909 195.470885 
L 253.501964 195.470885 
L 253.610182 199.443704 
L 253.637236 199.443704 
L 253.637236 199.443704 
L 254.178327 215.921038 
L 254.178327 215.921038 
L 254.6112 219.535185 
L 254.6112 219.535185 
L 254.881745 228.846866 
L 254.881745 228.846866 
L 255.2064 237.731419 
L 255.2064 237.731419 
L 255.395782 238.484928 
L 255.476945 238.538833 
L 255.476945 238.538833 
L 255.558109 238.905395 
L 255.558109 238.905395 
L 255.666327 240.833011 
L 255.963927 249.46416 
L 255.963927 249.46416 
L 256.072145 253.96765 
L 256.0992 253.96765 
L 256.0992 253.96765 
L 256.342691 257.755635 
L 256.342691 257.755635 
L 256.3968 257.817843 
L 256.423855 257.72539 
L 256.586182 257.453148 
L 256.613236 257.488506 
L 256.721455 258.625326 
L 256.748509 258.625326 
L 256.910836 262.413132 
L 257.019055 265.914883 
L 257.019055 265.914883 
L 257.343709 273.513722 
L 257.343709 273.513722 
L 257.424873 273.775907 
L 257.451927 273.733417 
L 257.5872 272.99683 
L 257.695418 272.492545 
L 257.749527 272.542475 
L 257.749527 272.542475 
L 257.857745 273.897149 
L 257.8848 273.897149 
L 257.993018 276.278334 
L 257.993018 276.278334 
L 258.425891 285.670157 
L 258.48 285.642331 
L 258.48 285.642331 
L 258.588218 284.663071 
L 258.615273 284.663071 
L 258.858764 282.930153 
L 258.939927 283.387442 
L 258.939927 283.387442 
L 259.102255 286.208068 
L 259.210473 289.516215 
L 259.237527 289.516215 
L 259.237527 289.516215 
L 259.481018 292.999694 
L 259.535127 292.923403 
L 259.535127 292.923403 
L 259.6704 291.570834 
L 259.6704 291.570834 
L 259.968 288.260543 
L 259.995055 288.286378 
L 260.076218 288.822871 
L 260.292655 292.592126 
L 260.292655 292.592126 
L 260.536145 295.488 
L 260.536145 295.44603 
L 260.5632 295.44603 
L 260.5632 295.44603 
L 260.671418 294.487574 
L 260.671418 294.487574 
L 261.104291 288.260543 
L 261.1584 288.43541 
L 261.320727 290.339994 
L 261.320727 290.339994 
L 261.428945 292.27209 
L 261.456 292.27209 
L 261.456 292.27209 
L 261.537164 292.999694 
L 261.564218 292.999694 
L 261.618327 292.909542 
L 261.726545 291.267817 
L 261.7536 291.267817 
L 262.240582 282.928384 
L 262.267636 282.995463 
L 262.402909 284.080415 
L 262.619345 285.670158 
L 262.6464 285.623099 
L 262.754618 284.617963 
L 262.754618 284.617963 
L 262.862836 282.375104 
L 262.862836 282.375104 
L 263.349818 272.492545 
L 263.349818 272.50514 
L 263.403927 272.572044 
L 263.512145 273.349324 
L 263.5392 273.349324 
L 263.620364 273.775907 
L 263.647418 273.775907 
L 263.701527 273.673471 
L 263.809745 272.548297 
L 263.917964 269.376412 
L 263.945018 269.376412 
L 264.432 257.578585 
L 264.432 257.578585 
L 264.486109 257.453148 
L 264.540218 257.506955 
L 264.702545 257.811577 
L 264.7296 257.755635 
L 264.837818 256.864999 
L 264.837818 256.864999 
L 264.946036 254.703005 
L 265.649455 238.480399 
L 265.757673 238.406109 
L 265.757673 238.406109 
L 265.838836 237.991982 
L 265.92 236.490867 
L 265.947055 236.490867 
L 266.163491 229.895231 
L 266.163491 229.895231 
L 266.271709 224.638408 
L 266.298764 224.638408 
L 266.406982 220.975548 
L 266.406982 220.975548 
L 266.650473 216.738528 
L 266.704582 216.639863 
L 266.704582 216.639863 
L 266.785745 216.358459 
L 266.866909 216.111784 
L 266.975127 214.502691 
L 267.002182 214.502691 
L 267.002182 214.502691 
L 267.191564 209.062003 
L 267.191564 209.062003 
L 267.299782 203.645366 
L 267.326836 203.645366 
L 267.678545 193.401237 
L 267.7056 193.401237 
L 268.111418 189.827494 
L 268.111418 189.827494 
L 268.219636 185.791466 
L 268.246691 185.791466 
L 268.246691 185.791466 
L 268.814836 168.583291 
L 269.166545 165.734221 
L 269.382982 159.078587 
L 269.382982 159.078587 
L 269.842909 144.620374 
L 270.059345 143.49796 
L 270.059345 143.49796 
L 270.194618 142.441424 
L 270.275782 140.404073 
L 270.302836 140.404073 
L 270.573382 130.841822 
L 270.573382 130.841822 
L 270.6816 125.83985 
L 270.708655 125.83985 
L 270.816873 122.422516 
L 270.843927 122.422516 
L 271.060364 120.686319 
L 271.060364 120.686319 
L 271.195636 120.384372 
L 271.303855 119.409489 
L 271.303855 119.409489 
L 271.412073 116.541573 
L 271.439127 116.541573 
L 272.088436 99.911401 
L 272.304873 99.902597 
L 272.413091 98.960015 
L 272.602473 94.473727 
L 272.710691 89.833122 
L 272.737745 89.833122 
L 272.845964 85.55035 
L 272.873018 85.55035 
L 272.954182 83.25167 
L 272.981236 83.25167 
L 273.143564 82.166029 
L 273.143564 82.166029 
L 273.224727 82.394677 
L 273.332945 82.850304 
L 273.332945 82.850304 
L 273.387055 82.922598 
L 273.414109 82.778292 
L 273.441164 82.778292 
L 273.441164 82.778292 
L 273.549382 81.632183 
L 273.6576 79.291579 
L 274.171636 68.165305 
L 274.171636 68.165305 
L 274.2528 68.448833 
L 274.2528 68.448833 
L 274.523345 70.110504 
L 274.5504 69.913022 
L 274.577455 69.913022 
L 274.577455 69.913022 
L 274.712727 68.0932 
L 274.793891 65.520663 
L 274.820945 65.520663 
L 275.172655 58.570259 
L 275.199709 58.50403 
L 275.226764 58.606257 
L 275.253818 58.606257 
L 275.389091 59.89114 
L 275.389091 59.89114 
L 275.497309 61.554376 
L 275.524364 61.554376 
L 275.632582 62.180736 
L 275.686691 62.077927 
L 275.794909 60.963503 
L 276.254836 53.568 
L 276.308945 53.984025 
L 276.336 53.984025 
L 276.525382 56.865572 
L 276.525382 56.865572 
L 276.606545 58.579911 
L 276.6336 58.579911 
L 276.768873 59.49947 
L 276.795927 59.460734 
L 276.904145 58.579911 
L 277.012364 56.383558 
L 277.039418 56.383558 
L 277.282909 53.568 
L 277.337018 53.697158 
L 277.337018 53.697158 
L 277.445236 54.913682 
L 277.553455 57.674556 
L 277.580509 57.674556 
L 277.878109 62.180736 
L 277.932218 62.120265 
L 277.932218 62.120265 
L 278.067491 60.941698 
L 278.338036 58.50403 
L 278.338036 58.50403 
L 278.4192 58.952089 
L 278.500364 60.6722 
L 278.527418 60.6722 
L 279.0144 70.110504 
L 279.041455 70.033855 
L 279.068509 70.033855 
L 279.068509 70.033855 
L 279.176727 69.082456 
L 279.203782 69.082456 
L 279.366109 68.165304 
L 279.393164 68.300682 
L 279.420218 68.300682 
L 279.528436 70.048999 
L 279.555491 70.048999 
L 279.798982 76.949026 
L 279.9072 80.599521 
L 279.934255 80.599521 
L 279.934255 80.599521 
L 280.150691 82.922598 
L 280.150691 82.922598 
L 280.2048 82.850304 
L 280.313018 82.287133 
L 280.367127 82.20702 
L 280.421236 82.174947 
L 280.448291 82.243392 
L 280.556509 83.25167 
L 280.556509 83.25167 
L 280.718836 87.126013 
L 280.718836 87.126013 
L 280.8 90.781571 
L 280.827055 90.781571 
L 281.178764 99.767881 
L 281.205818 99.767881 
L 281.314036 100.016581 
L 281.341091 99.993538 
L 281.422255 99.911401 
L 281.476364 99.970063 
L 281.584582 100.7478 
L 281.584582 100.7478 
L 281.719855 103.448415 
L 281.828073 107.906247 
L 281.855127 107.906247 
L 281.855127 107.906247 
L 281.936291 112.004467 
L 281.963345 112.004467 
L 282.288 120.231745 
L 282.477382 120.738875 
L 282.531491 120.81781 
L 282.531491 120.81781 
L 282.639709 121.615925 
L 282.639709 121.615925 
L 282.802036 125.002207 
L 282.802036 125.002207 
L 283.505455 143.676953 
L 283.559564 143.761402 
L 283.559564 143.761402 
L 283.694836 144.620374 
L 283.776 146.406111 
L 283.803055 146.406111 
L 284.019491 153.525521 
L 284.100655 157.991997 
L 284.127709 157.991997 
L 284.452364 167.276019 
L 284.479418 167.276019 
L 284.479418 167.276019 
L 284.885236 170.938498 
L 284.993455 174.98722 
L 285.020509 174.98722 
L 285.128727 180.391459 
L 285.155782 180.391459 
L 285.155782 180.391459 
L 285.534545 191.656368 
L 285.534545 191.656368 
L 285.750982 193.014757 
L 285.778036 193.014757 
L 285.778036 193.014757 
L 285.913309 194.421349 
L 285.994473 196.838567 
L 286.021527 196.838567 
L 286.319127 208.029741 
L 286.319127 208.029741 
L 286.427345 212.618415 
L 286.4544 212.618415 
L 286.697891 216.358459 
L 286.752 216.436853 
L 286.860218 216.872627 
L 286.887273 216.872627 
L 287.022545 218.406383 
L 287.022545 218.406383 
L 287.211927 223.644354 
L 287.211927 223.644354 
L 287.320145 227.784392 
L 287.320145 227.784392 
L 287.671855 237.991982 
L 287.698909 237.991982 
L 287.861236 238.480399 
L 287.861236 238.480399 
L 287.9424 238.538833 
L 288.023564 239.143059 
L 288.050618 239.143059 
L 288.212945 242.14188 
L 288.212945 242.14188 
L 288.862255 257.817843 
L 288.862255 257.785218 
L 288.916364 257.72539 
L 288.916364 257.72539 
L 289.051636 257.453148 
L 289.078691 257.578585 
L 289.105745 257.578585 
L 289.213964 258.625326 
L 289.376291 262.413132 
L 289.484509 266.815161 
L 289.511564 266.815161 
L 289.809164 273.673471 
L 289.944436 273.640814 
L 290.052655 272.99683 
L 290.187927 272.492545 
L 290.214982 272.661539 
L 290.242036 272.661539 
L 290.377309 274.395848 
L 290.377309 274.395848 
L 290.674909 282.375104 
L 290.756073 284.617963 
L 290.783127 284.617963 
L 290.9184 285.670157 
L 290.945455 285.546229 
L 291.161891 283.797176 
L 291.270109 282.928384 
L 291.351273 283.005612 
L 291.351273 283.005612 
L 291.459491 284.073831 
L 291.567709 286.850936 
L 291.594764 286.850936 
L 291.919418 292.996058 
L 292.000582 292.923403 
L 292.000582 292.923403 
L 292.135855 291.570834 
L 292.135855 291.570834 
L 292.433455 288.260543 
L 292.460509 288.286378 
L 292.541673 288.822871 
L 292.649891 290.449132 
L 292.649891 290.449132 
L 293.0016 295.488 
L 293.0016 295.44603 
L 293.028655 295.44603 
L 293.136873 294.487574 
L 293.245091 292.048674 
L 293.272145 292.048674 
L 293.569745 288.260543 
L 293.677964 288.883298 
L 294.029673 292.999694 
L 294.110836 292.739157 
L 294.246109 290.730928 
L 294.246109 290.730928 
L 294.354327 287.515628 
L 294.381382 287.515628 
L 294.381382 287.515628 
L 294.462545 285.03372 
L 294.4896 285.03372 
L 294.706036 282.928384 
L 294.706036 282.995463 
L 294.733091 282.995463 
L 294.733091 282.995463 
L 294.868364 284.080415 
L 294.868364 284.080415 
L 295.0848 285.670158 
L 295.111855 285.623099 
L 295.193018 284.993742 
L 295.301236 283.03363 
L 295.815273 272.492545 
L 295.842327 272.50514 
L 295.923491 272.99683 
L 295.950545 272.99683 
L 296.112873 273.775907 
L 296.139927 273.673471 
L 296.166982 273.673471 
L 296.2752 272.548297 
L 296.464582 267.70029 
L 296.545745 264.11942 
L 296.5728 264.11942 
L 296.8704 257.731598 
L 296.8704 257.731598 
L 296.951564 257.453148 
L 297.005673 257.506955 
L 297.168 257.811577 
L 297.195055 257.755635 
L 297.303273 256.864999 
L 297.303273 256.864999 
L 297.492655 252.302958 
L 297.492655 252.302958 
L 297.573818 248.472313 
L 297.600873 248.472313 
L 297.952582 238.905395 
L 297.979636 238.905395 
L 298.141964 238.474109 
L 298.223127 238.406109 
L 298.331345 237.397285 
L 298.3584 237.397285 
L 298.3584 237.397285 
L 298.547782 232.83574 
L 298.547782 232.83574 
L 299.115927 216.738528 
L 299.170036 216.639863 
L 299.278255 216.358459 
L 299.278255 216.358459 
L 299.386473 215.672144 
L 299.494691 213.32754 
L 299.521745 213.32754 
L 299.792291 203.645366 
L 299.792291 203.645366 
L 300.144 193.674388 
L 300.387491 192.329661 
L 300.468655 191.311954 
L 300.685091 186.741271 
L 300.793309 181.521074 
L 300.820364 181.521074 
L 301.226182 168.80976 
L 301.253236 168.80976 
L 301.686109 164.505362 
L 301.956655 154.63506 
L 301.956655 154.63506 
L 302.064873 150.395743 
L 302.064873 150.395743 
L 302.335418 144.353276 
L 302.335418 144.353276 
L 302.768291 140.404073 
L 302.876509 136.17352 
L 302.903564 136.17352 
L 302.903564 136.17352 
L 303.390545 121.324953 
L 303.390545 121.324953 
L 303.579927 120.610832 
L 303.579927 120.610832 
L 303.661091 120.384372 
L 303.742255 119.409489 
L 303.769309 119.409489 
L 303.931636 115.743549 
L 304.039855 110.983589 
L 304.066909 110.983589 
L 304.445673 100.449594 
L 304.580945 99.911401 
L 304.608 99.959919 
L 304.770327 99.902597 
L 304.878545 98.960015 
L 304.878545 98.960015 
L 305.067927 94.473727 
L 305.067927 94.473727 
L 305.527855 82.243392 
L 305.663127 82.287133 
L 305.852509 82.922598 
L 305.879564 82.881803 
L 305.987782 82.034369 
L 305.987782 82.034369 
L 306.068945 79.976868 
L 306.096 79.976868 
L 306.637091 68.165305 
L 306.664145 68.300827 
L 306.6912 68.300827 
L 306.9888 70.110504 
L 307.042909 69.70061 
L 307.069964 69.70061 
L 307.069964 69.70061 
L 307.178182 67.521256 
L 307.205236 67.521256 
L 307.665164 58.50403 
L 307.692218 58.517642 
L 307.773382 58.980433 
L 307.854545 60.242408 
L 307.8816 60.242408 
L 308.098036 62.180736 
L 308.125091 62.077927 
L 308.152145 62.077927 
L 308.260364 60.963503 
L 308.720291 53.568 
L 308.7744 53.984025 
L 308.801455 53.984025 
L 308.801455 53.984025 
L 308.909673 55.904775 
L 308.936727 55.904775 
L 309.044945 57.789105 
L 309.044945 57.789105 
L 309.234327 59.49947 
L 309.261382 59.460734 
L 309.3696 58.579911 
L 309.3696 58.579911 
L 309.748364 53.568 
L 309.802473 53.697158 
L 309.883636 54.913682 
L 310.370618 62.180736 
L 310.397673 62.120265 
L 310.505891 61.264788 
L 310.505891 61.264788 
L 310.614109 59.89114 
L 310.614109 59.89114 
L 310.776436 58.50403 
L 310.830545 58.570259 
L 310.938764 59.66309 
L 310.938764 59.66309 
L 311.182255 65.520663 
L 311.290473 68.602834 
L 311.317527 68.602834 
L 311.479855 70.110504 
L 311.506909 70.103362 
L 311.615127 69.540105 
L 311.615127 69.540105 
L 311.831564 68.165304 
L 311.858618 68.300682 
L 311.885673 68.300682 
L 311.993891 69.536293 
L 312.102109 72.007117 
L 312.102109 72.007117 
L 312.589091 82.881803 
L 312.589091 82.881803 
L 312.6432 82.908892 
L 312.670255 82.850304 
L 312.859636 82.166029 
L 312.913745 82.243392 
L 312.994909 82.879827 
L 313.076073 84.859876 
L 313.103127 84.859876 
L 313.481891 96.815337 
L 313.563055 98.960015 
L 313.590109 98.960015 
L 313.779491 100.016581 
L 313.914764 99.921414 
L 313.914764 99.970063 
L 314.050036 100.7478 
L 314.212364 104.223539 
L 314.212364 104.223539 
L 314.834618 120.562681 
L 314.915782 120.647841 
L 314.915782 120.647841 
L 315.024 120.934807 
L 315.159273 122.422516 
L 315.348655 127.706535 
L 315.348655 127.706535 
L 315.456873 133.020844 
L 315.483927 133.020844 
L 315.483927 133.020844 
L 315.565091 137.146448 
L 315.592145 137.146448 
L 315.862691 143.223302 
L 315.889745 143.223302 
L 316.2144 145.359264 
L 316.295564 147.776483 
L 316.322618 147.776483 
L 316.620218 159.078587 
L 316.620218 159.078587 
L 316.728436 163.771392 
L 316.755491 163.771392 
L 316.998982 167.67871 
L 316.998982 167.67871 
L 317.269527 169.442364 
L 317.269527 169.442364 
L 317.458909 174.035553 
L 317.567127 178.144364 
L 317.567127 178.144364 
L 318 191.935085 
L 318.027055 191.935085 
L 318.108218 192.576758 
L 318.135273 192.576758 
L 318.324655 193.674388 
L 318.324655 193.674388 
L 318.432873 195.470885 
L 318.649309 202.547257 
L 318.757527 206.959953 
L 318.757527 206.959953 
L 319.082182 215.672144 
L 319.082182 215.672144 
L 319.298618 216.738528 
L 319.325673 216.738528 
L 319.406836 217.589267 
L 319.433891 217.589267 
L 319.569164 220.217662 
L 319.569164 220.217662 
L 319.677382 223.644354 
L 320.164364 237.991982 
L 320.326691 238.484928 
L 320.407855 238.538833 
L 320.489018 239.143059 
L 320.516073 239.143059 
L 320.6784 242.14188 
L 320.6784 242.14188 
L 320.759564 245.534803 
L 320.786618 245.534803 
L 321.219491 257.640398 
L 321.246545 257.640398 
L 321.246545 257.640398 
L 321.327709 257.817843 
L 321.354764 257.72539 
L 321.408873 257.650661 
L 321.490036 257.453148 
L 321.517091 257.453148 
L 321.598255 257.731598 
L 321.598255 257.731598 
L 321.706473 259.077875 
L 321.706473 259.077875 
L 321.895855 264.119421 
L 321.895855 264.119421 
L 322.004073 268.557944 
L 322.031127 268.557944 
L 322.301673 273.758663 
L 322.382836 273.733417 
L 322.382836 273.733417 
L 322.545164 272.82913 
L 322.545164 272.82913 
L 322.653382 272.492545 
L 322.653382 272.542475 
L 322.680436 272.542475 
L 322.680436 272.542475 
L 322.788655 273.472388 
L 322.869818 275.59387 
L 322.896873 275.59387 
L 323.383855 285.670157 
L 323.383855 285.642331 
L 323.437964 285.546229 
L 323.546182 284.373253 
L 323.573236 284.373253 
L 323.789673 282.930153 
L 323.789673 283.005612 
L 323.816727 283.005612 
L 323.924945 284.522678 
L 323.952 284.522678 
L 323.952 284.522678 
L 324.438982 292.999694 
L 324.493091 292.772028 
L 324.574255 291.570834 
L 324.601309 291.570834 
L 324.898909 288.260543 
L 324.925964 288.389702 
L 324.953018 288.389702 
L 325.061236 289.529018 
L 325.061236 289.529018 
L 325.169455 291.501993 
L 325.169455 291.501993 
L 325.467055 295.488 
L 325.467055 295.488 
L 325.521164 295.321112 
L 325.629382 293.619143 
L 326.008145 288.260543 
L 326.062255 288.311205 
L 326.170473 289.192144 
L 326.278691 291.172164 
L 326.305745 291.172164 
L 326.305745 291.172164 
L 326.495127 292.999694 
L 326.522182 292.909542 
L 326.549236 292.909542 
L 326.657455 291.744493 
L 326.657455 291.744493 
L 327.171491 282.928384 
L 327.2256 283.12478 
L 327.414982 284.937249 
L 327.5232 285.670158 
L 327.577309 285.623099 
L 327.577309 285.623099 
L 327.685527 284.617963 
L 327.685527 284.617963 
L 327.874909 280.141549 
L 327.983127 276.278334 
L 328.010182 276.278334 
L 328.172509 273.124529 
L 328.280727 272.492545 
L 328.334836 272.572044 
L 328.578327 273.775907 
L 328.659491 273.513722 
L 328.740655 272.061175 
L 328.767709 272.061175 
L 329.038255 264.11942 
L 329.038255 264.11942 
L 329.146473 260.211896 
L 329.173527 260.211896 
L 329.281745 257.954151 
L 329.3088 257.954151 
L 329.417018 257.453148 
L 329.471127 257.506955 
L 329.552291 257.785218 
L 329.579345 257.785218 
L 329.633455 257.811577 
L 329.660509 257.755635 
L 329.768727 256.447309 
L 329.795782 256.447309 
L 329.985164 251.391502 
L 329.985164 251.391502 
L 330.066327 247.478432 
L 330.093382 247.478432 
L 330.418036 239.143059 
L 330.418036 239.143059 
L 330.580364 238.484928 
L 330.688582 238.406109 
L 330.7968 237.397285 
L 330.823855 237.397285 
L 330.932073 234.521282 
L 330.959127 234.521282 
L 331.662545 216.501479 
L 331.716655 216.436853 
L 331.716655 216.436853 
L 331.797818 215.921038 
L 331.824873 215.921038 
L 331.960145 213.955968 
L 332.068364 210.045924 
L 332.095418 210.045924 
L 332.663564 193.184564 
L 332.663564 193.184564 
L 332.988218 190.895241 
L 333.096436 187.625513 
L 333.123491 187.625513 
L 333.826909 168.145093 
L 333.826909 168.145093 
L 333.989236 167.276019 
L 334.097455 165.159976 
L 334.124509 165.159976 
L 334.232727 161.1324 
L 334.259782 161.1324 
L 334.368 155.757747 
L 334.395055 155.757747 
L 334.395055 155.757747 
L 334.476218 151.394597 
L 334.503273 151.394597 
L 334.800873 144.353276 
L 335.233745 140.404073 
L 335.233745 140.404073 
L 335.477236 131.930753 
L 335.585455 126.74404 
L 335.612509 126.74404 
L 335.883055 120.934807 
L 335.910109 120.934807 
L 335.910109 120.934807 
L 336.018327 120.610832 
L 336.072436 120.562681 
L 336.072436 120.562681 
L 336.180655 120.023595 
L 336.288873 117.922016 
L 336.315927 117.922016 
L 336.586473 108.92184 
L 336.586473 108.92184 
L 336.911127 100.449594 
L 337.0464 99.911401 
L 337.073455 99.959919 
L 337.235782 99.902597 
L 337.344 98.960015 
L 337.506327 95.31185 
L 337.587491 91.732308 
L 337.614545 91.732308 
L 337.966255 82.379578 
L 337.993309 82.379578 
L 337.993309 82.379578 
L 338.047418 82.166029 
L 338.101527 82.287133 
L 338.317964 82.922598 
L 338.345018 82.881803 
L 338.453236 81.632183 
L 338.480291 81.632183 
L 338.561455 79.291579 
L 338.588509 79.291579 
L 339.102545 68.165305 
L 339.102545 68.165305 
L 339.183709 68.448833 
L 339.183709 68.448833 
L 339.454255 70.110504 
L 339.481309 70.04867 
L 339.589527 69.043534 
L 339.589527 69.043534 
L 339.805964 64.05898 
L 339.914182 60.6722 
L 339.941236 60.6722 
L 340.130618 58.50403 
L 340.157673 58.517642 
L 340.265891 59.24815 
L 340.265891 59.24815 
L 340.563491 62.180736 
L 340.6176 62.077927 
L 340.725818 60.963503 
L 341.185745 53.568 
L 341.239855 53.768603 
L 341.402182 55.904775 
L 341.402182 55.904775 
L 341.699782 59.49947 
L 341.699782 59.49947 
L 341.753891 59.345521 
L 341.753891 59.345521 
L 341.889164 57.789105 
L 341.889164 57.789105 
L 341.997382 55.441846 
L 342.024436 55.441846 
L 342.132655 53.768603 
L 342.159709 53.768603 
L 342.159709 53.768603 
L 342.186764 53.568 
L 342.267927 53.697158 
L 342.4032 55.387017 
L 342.484364 57.674556 
L 342.511418 57.674556 
L 342.809018 62.167607 
L 342.809018 62.167607 
L 342.836073 62.180736 
L 342.863127 62.120265 
L 342.944291 61.264788 
L 342.971345 61.264788 
L 343.268945 58.50403 
L 343.296 58.570259 
L 343.404218 59.66309 
L 343.404218 59.66309 
L 343.620655 64.794627 
L 343.728873 68.0932 
L 343.755927 68.0932 
L 343.755927 68.0932 
L 343.945309 70.110504 
L 343.972364 70.103362 
L 344.080582 69.540105 
L 344.080582 69.540105 
L 344.297018 68.165304 
L 344.324073 68.300682 
L 344.351127 68.300682 
L 344.351127 68.300682 
L 344.459345 69.536293 
L 344.459345 69.536293 
L 344.675782 75.257799 
L 344.784 79.291579 
L 344.811055 79.291579 
L 344.811055 79.291579 
L 345.054545 82.922598 
L 345.135709 82.850304 
L 345.243927 82.394677 
L 345.243927 82.394677 
L 345.325091 82.166029 
L 345.3792 82.243392 
L 345.460364 83.25167 
L 345.487418 83.25167 
L 345.649745 87.126013 
L 345.649745 87.126013 
L 345.730909 90.781571 
L 345.757964 90.781571 
L 346.109673 99.569987 
L 346.244945 100.016581 
L 346.272 99.959919 
L 346.434327 100.068133 
L 346.434327 100.068133 
L 346.542545 101.124691 
L 346.542545 101.124691 
L 346.731927 105.966965 
L 346.731927 105.966965 
L 346.813091 109.951834 
L 346.840145 109.951834 
L 347.191855 120.023595 
L 347.218909 120.023595 
L 347.327127 120.610832 
L 347.408291 120.686319 
L 347.408291 120.686319 
L 347.516509 121.10065 
L 347.516509 121.10065 
L 347.624727 122.422516 
L 347.624727 122.422516 
L 347.732945 125.83985 
L 348.3552 143.378507 
L 348.382255 143.378507 
L 348.490473 143.761402 
L 348.490473 143.761402 
L 348.598691 144.353276 
L 348.706909 145.842487 
L 348.706909 145.842487 
L 348.896291 151.394597 
L 349.004509 156.88094 
L 349.031564 156.88094 
L 349.031564 156.88094 
L 349.383273 167.276019 
L 349.410327 167.276019 
L 349.816145 170.938498 
L 349.924364 174.98722 
L 349.951418 174.98722 
L 350.519564 192.329661 
L 350.817164 194.012225 
L 350.925382 196.838567 
L 350.952436 196.838567 
L 351.0336 200.435161 
L 351.060655 200.435161 
L 351.574691 216.111784 
L 351.601745 216.111784 
L 351.953455 218.406383 
L 352.061673 220.975548 
L 352.061673 220.975548 
L 352.738036 238.453445 
L 352.738036 238.453445 
L 352.927418 238.731178 
L 352.927418 238.731178 
L 353.035636 240.293787 
L 353.062691 240.293787 
L 353.062691 240.293787 
L 353.279127 246.495153 
L 353.387345 250.441332 
L 353.387345 250.441332 
L 353.684945 257.640398 
L 353.712 257.640398 
L 353.793164 257.817843 
L 353.820218 257.785218 
L 353.982545 257.453148 
L 354.0096 257.578585 
L 354.036655 257.578585 
L 354.144873 259.077875 
L 354.171927 259.077875 
L 354.415418 265.914883 
L 354.415418 265.914883 
L 354.740073 273.513722 
L 354.821236 273.775907 
L 354.848291 273.640814 
L 354.875345 273.640814 
L 354.983564 272.99683 
L 354.983564 272.99683 
L 355.118836 272.492545 
L 355.145891 272.542475 
L 355.254109 273.472388 
L 355.362327 276.278334 
L 355.389382 276.278334 
L 355.4976 280.141549 
L 355.524655 280.141549 
L 355.822255 285.670157 
L 355.876364 285.642331 
L 355.984582 284.937249 
L 356.255127 282.930153 
L 356.282182 283.005612 
L 356.3904 284.073831 
L 356.3904 284.073831 
L 356.606836 288.860897 
L 356.715055 291.744493 
L 356.742109 291.744493 
L 356.823273 292.909542 
L 356.850327 292.909542 
L 356.877382 292.999694 
L 356.931491 292.923403 
L 357.066764 291.570834 
L 357.066764 291.570834 
L 357.364364 288.260543 
L 357.391418 288.389702 
L 357.418473 288.389702 
L 357.418473 288.389702 
L 357.499636 289.529018 
L 357.526691 289.529018 
L 357.932509 295.488 
L 357.986618 295.321112 
L 358.121891 293.619143 
L 358.230109 290.964707 
L 358.257164 290.964707 
L 358.500655 288.260543 
L 358.581818 288.628312 
L 358.690036 290.339994 
L 358.717091 290.339994 
L 358.960582 292.999694 
L 358.987636 292.909542 
L 359.014691 292.909542 
L 359.122909 291.267817 
L 359.149964 291.267817 
L 359.636945 282.928384 
L 359.664 283.12478 
L 359.691055 283.12478 
L 359.907491 285.183481 
L 359.988655 285.670158 
L 360.015709 285.670158 
L 360.069818 285.496317 
L 360.069818 285.496317 
L 360.178036 284.162488 
L 360.286255 280.917807 
L 360.313309 280.917807 
L 360.692073 272.661539 
L 360.692073 272.661539 
L 360.746182 272.492545 
L 360.800291 272.572044 
L 361.043782 273.775907 
L 361.124945 273.513722 
L 361.233164 271.494699 
L 361.260218 271.494699 
L 361.368436 267.70029 
L 361.395491 267.70029 
L 361.395491 267.70029 
L 361.503709 264.11942 
L 361.801309 257.578585 
L 361.855418 257.488506 
L 361.855418 257.488506 
L 361.855418 257.453148 
L 361.963636 257.573646 
L 361.963636 257.573646 
L 362.098909 257.811577 
L 362.125964 257.755635 
L 362.234182 256.447309 
L 362.261236 256.447309 
L 362.261236 256.447309 
L 362.3424 253.967649 
L 362.369455 253.967649 
L 362.991709 238.538833 
L 363.208145 238.185577 
L 363.316364 236.984748 
L 363.478691 232.83574 
L 363.478691 232.83574 
L 363.586909 227.784392 
L 363.613964 227.784392 
L 363.965673 217.289084 
L 363.992727 217.289084 
L 363.992727 217.289084 
L 364.100945 216.564946 
L 364.155055 216.501479 
L 364.155055 216.501479 
L 364.290327 215.921038 
L 364.290327 215.921038 
L 364.4256 213.955968 
L 364.4256 213.955968 
L 364.614982 208.029741 
L 364.7232 202.547257 
L 364.750255 202.547257 
L 364.858473 197.63797 
L 364.885527 197.63797 
L 365.129018 193.184564 
L 365.480727 190.401401 
L 365.480727 190.401401 
L 365.670109 184.784339 
L 365.670109 184.784339 
L 365.778327 180.391459 
L 365.778327 180.391459 
L 366.157091 168.80976 
L 366.184145 168.80976 
L 366.292364 168.040774 
L 366.346473 167.936624 
L 366.346473 167.936624 
L 366.481745 166.99426 
L 366.644073 163.771392 
L 366.644073 163.771392 
L 366.968727 151.394597 
L 366.968727 151.394597 
L 367.076945 147.051113 
L 367.104 147.051113 
L 367.347491 143.859296 
L 367.563927 142.763671 
L 367.563927 142.763671 
L 367.6992 140.404073 
L 367.6992 140.404073 
L 367.807418 136.17352 
L 367.834473 136.17352 
L 367.942691 131.930753 
L 367.942691 131.930753 
L 368.2944 121.615925 
L 368.2944 121.615925 
L 368.483782 120.610832 
L 368.537891 120.562681 
L 368.646109 119.75171 
L 368.673164 119.75171 
L 368.754327 117.922016 
L 368.781382 117.922016 
L 368.997818 110.983589 
L 368.997818 110.983589 
L 369.106036 105.966965 
L 369.133091 105.966965 
L 369.133091 105.966965 
L 369.403636 100.068133 
L 369.457745 99.970063 
L 369.457745 99.970063 
L 369.511855 99.911401 
L 369.565964 99.959919 
L 369.647127 100.016746 
L 369.674182 99.982347 
L 369.7824 99.302309 
L 369.7824 99.302309 
L 369.944727 96.095133 
L 370.052945 91.732308 
L 370.08 91.732308 
L 370.431709 82.379578 
L 370.458764 82.379578 
L 370.539927 82.166029 
L 370.566982 82.20702 
L 370.783418 82.922598 
L 370.837527 82.778292 
L 370.945745 81.152911 
L 371.243345 73.577423 
L 371.351564 70.63639 
L 371.351564 70.63639 
L 371.568 68.165305 
L 371.568 68.203111 
L 371.622109 68.300827 
L 371.622109 68.300827 
L 371.919709 70.110504 
L 371.973818 69.70061 
L 372.000873 69.70061 
L 372.000873 69.70061 
L 372.1632 66.895233 
L 372.271418 63.326353 
L 372.298473 63.326353 
L 372.379636 60.6722 
L 372.406691 60.6722 
L 372.569018 58.50403 
L 372.623127 58.517642 
L 372.731345 59.555617 
L 372.7584 59.555617 
L 372.7584 59.555617 
L 372.839564 60.941698 
L 372.866618 60.941698 
L 373.028945 62.180736 
L 373.056 62.077927 
L 373.083055 62.077927 
L 373.191273 60.963503 
L 373.191273 60.963503 
L 373.272436 58.887078 
L 373.299491 58.887078 
L 373.624145 53.568 
L 373.678255 53.628313 
L 373.786473 54.612192 
L 373.786473 54.612192 
L 373.867636 56.383558 
L 373.894691 56.383558 
L 374.165236 59.49947 
L 374.165236 59.460734 
L 374.192291 59.460734 
L 374.273455 58.899378 
L 374.381673 56.865572 
L 374.652218 53.628314 
L 374.679273 53.568 
L 374.706327 53.697158 
L 374.733382 53.697158 
L 374.8416 54.913682 
L 374.8416 54.913682 
L 375.301527 62.180736 
L 375.355636 61.991038 
L 375.4368 60.941698 
L 375.463855 60.941698 
L 375.7344 58.50403 
L 375.7344 58.50403 
L 375.815564 58.952089 
L 375.923782 61.271046 
L 375.950836 61.271046 
L 376.059055 64.794627 
L 376.086109 64.794627 
L 376.383709 70.110504 
L 376.464873 70.033855 
L 376.600145 69.082456 
L 376.600145 69.082456 
L 376.708364 68.203111 
L 376.816582 68.300682 
L 376.897745 69.536293 
L 377.2224 77.767434 
L 377.303564 80.599521 
L 377.330618 80.599521 
L 377.547055 82.922598 
L 377.547055 82.922598 
L 377.628218 82.757623 
L 377.628218 82.757623 
L 377.736436 82.287133 
L 377.736436 82.287133 
L 377.790545 82.174947 
L 377.8176 82.243392 
L 377.952873 83.25167 
L 378.1152 87.126013 
L 378.223418 91.732308 
L 378.250473 91.732308 
L 378.250473 91.732308 
L 378.575127 99.767881 
L 378.602182 99.767881 
L 378.656291 100.016746 
L 378.7104 100.016581 
L 378.845673 99.921414 
L 378.872727 99.970063 
L 378.980945 101.124691 
L 379.008 101.124691 
L 379.170327 105.065802 
L 379.278545 109.951834 
L 379.3056 109.951834 
L 379.386764 113.96489 
L 379.413818 113.96489 
L 379.684364 120.231745 
L 379.711418 120.231745 
L 379.927855 120.81781 
L 380.036073 121.615925 
L 380.036073 121.615925 
L 380.1984 125.002207 
L 380.306618 129.76669 
L 380.333673 129.76669 
L 380.766545 143.021561 
L 380.7936 143.021561 
L 381.226473 147.051113 
L 381.334691 150.395743 
L 381.334691 150.395743 
L 381.902836 167.67871 
L 381.929891 167.67871 
L 382.200436 169.442364 
L 382.308655 172.334526 
L 382.335709 172.334526 
L 382.633309 183.729538 
L 382.633309 183.729538 
L 382.714473 187.625513 
L 382.741527 187.625513 
L 382.985018 192.156311 
L 382.985018 192.156311 
L 383.336727 194.906589 
L 383.336727 194.906589 
L 383.444945 198.50856 
L 383.472 198.50856 
L 383.472 198.50856 
L 384.094255 216.358459 
L 384.148364 216.436853 
L 384.256582 216.872627 
L 384.283636 216.872627 
L 384.418909 218.406383 
L 384.527127 220.975548 
L 384.527127 220.975548 
L 385.203491 238.474109 
L 385.338764 238.538833 
L 385.338764 238.538833 
L 385.446982 239.143059 
L 385.446982 239.143059 
L 385.609309 242.14188 
L 385.609309 242.14188 
L 385.690473 245.534803 
L 385.798691 248.472314 
L 385.906909 253.164888 
L 385.933964 253.164888 
L 385.933964 253.164888 
L 386.015127 255.946749 
L 386.042182 255.946749 
L 386.231564 257.817843 
L 386.312727 257.72539 
L 386.393891 257.462894 
L 386.420945 257.462894 
L 386.475055 257.488506 
L 386.583273 258.251078 
L 386.7456 261.622033 
L 386.853818 265.914883 
L 386.880873 265.914883 
L 386.989091 270.144887 
L 387.016145 270.144887 
L 387.016145 270.144887 
L 387.124364 272.953101 
L 387.151418 272.953101 
L 387.286691 273.775907 
L 387.313745 273.733417 
L 387.449018 272.99683 
L 387.557236 272.492545 
L 387.665455 272.854574 
L 387.665455 272.854574 
L 387.800727 274.96363 
L 388.314764 285.670157 
L 388.341818 285.642331 
L 388.422982 285.183481 
L 388.5312 283.797176 
L 388.558255 283.797176 
L 388.666473 282.928384 
L 388.747636 283.005612 
L 388.855855 284.522678 
L 388.882909 284.522678 
L 388.882909 284.522678 
L 388.991127 287.515628 
L 389.018182 287.515628 
L 389.342836 292.999694 
L 389.396945 292.923403 
L 389.396945 292.923403 
L 389.505164 291.941375 
L 389.613382 289.931739 
L 389.640436 289.931739 
L 389.748655 288.43541 
L 389.775709 288.43541 
L 389.829818 288.260543 
L 389.883927 288.389702 
L 389.992145 289.529018 
L 389.992145 289.529018 
L 390.100364 291.501993 
L 390.100364 291.501993 
L 390.397964 295.488 
L 390.452073 295.321112 
L 390.452073 295.321112 
L 390.587345 293.619143 
L 390.695564 291.501993 
L 390.695564 291.501993 
L 390.966109 288.260543 
L 390.966109 288.260543 
L 391.047273 288.628312 
L 391.128436 289.931739 
L 391.155491 289.931739 
L 391.426036 292.999694 
L 391.453091 292.909542 
L 391.480145 292.909542 
L 391.561309 291.744493 
L 391.588364 291.744493 
L 392.1024 282.928384 
L 392.156509 283.12478 
L 392.345891 284.937249 
L 392.454109 285.642331 
L 392.454109 285.642331 
L 392.481164 285.670158 
L 392.508218 285.623099 
L 392.616436 284.617963 
L 392.616436 284.617963 
L 392.778764 280.141549 
L 393.130473 272.661539 
L 393.157527 272.661539 
L 393.211636 272.492545 
L 393.265745 272.683637 
L 393.2928 272.683637 
L 393.2928 272.683637 
L 393.509236 273.775907 
L 393.563345 273.673471 
L 393.671564 272.061175 
L 393.698618 272.061175 
L 393.915055 265.914883 
L 394.023273 262.413132 
L 394.023273 262.413132 
L 394.293818 257.488506 
L 394.429091 257.573646 
L 394.537309 257.817843 
L 394.564364 257.755635 
L 394.699636 256.864999 
L 394.699636 256.864999 
L 394.889018 252.302958 
L 394.997236 247.478432 
L 395.024291 247.478432 
L 395.132509 243.728848 
L 395.132509 243.728848 
L 395.403055 238.731178 
L 395.565382 238.474109 
L 395.646545 238.320414 
L 395.646545 238.320414 
L 395.754764 236.984748 
L 395.781818 236.984748 
L 395.862982 234.521282 
L 395.890036 234.521282 
L 396.593455 216.501479 
L 396.647564 216.436853 
L 396.647564 216.436853 
L 396.755782 215.921038 
L 396.891055 213.955968 
L 397.134545 205.864355 
L 397.134545 205.864355 
L 397.540364 193.401237 
L 397.567418 193.401237 
L 397.675636 192.674486 
L 397.729745 192.576758 
L 397.865018 191.656368 
L 397.865018 191.656368 
L 398.027345 188.437558 
L 398.135564 184.784339 
L 398.135564 184.784339 
L 398.487273 171.596664 
L 398.487273 171.596664 
" clip-path="url(#pf30c208ca5)" style="fill: none; stroke: #1f77b4; stroke-width: 1.5; stroke-linecap: square"/>
   </g>
   <g id="patch_3">
    <path d="M 57.6 307.584 
L 57.6 41.472 
" style="fill: none; stroke: #000000; stroke-width: 0.8; stroke-linejoin: miter; stroke-linecap: square"/>
   </g>
   <g id="patch_4">
    <path d="M 414.72 307.584 
L 414.72 41.472 
" style="fill: none; stroke: #000000; stroke-width: 0.8; stroke-linejoin: miter; stroke-linecap: square"/>
   </g>
   <g id="patch_5">
    <path d="M 57.6 307.584 
L 414.72 307.584 
" style="fill: none; stroke: #000000; stroke-width: 0.8; stroke-linejoin: miter; stroke-linecap: square"/>
   </g>
   <g id="patch_6">
    <path d="M 57.6 41.472 
L 414.72 41.472 
" style="fill: none; stroke: #000000; stroke-width: 0.8; stroke-linejoin: miter; stroke-linecap: square"/>
   </g>
  </g>
  <g id="text_17">
   <!-- Leitura do Encoder da Junta -->
   <g transform="translate(146.975625 16.030125) scale(0.12 -0.12)">
    <defs>
     <path id="DejaVuSans-4c" d="M 628 4666 
L 1259 4666 
L 1259 531 
L 3531 531 
L 3531 0 
L 628 0 
L 628 4666 
z
" transform="scale(0.015625)"/>
     <path id="DejaVuSans-74" d="M 1172 4494 
L 1172 3500 
L 2356 3500 
L 2356 3053 
L 1172 3053 
L 1172 1153 
Q 1172 725 1289 603 
Q 1406 481 1766 481 
L 2356 481 
L 2356 0 
L 1766 0 
Q 1100 0 847 248 
Q 594 497 594 1153 
L 594 3053 
L 172 3053 
L 172 3500 
L 594 3500 
L 594 4494 
L 1172 4494 
z
" transform="scale(0.015625)"/>
     <path id="DejaVuSans-75" d="M 544 1381 
L 544 3500 
L 1119 3500 
L 1119 1403 
Q 1119 906 1312 657 
Q 1506 409 1894 409 
Q 2359 409 2629 706 
Q 2900 1003 2900 1516 
L 2900 3500 
L 3475 3500 
L 3475 0 
L 2900 0 
L 2900 538 
Q 2691 219 2414 64 
Q 2138 -91 1772 -91 
Q 1169 -91 856 284 
Q 544 659 544 1381 
z
M 1991 3584 
L 1991 3584 
z
" transform="scale(0.015625)"/>
     <path id="DejaVuSans-72" d="M 2631 2963 
Q 2534 3019 2420 3045 
Q 2306 3072 2169 3072 
Q 1681 3072 1420 2755 
Q 1159 2438 1159 1844 
L 1159 0 
L 581 0 
L 581 3500 
L 1159 3500 
L 1159 2956 
Q 1341 3275 1631 3429 
Q 1922 3584 2338 3584 
Q 2397 3584 2469 3576 
Q 2541 3569 2628 3553 
L 2631 2963 
z
" transform="scale(0.015625)"/>
     <path id="DejaVuSans-45" d="M 628 4666 
L 3578 4666 
L 3578 4134 
L 1259 4134 
L 1259 2753 
L 3481 2753 
L 3481 2222 
L 1259 2222 
L 1259 531 
L 3634 531 
L 3634 0 
L 628 0 
L 628 4666 
z
" transform="scale(0.015625)"/>
     <path id="DejaVuSans-6e" d="M 3513 2113 
L 3513 0 
L 2938 0 
L 2938 2094 
Q 2938 2591 2744 2837 
Q 2550 3084 2163 3084 
Q 1697 3084 1428 2787 
Q 1159 2491 1159 1978 
L 1159 0 
L 581 0 
L 581 3500 
L 1159 3500 
L 1159 2956 
Q 1366 3272 1645 3428 
Q 1925 3584 2291 3584 
Q 2894 3584 3203 3211 
Q 3513 2838 3513 2113 
z
" transform="scale(0.015625)"/>
     <path id="DejaVuSans-4a" d="M 628 4666 
L 1259 4666 
L 1259 325 
Q 1259 -519 939 -900 
Q 619 -1281 -91 -1281 
L -331 -1281 
L -331 -750 
L -134 -750 
Q 284 -750 456 -515 
Q 628 -281 628 325 
L 628 4666 
z
" transform="scale(0.015625)"/>
    </defs>
    <use xlink:href="#DejaVuSans-4c"/>
    <use xlink:href="#DejaVuSans-65" x="53.962891"/>
    <use xlink:href="#DejaVuSans-69" x="115.486328"/>
    <use xlink:href="#DejaVuSans-74" x="143.269531"/>
    <use xlink:href="#DejaVuSans-75" x="182.478516"/>
    <use xlink:href="#DejaVuSans-72" x="245.857422"/>
    <use xlink:href="#DejaVuSans-61" x="286.970703"/>
    <use xlink:href="#DejaVuSans-20" x="348.25"/>
    <use xlink:href="#DejaVuSans-64" x="380.037109"/>
    <use xlink:href="#DejaVuSans-6f" x="443.513672"/>
    <use xlink:href="#DejaVuSans-20" x="504.695312"/>
    <use xlink:href="#DejaVuSans-45" x="536.482422"/>
    <use xlink:href="#DejaVuSans-6e" x="599.666016"/>
    <use xlink:href="#DejaVuSans-63" x="663.044922"/>
    <use xlink:href="#DejaVuSans-6f" x="718.025391"/>
    <use xlink:href="#DejaVuSans-64" x="779.207031"/>
    <use xlink:href="#DejaVuSans-65" x="842.683594"/>
    <use xlink:href="#DejaVuSans-72" x="904.207031"/>
    <use xlink:href="#DejaVuSans-20" x="945.320312"/>
    <use xlink:href="#DejaVuSans-64" x="977.107422"/>
    <use xlink:href="#DejaVuSans-61" x="1040.583984"/>
    <use xlink:href="#DejaVuSans-20" x="1101.863281"/>
    <use xlink:href="#DejaVuSans-4a" x="1133.650391"/>
    <use xlink:href="#DejaVuSans-75" x="1163.142578"/>
    <use xlink:href="#DejaVuSans-6e" x="1226.521484"/>
    <use xlink:href="#DejaVuSans-74" x="1289.900391"/>
    <use xlink:href="#DejaVuSans-61" x="1329.109375"/>
   </g>
  </g>
 </g>
 <defs>
  <clipPath id="pf30c208ca5">
   <rect x="57.6" y="41.472" width="357.12" height="266.112"/>
  </clipPath>
 </defs>
</svg>
