<?xml version="1.0" encoding="utf-8" standalone="no"?>
<!DOCTYPE svg PUBLIC "-//W3C//DTD SVG 1.1//EN"
  "http://www.w3.org/Graphics/SVG/1.1/DTD/svg11.dtd">
<svg xmlns:xlink="http://www.w3.org/1999/xlink" width="460.8pt" height="345.6pt" viewBox="0 0 460.8 345.6" xmlns="http://www.w3.org/2000/svg" version="1.1">
 <metadata>
  <rdf:RDF xmlns:dc="http://purl.org/dc/elements/1.1/" xmlns:cc="http://creativecommons.org/ns#" xmlns:rdf="http://www.w3.org/1999/02/22-rdf-syntax-ns#">
   <cc:Work>
    <dc:type rdf:resource="http://purl.org/dc/dcmitype/StillImage"/>
    <dc:date>2024-07-31T14:09:22.100275</dc:date>
    <dc:format>image/svg+xml</dc:format>
    <dc:creator>
     <cc:Agent>
      <dc:title>Matplotlib v3.9.1, https://matplotlib.org/</dc:title>
     </cc:Agent>
    </dc:creator>
   </cc:Work>
  </rdf:RDF>
 </metadata>
 <defs>
  <style type="text/css">*{stroke-linejoin: round; stroke-linecap: butt}</style>
 </defs>
 <g id="figure_1">
  <g id="patch_1">
   <path d="M 0 345.6 
L 460.8 345.6 
L 460.8 0 
L 0 0 
z
" style="fill: #ffffff"/>
  </g>
  <g id="axes_1">
   <g id="patch_2">
    <path d="M 57.6 307.584 
L 414.72 307.584 
L 414.72 41.472 
L 57.6 41.472 
z
" style="fill: #ffffff"/>
   </g>
   <g id="matplotlib.axis_1">
    <g id="xtick_1">
     <g id="line2d_1">
      <defs>
       <path id="me7f7df9841" d="M 0 0 
L 0 3.5 
" style="stroke: #000000; stroke-width: 0.8"/>
      </defs>
      <g>
       <use xlink:href="#me7f7df9841" x="73.832727" y="307.584" style="stroke: #000000; stroke-width: 0.8"/>
      </g>
     </g>
     <g id="text_1">
      <!-- 0 -->
      <g transform="translate(70.651477 322.182437) scale(0.1 -0.1)">
       <defs>
        <path id="DejaVuSans-30" d="M 2034 4250 
Q 1547 4250 1301 3770 
Q 1056 3291 1056 2328 
Q 1056 1369 1301 889 
Q 1547 409 2034 409 
Q 2525 409 2770 889 
Q 3016 1369 3016 2328 
Q 3016 3291 2770 3770 
Q 2525 4250 2034 4250 
z
M 2034 4750 
Q 2819 4750 3233 4129 
Q 3647 3509 3647 2328 
Q 3647 1150 3233 529 
Q 2819 -91 2034 -91 
Q 1250 -91 836 529 
Q 422 1150 422 2328 
Q 422 3509 836 4129 
Q 1250 4750 2034 4750 
z
" transform="scale(0.015625)"/>
       </defs>
       <use xlink:href="#DejaVuSans-30"/>
      </g>
     </g>
    </g>
    <g id="xtick_2">
     <g id="line2d_2">
      <g>
       <use xlink:href="#me7f7df9841" x="127.941818" y="307.584" style="stroke: #000000; stroke-width: 0.8"/>
      </g>
     </g>
     <g id="text_2">
      <!-- 100 -->
      <g transform="translate(118.398068 322.182437) scale(0.1 -0.1)">
       <defs>
        <path id="DejaVuSans-31" d="M 794 531 
L 1825 531 
L 1825 4091 
L 703 3866 
L 703 4441 
L 1819 4666 
L 2450 4666 
L 2450 531 
L 3481 531 
L 3481 0 
L 794 0 
L 794 531 
z
" transform="scale(0.015625)"/>
       </defs>
       <use xlink:href="#DejaVuSans-31"/>
       <use xlink:href="#DejaVuSans-30" x="63.623047"/>
       <use xlink:href="#DejaVuSans-30" x="127.246094"/>
      </g>
     </g>
    </g>
    <g id="xtick_3">
     <g id="line2d_3">
      <g>
       <use xlink:href="#me7f7df9841" x="182.050909" y="307.584" style="stroke: #000000; stroke-width: 0.8"/>
      </g>
     </g>
     <g id="text_3">
      <!-- 200 -->
      <g transform="translate(172.507159 322.182437) scale(0.1 -0.1)">
       <defs>
        <path id="DejaVuSans-32" d="M 1228 531 
L 3431 531 
L 3431 0 
L 469 0 
L 469 531 
Q 828 903 1448 1529 
Q 2069 2156 2228 2338 
Q 2531 2678 2651 2914 
Q 2772 3150 2772 3378 
Q 2772 3750 2511 3984 
Q 2250 4219 1831 4219 
Q 1534 4219 1204 4116 
Q 875 4013 500 3803 
L 500 4441 
Q 881 4594 1212 4672 
Q 1544 4750 1819 4750 
Q 2544 4750 2975 4387 
Q 3406 4025 3406 3419 
Q 3406 3131 3298 2873 
Q 3191 2616 2906 2266 
Q 2828 2175 2409 1742 
Q 1991 1309 1228 531 
z
" transform="scale(0.015625)"/>
       </defs>
       <use xlink:href="#DejaVuSans-32"/>
       <use xlink:href="#DejaVuSans-30" x="63.623047"/>
       <use xlink:href="#DejaVuSans-30" x="127.246094"/>
      </g>
     </g>
    </g>
    <g id="xtick_4">
     <g id="line2d_4">
      <g>
       <use xlink:href="#me7f7df9841" x="236.16" y="307.584" style="stroke: #000000; stroke-width: 0.8"/>
      </g>
     </g>
     <g id="text_4">
      <!-- 300 -->
      <g transform="translate(226.61625 322.182437) scale(0.1 -0.1)">
       <defs>
        <path id="DejaVuSans-33" d="M 2597 2516 
Q 3050 2419 3304 2112 
Q 3559 1806 3559 1356 
Q 3559 666 3084 287 
Q 2609 -91 1734 -91 
Q 1441 -91 1130 -33 
Q 819 25 488 141 
L 488 750 
Q 750 597 1062 519 
Q 1375 441 1716 441 
Q 2309 441 2620 675 
Q 2931 909 2931 1356 
Q 2931 1769 2642 2001 
Q 2353 2234 1838 2234 
L 1294 2234 
L 1294 2753 
L 1863 2753 
Q 2328 2753 2575 2939 
Q 2822 3125 2822 3475 
Q 2822 3834 2567 4026 
Q 2313 4219 1838 4219 
Q 1578 4219 1281 4162 
Q 984 4106 628 3988 
L 628 4550 
Q 988 4650 1302 4700 
Q 1616 4750 1894 4750 
Q 2613 4750 3031 4423 
Q 3450 4097 3450 3541 
Q 3450 3153 3228 2886 
Q 3006 2619 2597 2516 
z
" transform="scale(0.015625)"/>
       </defs>
       <use xlink:href="#DejaVuSans-33"/>
       <use xlink:href="#DejaVuSans-30" x="63.623047"/>
       <use xlink:href="#DejaVuSans-30" x="127.246094"/>
      </g>
     </g>
    </g>
    <g id="xtick_5">
     <g id="line2d_5">
      <g>
       <use xlink:href="#me7f7df9841" x="290.269091" y="307.584" style="stroke: #000000; stroke-width: 0.8"/>
      </g>
     </g>
     <g id="text_5">
      <!-- 400 -->
      <g transform="translate(280.725341 322.182437) scale(0.1 -0.1)">
       <defs>
        <path id="DejaVuSans-34" d="M 2419 4116 
L 825 1625 
L 2419 1625 
L 2419 4116 
z
M 2253 4666 
L 3047 4666 
L 3047 1625 
L 3713 1625 
L 3713 1100 
L 3047 1100 
L 3047 0 
L 2419 0 
L 2419 1100 
L 313 1100 
L 313 1709 
L 2253 4666 
z
" transform="scale(0.015625)"/>
       </defs>
       <use xlink:href="#DejaVuSans-34"/>
       <use xlink:href="#DejaVuSans-30" x="63.623047"/>
       <use xlink:href="#DejaVuSans-30" x="127.246094"/>
      </g>
     </g>
    </g>
    <g id="xtick_6">
     <g id="line2d_6">
      <g>
       <use xlink:href="#me7f7df9841" x="344.378182" y="307.584" style="stroke: #000000; stroke-width: 0.8"/>
      </g>
     </g>
     <g id="text_6">
      <!-- 500 -->
      <g transform="translate(334.834432 322.182437) scale(0.1 -0.1)">
       <defs>
        <path id="DejaVuSans-35" d="M 691 4666 
L 3169 4666 
L 3169 4134 
L 1269 4134 
L 1269 2991 
Q 1406 3038 1543 3061 
Q 1681 3084 1819 3084 
Q 2600 3084 3056 2656 
Q 3513 2228 3513 1497 
Q 3513 744 3044 326 
Q 2575 -91 1722 -91 
Q 1428 -91 1123 -41 
Q 819 9 494 109 
L 494 744 
Q 775 591 1075 516 
Q 1375 441 1709 441 
Q 2250 441 2565 725 
Q 2881 1009 2881 1497 
Q 2881 1984 2565 2268 
Q 2250 2553 1709 2553 
Q 1456 2553 1204 2497 
Q 953 2441 691 2322 
L 691 4666 
z
" transform="scale(0.015625)"/>
       </defs>
       <use xlink:href="#DejaVuSans-35"/>
       <use xlink:href="#DejaVuSans-30" x="63.623047"/>
       <use xlink:href="#DejaVuSans-30" x="127.246094"/>
      </g>
     </g>
    </g>
    <g id="xtick_7">
     <g id="line2d_7">
      <g>
       <use xlink:href="#me7f7df9841" x="398.487273" y="307.584" style="stroke: #000000; stroke-width: 0.8"/>
      </g>
     </g>
     <g id="text_7">
      <!-- 600 -->
      <g transform="translate(388.943523 322.182437) scale(0.1 -0.1)">
       <defs>
        <path id="DejaVuSans-36" d="M 2113 2584 
Q 1688 2584 1439 2293 
Q 1191 2003 1191 1497 
Q 1191 994 1439 701 
Q 1688 409 2113 409 
Q 2538 409 2786 701 
Q 3034 994 3034 1497 
Q 3034 2003 2786 2293 
Q 2538 2584 2113 2584 
z
M 3366 4563 
L 3366 3988 
Q 3128 4100 2886 4159 
Q 2644 4219 2406 4219 
Q 1781 4219 1451 3797 
Q 1122 3375 1075 2522 
Q 1259 2794 1537 2939 
Q 1816 3084 2150 3084 
Q 2853 3084 3261 2657 
Q 3669 2231 3669 1497 
Q 3669 778 3244 343 
Q 2819 -91 2113 -91 
Q 1303 -91 875 529 
Q 447 1150 447 2328 
Q 447 3434 972 4092 
Q 1497 4750 2381 4750 
Q 2619 4750 2861 4703 
Q 3103 4656 3366 4563 
z
" transform="scale(0.015625)"/>
       </defs>
       <use xlink:href="#DejaVuSans-36"/>
       <use xlink:href="#DejaVuSans-30" x="63.623047"/>
       <use xlink:href="#DejaVuSans-30" x="127.246094"/>
      </g>
     </g>
    </g>
    <g id="text_8">
     <!-- Tempo (s) -->
     <g transform="translate(211.680312 335.860562) scale(0.1 -0.1)">
      <defs>
       <path id="DejaVuSans-54" d="M -19 4666 
L 3928 4666 
L 3928 4134 
L 2272 4134 
L 2272 0 
L 1638 0 
L 1638 4134 
L -19 4134 
L -19 4666 
z
" transform="scale(0.015625)"/>
       <path id="DejaVuSans-65" d="M 3597 1894 
L 3597 1613 
L 953 1613 
Q 991 1019 1311 708 
Q 1631 397 2203 397 
Q 2534 397 2845 478 
Q 3156 559 3463 722 
L 3463 178 
Q 3153 47 2828 -22 
Q 2503 -91 2169 -91 
Q 1331 -91 842 396 
Q 353 884 353 1716 
Q 353 2575 817 3079 
Q 1281 3584 2069 3584 
Q 2775 3584 3186 3129 
Q 3597 2675 3597 1894 
z
M 3022 2063 
Q 3016 2534 2758 2815 
Q 2500 3097 2075 3097 
Q 1594 3097 1305 2825 
Q 1016 2553 972 2059 
L 3022 2063 
z
" transform="scale(0.015625)"/>
       <path id="DejaVuSans-6d" d="M 3328 2828 
Q 3544 3216 3844 3400 
Q 4144 3584 4550 3584 
Q 5097 3584 5394 3201 
Q 5691 2819 5691 2113 
L 5691 0 
L 5113 0 
L 5113 2094 
Q 5113 2597 4934 2840 
Q 4756 3084 4391 3084 
Q 3944 3084 3684 2787 
Q 3425 2491 3425 1978 
L 3425 0 
L 2847 0 
L 2847 2094 
Q 2847 2600 2669 2842 
Q 2491 3084 2119 3084 
Q 1678 3084 1418 2786 
Q 1159 2488 1159 1978 
L 1159 0 
L 581 0 
L 581 3500 
L 1159 3500 
L 1159 2956 
Q 1356 3278 1631 3431 
Q 1906 3584 2284 3584 
Q 2666 3584 2933 3390 
Q 3200 3197 3328 2828 
z
" transform="scale(0.015625)"/>
       <path id="DejaVuSans-70" d="M 1159 525 
L 1159 -1331 
L 581 -1331 
L 581 3500 
L 1159 3500 
L 1159 2969 
Q 1341 3281 1617 3432 
Q 1894 3584 2278 3584 
Q 2916 3584 3314 3078 
Q 3713 2572 3713 1747 
Q 3713 922 3314 415 
Q 2916 -91 2278 -91 
Q 1894 -91 1617 61 
Q 1341 213 1159 525 
z
M 3116 1747 
Q 3116 2381 2855 2742 
Q 2594 3103 2138 3103 
Q 1681 3103 1420 2742 
Q 1159 2381 1159 1747 
Q 1159 1113 1420 752 
Q 1681 391 2138 391 
Q 2594 391 2855 752 
Q 3116 1113 3116 1747 
z
" transform="scale(0.015625)"/>
       <path id="DejaVuSans-6f" d="M 1959 3097 
Q 1497 3097 1228 2736 
Q 959 2375 959 1747 
Q 959 1119 1226 758 
Q 1494 397 1959 397 
Q 2419 397 2687 759 
Q 2956 1122 2956 1747 
Q 2956 2369 2687 2733 
Q 2419 3097 1959 3097 
z
M 1959 3584 
Q 2709 3584 3137 3096 
Q 3566 2609 3566 1747 
Q 3566 888 3137 398 
Q 2709 -91 1959 -91 
Q 1206 -91 779 398 
Q 353 888 353 1747 
Q 353 2609 779 3096 
Q 1206 3584 1959 3584 
z
" transform="scale(0.015625)"/>
       <path id="DejaVuSans-20" transform="scale(0.015625)"/>
       <path id="DejaVuSans-28" d="M 1984 4856 
Q 1566 4138 1362 3434 
Q 1159 2731 1159 2009 
Q 1159 1288 1364 580 
Q 1569 -128 1984 -844 
L 1484 -844 
Q 1016 -109 783 600 
Q 550 1309 550 2009 
Q 550 2706 781 3412 
Q 1013 4119 1484 4856 
L 1984 4856 
z
" transform="scale(0.015625)"/>
       <path id="DejaVuSans-73" d="M 2834 3397 
L 2834 2853 
Q 2591 2978 2328 3040 
Q 2066 3103 1784 3103 
Q 1356 3103 1142 2972 
Q 928 2841 928 2578 
Q 928 2378 1081 2264 
Q 1234 2150 1697 2047 
L 1894 2003 
Q 2506 1872 2764 1633 
Q 3022 1394 3022 966 
Q 3022 478 2636 193 
Q 2250 -91 1575 -91 
Q 1294 -91 989 -36 
Q 684 19 347 128 
L 347 722 
Q 666 556 975 473 
Q 1284 391 1588 391 
Q 1994 391 2212 530 
Q 2431 669 2431 922 
Q 2431 1156 2273 1281 
Q 2116 1406 1581 1522 
L 1381 1569 
Q 847 1681 609 1914 
Q 372 2147 372 2553 
Q 372 3047 722 3315 
Q 1072 3584 1716 3584 
Q 2034 3584 2315 3537 
Q 2597 3491 2834 3397 
z
" transform="scale(0.015625)"/>
       <path id="DejaVuSans-29" d="M 513 4856 
L 1013 4856 
Q 1481 4119 1714 3412 
Q 1947 2706 1947 2009 
Q 1947 1309 1714 600 
Q 1481 -109 1013 -844 
L 513 -844 
Q 928 -128 1133 580 
Q 1338 1288 1338 2009 
Q 1338 2731 1133 3434 
Q 928 4138 513 4856 
z
" transform="scale(0.015625)"/>
      </defs>
      <use xlink:href="#DejaVuSans-54"/>
      <use xlink:href="#DejaVuSans-65" x="44.083984"/>
      <use xlink:href="#DejaVuSans-6d" x="105.607422"/>
      <use xlink:href="#DejaVuSans-70" x="203.019531"/>
      <use xlink:href="#DejaVuSans-6f" x="266.496094"/>
      <use xlink:href="#DejaVuSans-20" x="327.677734"/>
      <use xlink:href="#DejaVuSans-28" x="359.464844"/>
      <use xlink:href="#DejaVuSans-73" x="398.478516"/>
      <use xlink:href="#DejaVuSans-29" x="450.578125"/>
     </g>
    </g>
   </g>
   <g id="matplotlib.axis_2">
    <g id="ytick_1">
     <g id="line2d_8">
      <defs>
       <path id="mbba5100421" d="M 0 0 
L -3.5 0 
" style="stroke: #000000; stroke-width: 0.8"/>
      </defs>
      <g>
       <use xlink:href="#mbba5100421" x="57.6" y="290.036292" style="stroke: #000000; stroke-width: 0.8"/>
      </g>
     </g>
     <g id="text_9">
      <!-- −6 -->
      <g transform="translate(35.857813 293.83551) scale(0.1 -0.1)">
       <defs>
        <path id="DejaVuSans-2212" d="M 678 2272 
L 4684 2272 
L 4684 1741 
L 678 1741 
L 678 2272 
z
" transform="scale(0.015625)"/>
       </defs>
       <use xlink:href="#DejaVuSans-2212"/>
       <use xlink:href="#DejaVuSans-36" x="83.789062"/>
      </g>
     </g>
    </g>
    <g id="ytick_2">
     <g id="line2d_9">
      <g>
       <use xlink:href="#mbba5100421" x="57.6" y="251.533528" style="stroke: #000000; stroke-width: 0.8"/>
      </g>
     </g>
     <g id="text_10">
      <!-- −4 -->
      <g transform="translate(35.857813 255.332746) scale(0.1 -0.1)">
       <use xlink:href="#DejaVuSans-2212"/>
       <use xlink:href="#DejaVuSans-34" x="83.789062"/>
      </g>
     </g>
    </g>
    <g id="ytick_3">
     <g id="line2d_10">
      <g>
       <use xlink:href="#mbba5100421" x="57.6" y="213.030764" style="stroke: #000000; stroke-width: 0.8"/>
      </g>
     </g>
     <g id="text_11">
      <!-- −2 -->
      <g transform="translate(35.857813 216.829983) scale(0.1 -0.1)">
       <use xlink:href="#DejaVuSans-2212"/>
       <use xlink:href="#DejaVuSans-32" x="83.789062"/>
      </g>
     </g>
    </g>
    <g id="ytick_4">
     <g id="line2d_11">
      <g>
       <use xlink:href="#mbba5100421" x="57.6" y="174.528" style="stroke: #000000; stroke-width: 0.8"/>
      </g>
     </g>
     <g id="text_12">
      <!-- 0 -->
      <g transform="translate(44.2375 178.327219) scale(0.1 -0.1)">
       <use xlink:href="#DejaVuSans-30"/>
      </g>
     </g>
    </g>
    <g id="ytick_5">
     <g id="line2d_12">
      <g>
       <use xlink:href="#mbba5100421" x="57.6" y="136.025236" style="stroke: #000000; stroke-width: 0.8"/>
      </g>
     </g>
     <g id="text_13">
      <!-- 2 -->
      <g transform="translate(44.2375 139.824455) scale(0.1 -0.1)">
       <use xlink:href="#DejaVuSans-32"/>
      </g>
     </g>
    </g>
    <g id="ytick_6">
     <g id="line2d_13">
      <g>
       <use xlink:href="#mbba5100421" x="57.6" y="97.522472" style="stroke: #000000; stroke-width: 0.8"/>
      </g>
     </g>
     <g id="text_14">
      <!-- 4 -->
      <g transform="translate(44.2375 101.321691) scale(0.1 -0.1)">
       <use xlink:href="#DejaVuSans-34"/>
      </g>
     </g>
    </g>
    <g id="ytick_7">
     <g id="line2d_14">
      <g>
       <use xlink:href="#mbba5100421" x="57.6" y="59.019708" style="stroke: #000000; stroke-width: 0.8"/>
      </g>
     </g>
     <g id="text_15">
      <!-- 6 -->
      <g transform="translate(44.2375 62.818927) scale(0.1 -0.1)">
       <use xlink:href="#DejaVuSans-36"/>
      </g>
     </g>
    </g>
    <g id="text_16">
     <!-- Velocidade (rad/s) -->
     <g transform="translate(29.778125 220.917844) rotate(-90) scale(0.1 -0.1)">
      <defs>
       <path id="DejaVuSans-56" d="M 1831 0 
L 50 4666 
L 709 4666 
L 2188 738 
L 3669 4666 
L 4325 4666 
L 2547 0 
L 1831 0 
z
" transform="scale(0.015625)"/>
       <path id="DejaVuSans-6c" d="M 603 4863 
L 1178 4863 
L 1178 0 
L 603 0 
L 603 4863 
z
" transform="scale(0.015625)"/>
       <path id="DejaVuSans-63" d="M 3122 3366 
L 3122 2828 
Q 2878 2963 2633 3030 
Q 2388 3097 2138 3097 
Q 1578 3097 1268 2742 
Q 959 2388 959 1747 
Q 959 1106 1268 751 
Q 1578 397 2138 397 
Q 2388 397 2633 464 
Q 2878 531 3122 666 
L 3122 134 
Q 2881 22 2623 -34 
Q 2366 -91 2075 -91 
Q 1284 -91 818 406 
Q 353 903 353 1747 
Q 353 2603 823 3093 
Q 1294 3584 2113 3584 
Q 2378 3584 2631 3529 
Q 2884 3475 3122 3366 
z
" transform="scale(0.015625)"/>
       <path id="DejaVuSans-69" d="M 603 3500 
L 1178 3500 
L 1178 0 
L 603 0 
L 603 3500 
z
M 603 4863 
L 1178 4863 
L 1178 4134 
L 603 4134 
L 603 4863 
z
" transform="scale(0.015625)"/>
       <path id="DejaVuSans-64" d="M 2906 2969 
L 2906 4863 
L 3481 4863 
L 3481 0 
L 2906 0 
L 2906 525 
Q 2725 213 2448 61 
Q 2172 -91 1784 -91 
Q 1150 -91 751 415 
Q 353 922 353 1747 
Q 353 2572 751 3078 
Q 1150 3584 1784 3584 
Q 2172 3584 2448 3432 
Q 2725 3281 2906 2969 
z
M 947 1747 
Q 947 1113 1208 752 
Q 1469 391 1925 391 
Q 2381 391 2643 752 
Q 2906 1113 2906 1747 
Q 2906 2381 2643 2742 
Q 2381 3103 1925 3103 
Q 1469 3103 1208 2742 
Q 947 2381 947 1747 
z
" transform="scale(0.015625)"/>
       <path id="DejaVuSans-61" d="M 2194 1759 
Q 1497 1759 1228 1600 
Q 959 1441 959 1056 
Q 959 750 1161 570 
Q 1363 391 1709 391 
Q 2188 391 2477 730 
Q 2766 1069 2766 1631 
L 2766 1759 
L 2194 1759 
z
M 3341 1997 
L 3341 0 
L 2766 0 
L 2766 531 
Q 2569 213 2275 61 
Q 1981 -91 1556 -91 
Q 1019 -91 701 211 
Q 384 513 384 1019 
Q 384 1609 779 1909 
Q 1175 2209 1959 2209 
L 2766 2209 
L 2766 2266 
Q 2766 2663 2505 2880 
Q 2244 3097 1772 3097 
Q 1472 3097 1187 3025 
Q 903 2953 641 2809 
L 641 3341 
Q 956 3463 1253 3523 
Q 1550 3584 1831 3584 
Q 2591 3584 2966 3190 
Q 3341 2797 3341 1997 
z
" transform="scale(0.015625)"/>
       <path id="DejaVuSans-67" d="M 2906 1791 
Q 2906 2416 2648 2759 
Q 2391 3103 1925 3103 
Q 1463 3103 1205 2759 
Q 947 2416 947 1791 
Q 947 1169 1205 825 
Q 1463 481 1925 481 
Q 2391 481 2648 825 
Q 2906 1169 2906 1791 
z
M 3481 434 
Q 3481 -459 3084 -895 
Q 2688 -1331 1869 -1331 
Q 1566 -1331 1297 -1286 
Q 1028 -1241 775 -1147 
L 775 -588 
Q 1028 -725 1275 -790 
Q 1522 -856 1778 -856 
Q 2344 -856 2625 -561 
Q 2906 -266 2906 331 
L 2906 616 
Q 2728 306 2450 153 
Q 2172 0 1784 0 
Q 1141 0 747 490 
Q 353 981 353 1791 
Q 353 2603 747 3093 
Q 1141 3584 1784 3584 
Q 2172 3584 2450 3431 
Q 2728 3278 2906 2969 
L 2906 3500 
L 3481 3500 
L 3481 434 
z
" transform="scale(0.015625)"/>
       <path id="DejaVuSans-2f" d="M 1625 4666 
L 2156 4666 
L 531 -594 
L 0 -594 
L 1625 4666 
z
" transform="scale(0.015625)"/>
      </defs>
      <use xlink:href="#DejaVuSans-56"/>
      <use xlink:href="#DejaVuSans-65" x="60.658203"/>
      <use xlink:href="#DejaVuSans-6c" x="122.181641"/>
      <use xlink:href="#DejaVuSans-6f" x="149.964844"/>
      <use xlink:href="#DejaVuSans-63" x="211.146484"/>
      <use xlink:href="#DejaVuSans-69" x="266.126953"/>
      <use xlink:href="#DejaVuSans-64" x="293.910156"/>
      <use xlink:href="#DejaVuSans-61" x="357.386719"/>
      <use xlink:href="#DejaVuSans-64" x="418.666016"/>
      <use xlink:href="#DejaVuSans-65" x="482.142578"/>
      <use xlink:href="#DejaVuSans-20" x="543.666016"/>
      <use xlink:href="#DejaVuSans-28" x="575.453125"/>
      <use xlink:href="#DejaVuSans-64" x="614.466797"/>
      <use xlink:href="#DejaVuSans-65" x="677.943359"/>
      <use xlink:href="#DejaVuSans-67" x="739.466797"/>
      <use xlink:href="#DejaVuSans-2f" x="802.943359"/>
      <use xlink:href="#DejaVuSans-73" x="836.634766"/>
      <use xlink:href="#DejaVuSans-29" x="888.734375"/>
     </g>
    </g>
   </g>
   <g id="line2d_15">
    <path d="M 73.832727 174.528 
L 73.859782 174.528 
L 73.968 171.994805 
L 73.968 171.994805 
L 76.484073 115.148282 
L 76.511127 115.148282 
L 76.619345 112.41005 
L 76.6464 112.41005 
L 76.754618 109.714391 
L 76.781673 109.714391 
L 76.889891 107.063152 
L 76.916945 107.063152 
L 78.161455 85.062223 
L 78.161455 85.062223 
L 79.162473 71.063139 
L 79.974109 62.534694 
L 79.974109 62.534694 
L 80.650473 57.368181 
L 80.785745 56.763896 
L 80.893964 56.081209 
L 81.353891 54.444072 
L 81.353891 54.444072 
L 81.732655 53.674102 
L 82.273745 53.768574 
L 82.381964 53.992224 
L 82.787782 55.057218 
L 82.896 55.593486 
L 82.923055 55.593486 
L 83.382982 58.023856 
L 83.382982 58.023856 
L 83.951127 62.296927 
L 83.951127 62.296927 
L 84.059345 63.266392 
L 84.059345 63.266392 
L 84.6816 69.773567 
L 84.762764 71.063139 
L 84.789818 71.063139 
L 85.520291 80.924288 
L 85.520291 80.924288 
L 85.628509 82.961878 
L 85.655564 82.961878 
L 85.655564 82.961878 
L 86.575418 98.405406 
L 86.656582 100.390763 
L 86.683636 100.390763 
L 87.9552 125.908397 
L 88.063418 128.238612 
L 88.063418 128.238612 
L 89.794909 167.565055 
L 89.903127 170.095577 
L 92.7168 233.355128 
L 92.7168 233.355128 
L 94.042473 258.249638 
L 94.042473 258.249638 
L 95.124655 274.926286 
L 95.151709 274.926286 
L 95.151709 274.926286 
L 96.017455 284.77134 
L 96.017455 284.77134 
L 96.720873 290.685124 
L 96.747927 290.685124 
L 96.747927 290.685124 
L 97.316073 293.686824 
L 97.316073 293.686824 
L 97.776 295.115121 
L 97.857164 295.20789 
L 97.857164 295.20789 
L 97.938327 295.353719 
L 97.965382 295.353719 
L 98.235927 295.486342 
L 98.235927 295.481368 
L 98.425309 295.381898 
L 98.425309 295.381898 
L 98.695855 294.951175 
L 98.695855 294.951175 
L 98.804073 294.68637 
L 98.804073 294.68637 
L 99.155782 293.462514 
L 99.155782 293.462514 
L 99.236945 292.974791 
L 99.264 292.974791 
L 99.723927 290.325366 
L 99.805091 289.567796 
L 99.832145 289.567796 
L 100.373236 285.030459 
L 100.481455 283.704716 
L 100.508509 283.704716 
L 100.589673 282.590203 
L 100.616727 282.590203 
L 101.293091 274.571666 
L 101.374255 273.125858 
L 101.401309 273.125858 
L 102.212945 260.950615 
L 102.212945 260.950615 
L 102.321164 258.705612 
L 102.348218 258.705612 
L 102.456436 256.867996 
L 102.456436 256.867996 
L 103.484509 237.729426 
L 103.484509 237.729426 
L 103.565673 235.555661 
L 103.592727 235.555661 
L 104.9184 207.056541 
L 104.9184 207.056541 
L 105.026618 203.995672 
L 105.053673 203.995672 
L 105.053673 203.995672 
L 105.134836 201.532334 
L 105.161891 201.532334 
L 109.544727 103.429496 
L 109.571782 103.429496 
L 109.571782 103.429496 
L 110.762182 82.549294 
L 110.789236 82.549294 
L 110.789236 82.549294 
L 111.7632 69.145977 
L 111.790255 69.145977 
L 111.790255 69.145977 
L 112.574836 61.154371 
L 112.601891 61.154371 
L 112.601891 61.154371 
L 113.2512 56.620886 
L 113.278255 56.620886 
L 113.792291 54.521806 
L 113.792291 54.521806 
L 114.171055 53.702281 
L 114.333382 53.594529 
L 114.4416 53.568 
L 114.658036 53.674102 
L 114.766255 53.806687 
L 114.766255 53.806687 
L 115.063855 54.444072 
L 115.172073 54.865619 
L 115.226182 54.959779 
L 115.3344 55.479699 
L 115.361455 55.479699 
L 115.794327 57.689612 
L 115.902545 58.370876 
L 115.902545 58.370876 
L 116.443636 62.534694 
L 116.443636 62.534694 
L 116.551855 63.769453 
L 116.578909 63.769453 
L 116.687127 64.811956 
L 116.687127 64.811956 
L 117.4176 73.082408 
L 117.4176 73.082408 
L 117.498764 74.484334 
L 117.525818 74.484334 
L 118.391564 87.223883 
L 118.391564 87.223883 
L 118.472727 88.996364 
L 118.499782 88.996364 
L 119.473745 106.538395 
L 119.581964 109.180531 
L 119.609018 109.180531 
L 119.609018 109.180531 
L 119.717236 111.326574 
L 119.717236 111.326574 
L 121.015855 138.960882 
L 121.124073 141.999459 
L 121.259345 144.446471 
L 121.367564 147.523666 
L 121.394618 147.523666 
L 121.502836 150.619368 
L 121.665164 153.731456 
L 121.665164 153.731456 
L 125.506909 240.407538 
L 125.533964 240.407538 
L 125.533964 240.407538 
L 125.642182 243.040498 
L 125.669236 243.040498 
L 126.886691 264.841355 
L 126.913745 264.841355 
L 126.913745 264.841355 
L 127.887709 278.319531 
L 127.887709 278.319531 
L 128.699345 286.759073 
L 128.699345 286.759073 
L 129.375709 291.843719 
L 129.402764 291.843719 
L 129.402764 291.843719 
L 129.483927 292.435114 
L 129.510982 292.435114 
L 130.025018 294.534194 
L 130.403782 295.322229 
L 130.403782 295.322229 
L 130.674327 295.488 
L 130.674327 295.486342 
L 130.890764 295.381898 
L 131.161309 294.951175 
L 131.161309 294.951175 
L 131.269527 294.611928 
L 131.323636 294.534194 
L 131.323636 294.534194 
L 131.648291 293.225161 
L 132.162327 290.506835 
L 132.270545 289.567796 
L 132.2976 289.567796 
L 132.2976 289.567796 
L 132.838691 285.030459 
L 132.838691 285.030459 
L 132.919855 283.97588 
L 132.946909 283.97588 
L 133.623273 276.317144 
L 133.731491 274.926286 
L 133.731491 274.926286 
L 134.516073 263.566304 
L 134.624291 261.392557 
L 134.651345 261.392557 
L 134.651345 261.392557 
L 135.598255 244.597851 
L 135.679418 242.517605 
L 135.706473 242.517605 
L 136.950982 216.691275 
L 136.950982 216.691275 
L 137.0592 213.709051 
L 137.086255 213.709051 
L 137.086255 213.709051 
L 139.169455 165.669108 
L 139.277673 162.514283 
L 139.304727 162.514283 
L 139.385891 159.996248 
L 139.412945 159.996248 
L 141.5232 112.95435 
L 141.550255 112.95435 
L 141.550255 112.95435 
L 141.658473 110.250028 
L 141.685527 110.250028 
L 141.793745 107.589758 
L 141.8208 107.589758 
L 141.8208 107.589758 
L 143.065309 85.489696 
L 143.065309 85.489696 
L 144.066327 71.392646 
L 144.066327 71.392646 
L 144.959127 61.830629 
L 144.986182 61.830629 
L 145.067345 60.935159 
L 145.0944 60.935159 
L 145.743709 56.481108 
L 145.770764 56.481108 
L 145.770764 56.481108 
L 146.2848 54.444072 
L 146.2848 54.444072 
L 146.663564 53.702281 
L 146.934109 53.569658 
L 146.934109 53.569658 
L 147.150545 53.702281 
L 147.394036 54.104825 
L 147.502255 54.36963 
L 147.502255 54.36963 
L 147.826909 55.479699 
L 147.826909 55.479699 
L 147.935127 56.081209 
L 147.962182 56.081209 
L 148.0704 56.763896 
L 148.097455 56.763896 
L 148.205673 57.368181 
L 148.205673 57.368181 
L 148.746764 61.154371 
L 149.314909 66.465797 
L 149.423127 67.925534 
L 149.450182 67.925534 
L 149.450182 67.925534 
L 149.666618 70.736469 
L 149.693673 70.736469 
L 149.801891 72.398094 
L 149.828945 72.398094 
L 149.828945 72.398094 
L 149.937164 74.129714 
L 149.964218 74.129714 
L 150.072436 75.930142 
L 150.099491 75.930142 
L 150.099491 75.930142 
L 150.207709 77.798144 
L 150.234764 77.798144 
L 151.127564 91.725182 
L 151.235782 94.061736 
L 151.262836 94.061736 
L 151.262836 94.061736 
L 152.290909 113.500339 
L 152.399127 116.255076 
L 152.426182 116.255076 
L 153.833018 146.906679 
L 153.833018 146.906679 
L 153.941236 149.998849 
L 153.968291 149.998849 
L 154.076509 153.10783 
L 154.103564 153.10783 
L 154.211782 156.231491 
L 154.238836 156.231491 
L 154.238836 156.231491 
L 154.32 158.739552 
L 154.347055 158.739552 
L 157.837091 237.729426 
L 157.864145 237.729426 
L 157.864145 237.729426 
L 157.972364 240.407538 
L 157.999418 240.407538 
L 158.107636 243.040498 
L 158.134691 243.040498 
L 158.134691 243.040498 
L 158.242909 245.626504 
L 158.269964 245.626504 
L 159.460364 266.094122 
L 160.434327 279.282433 
L 161.245964 287.67931 
L 161.273018 287.67931 
L 161.381236 288.759766 
L 161.408291 288.759766 
L 161.408291 288.759766 
L 161.516509 289.761933 
L 161.543564 289.761933 
L 161.624727 290.506835 
L 161.651782 290.506835 
L 162.219927 293.686824 
L 162.274036 293.794081 
L 162.274036 293.794081 
L 162.706909 295.115121 
L 162.788073 295.20789 
L 162.788073 295.20789 
L 162.869236 295.353719 
L 162.896291 295.353719 
L 163.166836 295.486342 
L 163.166836 295.481368 
L 163.356218 295.381898 
L 163.356218 295.381898 
L 163.464436 295.20789 
L 163.5456 295.115121 
L 163.653818 294.889922 
L 163.653818 294.889922 
L 163.978473 293.898067 
L 163.978473 293.898067 
L 164.086691 293.462514 
L 164.086691 293.462514 
L 164.519564 291.200865 
L 164.519564 291.200865 
L 164.627782 290.325366 
L 164.654836 290.325366 
L 164.654836 290.325366 
L 164.736 289.567796 
L 164.763055 289.567796 
L 165.3312 284.77134 
L 165.3312 284.77134 
L 165.412364 283.704716 
L 165.439418 283.704716 
L 166.115782 275.973592 
L 166.224 274.214304 
L 166.251055 274.214304 
L 167.035636 262.704045 
L 167.035636 262.704045 
L 167.1168 260.950615 
L 167.143855 260.950615 
L 168.198982 241.992848 
L 168.3072 239.341609 
L 168.334255 239.341609 
L 168.334255 239.341609 
L 169.578764 212.508527 
L 172.581818 143.833439 
L 172.581818 143.833439 
L 172.690036 141.389893 
L 172.690036 141.389893 
L 174.394473 105.494487 
L 174.394473 105.494487 
L 175.638982 83.376972 
L 175.666036 83.376972 
L 175.666036 83.376972 
L 175.774255 81.326718 
L 175.801309 81.326718 
L 175.801309 81.326718 
L 176.748218 68.529944 
L 176.775273 68.529944 
L 176.856436 67.332815 
L 176.883491 67.332815 
L 177.641018 60.296234 
L 177.641018 60.296234 
L 178.263273 56.344567 
L 178.263273 56.344567 
L 178.777309 54.36963 
L 178.777309 54.36963 
L 179.156073 53.649237 
L 179.643055 53.733771 
L 179.643055 53.733771 
L 179.751273 53.940879 
L 180.130036 54.865619 
L 180.130036 54.865619 
L 180.238255 55.369176 
L 180.292364 55.479699 
L 180.292364 55.479699 
L 180.373527 55.954399 
L 180.400582 55.954399 
L 180.833455 58.370876 
L 180.833455 58.370876 
L 180.914618 59.10309 
L 180.941673 59.10309 
L 181.482764 63.5164 
L 181.590982 64.5468 
L 181.590982 64.5468 
L 182.267345 72.060132 
L 182.267345 72.060132 
L 182.375564 73.777847 
L 182.402618 73.777847 
L 182.402618 73.777847 
L 183.268364 86.351955 
L 183.268364 86.351955 
L 183.376582 88.549696 
L 183.403636 88.549696 
L 183.403636 88.549696 
L 184.3776 106.015502 
L 184.3776 106.015502 
L 184.485818 108.648462 
L 184.512873 108.648462 
L 185.838545 136.547473 
L 185.838545 136.547473 
L 185.919709 138.960882 
L 185.946764 138.960882 
L 188.544 199.057151 
L 188.625164 201.532334 
L 188.652218 201.532334 
L 190.464873 240.407538 
L 190.464873 240.407538 
L 191.709382 262.704045 
L 192.7104 277.33102 
L 192.737455 277.33102 
L 192.737455 277.33102 
L 193.576145 286.280468 
L 193.576145 286.280468 
L 194.252509 291.366388 
L 194.252509 291.366388 
L 194.7936 293.998782 
L 194.7936 293.998782 
L 195.226473 295.163159 
L 195.524073 295.481368 
L 195.821673 295.381898 
L 195.821673 295.381898 
L 195.902836 295.249313 
L 195.929891 295.249313 
L 196.200436 294.68637 
L 196.308655 294.281262 
L 196.362764 294.190381 
L 196.362764 294.190381 
L 196.714473 292.574892 
L 197.309673 288.966485 
L 197.309673 288.966485 
L 197.877818 283.97588 
L 197.877818 283.97588 
L 197.986036 282.590203 
L 198.013091 282.590203 
L 198.013091 282.590203 
L 198.094255 281.428291 
L 198.121309 281.428291 
L 198.851782 272.386696 
L 198.932945 270.876259 
L 198.96 270.876259 
L 199.879855 256.402917 
L 199.988073 254.520283 
L 199.988073 254.520283 
L 201.016145 235.008 
L 201.016145 235.008 
L 201.124364 232.245124 
L 201.151418 232.245124 
L 201.259636 229.442691 
L 201.286691 229.442691 
L 201.286691 229.442691 
L 201.394909 226.602622 
L 203.261673 185.280654 
L 203.261673 185.280654 
L 203.342836 182.75513 
L 203.369891 182.75513 
L 206.372945 115.148282 
L 207.698618 89.896722 
L 207.725673 89.896722 
L 207.833891 88.105385 
L 208.861964 72.738856 
L 208.889018 72.738856 
L 208.889018 72.738856 
L 208.997236 71.392646 
L 208.997236 71.392646 
L 209.835927 62.296927 
L 209.862982 62.296927 
L 209.862982 62.296927 
L 210.539345 57.212281 
L 210.5664 57.212281 
L 210.674618 56.481108 
L 211.134545 54.687141 
L 211.134545 54.687141 
L 211.540364 53.768574 
L 211.810909 53.569658 
L 211.810909 53.569658 
L 212.027345 53.649238 
L 212.270836 53.992224 
L 212.379055 54.230632 
L 212.379055 54.230632 
L 212.757818 55.479699 
L 212.838982 55.954399 
L 212.866036 55.954399 
L 213.325964 58.549165 
L 213.434182 59.488204 
L 213.461236 59.488204 
L 214.002327 64.025541 
L 214.002327 64.025541 
L 214.083491 65.08012 
L 214.110545 65.08012 
L 214.786909 72.738856 
L 214.786909 72.738856 
L 214.895127 74.129714 
L 214.895127 74.129714 
L 215.706764 85.919611 
L 215.814982 88.105385 
L 215.842036 88.105385 
L 215.9232 89.896722 
L 215.950255 89.896722 
L 216.924218 107.589758 
L 217.032436 109.714391 
L 217.032436 109.714391 
L 218.331055 137.149304 
L 218.331055 137.149304 
L 218.439273 140.173504 
L 218.466327 140.173504 
L 218.574545 143.221248 
L 218.6016 143.221248 
L 218.6016 143.221248 
L 223.390255 249.662036 
L 223.417309 249.662036 
L 224.580655 269.323561 
L 224.607709 269.323561 
L 224.715927 271.257856 
L 224.742982 271.257856 
L 224.742982 271.257856 
L 225.662836 282.590203 
L 225.662836 282.590203 
L 226.420364 289.370506 
L 226.420364 289.370506 
L 227.042618 293.225161 
L 227.069673 293.225161 
L 227.069673 293.225161 
L 227.556655 294.889922 
L 227.556655 294.889922 
L 227.908364 295.428314 
L 227.908364 295.428314 
L 228.151855 295.473077 
L 228.151855 295.473077 
L 228.341236 295.287426 
L 228.692945 294.611928 
L 228.692945 294.611928 
L 229.071709 293.225161 
L 229.071709 293.225161 
L 229.558691 290.506835 
L 229.558691 290.506835 
L 230.072727 286.521306 
L 230.072727 286.521306 
L 230.180945 285.286547 
L 230.208 285.286547 
L 230.857309 278.319531 
L 230.857309 278.319531 
L 230.965527 276.995868 
L 230.965527 276.995868 
L 231.777164 265.679028 
L 231.777164 265.679028 
L 231.885382 263.566304 
L 231.912436 263.566304 
L 232.832291 247.660309 
L 232.940509 245.626504 
L 232.940509 245.626504 
L 234.157964 220.817388 
L 234.157964 220.817388 
L 234.239127 218.466869 
L 234.266182 218.466869 
L 236.078836 177.061195 
L 236.187055 173.894658 
L 236.214109 173.894658 
L 236.322327 170.728555 
L 236.349382 170.728555 
L 236.349382 170.728555 
L 236.4576 167.565055 
L 236.484655 167.565055 
L 236.565818 165.037588 
L 236.592873 165.037588 
L 238.865455 114.048 
L 238.892509 114.048 
L 238.892509 114.048 
L 239.000727 111.326574 
L 239.027782 111.326574 
L 239.027782 111.326574 
L 239.108945 109.180531 
L 239.136 109.180531 
L 240.434618 85.489696 
L 240.461673 85.489696 
L 240.542836 83.794565 
L 240.569891 83.794565 
L 241.543855 70.412644 
L 241.543855 70.412644 
L 242.355491 62.062236 
L 242.355491 62.062236 
L 243.031855 57.212281 
L 243.031855 57.212281 
L 243.572945 54.774738 
L 243.572945 54.774738 
L 243.978764 53.806687 
L 243.978764 53.806687 
L 244.276364 53.568 
L 244.519855 53.674102 
L 244.7904 54.104825 
L 244.7904 54.104825 
L 245.088 54.959779 
L 245.088 54.959779 
L 245.169164 55.369176 
L 245.196218 55.369176 
L 245.602036 57.368181 
L 245.710255 58.023856 
L 246.2784 62.296927 
L 246.2784 62.296927 
L 246.8736 68.226282 
L 246.8736 68.226282 
L 246.981818 69.458332 
L 246.981818 69.458332 
L 247.7664 79.732439 
L 247.874618 81.326718 
L 247.874618 81.326718 
L 248.740364 95.490244 
L 248.848582 97.91425 
L 248.875636 97.91425 
L 248.875636 97.91425 
L 248.983855 99.891341 
L 250.093091 121.882446 
L 250.201309 124.174675 
L 250.201309 124.174675 
L 251.797527 159.996248 
L 251.797527 159.996248 
L 251.905745 162.514283 
L 251.905745 162.514283 
L 255.125236 235.555661 
L 255.152291 235.555661 
L 255.152291 235.555661 
L 256.450909 259.610623 
L 256.450909 259.610623 
L 257.506036 275.278153 
L 257.506036 275.278153 
L 258.371782 285.030459 
L 258.371782 285.030459 
L 259.0752 290.685124 
L 259.643345 293.686824 
L 260.103273 295.115121 
L 260.184436 295.20789 
L 260.292655 295.353719 
L 260.292655 295.353719 
L 260.5632 295.486342 
L 260.5632 295.481368 
L 260.752582 295.381898 
L 261.023127 294.951175 
L 261.023127 294.951175 
L 261.131345 294.611928 
L 261.185455 294.534194 
L 261.266618 294.190381 
L 261.293673 294.190381 
L 261.726545 292.292104 
L 262.186473 289.370506 
L 262.186473 289.370506 
L 262.294691 288.336938 
L 262.321745 288.336938 
L 262.429964 287.453888 
L 262.429964 287.453888 
L 263.079273 281.130466 
L 263.187491 279.910023 
L 263.187491 279.910023 
L 263.890909 270.876259 
L 263.972073 269.323561 
L 263.999127 269.323561 
L 264.864873 255.466038 
L 264.973091 253.085236 
L 265.000145 253.085236 
L 266.055273 232.800924 
L 266.163491 230.568288 
L 266.163491 230.568288 
L 267.597382 199.057151 
L 267.678545 196.571209 
L 267.7056 196.571209 
L 271.655564 107.589758 
L 271.682618 107.589758 
L 272.927127 85.062223 
L 272.954182 85.062223 
L 273.035345 83.376972 
L 273.0624 83.376972 
L 274.036364 70.091674 
L 274.036364 70.091674 
L 274.848 61.602112 
L 274.875055 61.602112 
L 274.983273 60.506085 
L 275.010327 60.506085 
L 275.118545 59.685494 
L 275.118545 59.685494 
L 275.7408 55.830839 
L 275.767855 55.830839 
L 275.849018 55.369176 
L 275.876073 55.369176 
L 276.336 53.992224 
L 276.336 53.992224 
L 276.660655 53.582923 
L 276.985309 53.674102 
L 277.2288 54.046873 
L 277.337018 54.36963 
L 277.391127 54.444072 
L 277.499345 54.774738 
L 277.499345 54.774738 
L 277.905164 56.481108 
L 277.905164 56.481108 
L 278.365091 59.294067 
L 278.473309 60.296234 
L 278.500364 60.296234 
L 278.500364 60.296234 
L 279.068509 65.351284 
L 279.176727 66.751851 
L 279.203782 66.751851 
L 279.9072 75.201792 
L 280.015418 77.042915 
L 280.042473 77.042915 
L 280.150691 78.56398 
L 280.150691 78.56398 
L 281.043491 92.653083 
L 281.124655 94.535717 
L 281.151709 94.535717 
L 282.233891 115.148282 
L 282.342109 117.92721 
L 282.369164 117.92721 
L 282.369164 117.92721 
L 283.857164 150.619368 
L 283.965382 153.731456 
L 283.992436 153.731456 
L 287.861236 240.9378 
L 287.888291 240.9378 
L 289.1328 263.136389 
L 289.1328 263.136389 
L 290.133818 277.663354 
L 290.160873 277.663354 
L 290.999564 286.759073 
L 291.026618 286.759073 
L 291.026618 286.759073 
L 291.702982 291.843719 
L 291.730036 291.843719 
L 292.271127 294.368859 
L 292.325236 294.45317 
L 292.731055 295.353719 
L 292.893382 295.461472 
L 292.893382 295.461472 
L 293.136873 295.44655 
L 293.245091 295.353719 
L 293.245091 295.353719 
L 293.515636 294.889922 
L 293.515636 294.889922 
L 293.623855 294.611928 
L 293.623855 294.611928 
L 294.002618 293.225161 
L 294.002618 293.225161 
L 294.462545 290.685124 
L 294.462545 290.685124 
L 294.570764 289.95291 
L 294.570764 289.95291 
L 295.193018 284.77134 
L 295.193018 284.77134 
L 295.301236 283.430559 
L 295.328291 283.430559 
L 295.328291 283.430559 
L 295.436509 282.01514 
L 295.463564 282.01514 
L 295.463564 282.01514 
L 296.139927 273.854208 
L 296.139927 273.854208 
L 296.221091 272.386696 
L 296.248145 272.386696 
L 297.059782 260.059636 
L 297.168 258.249638 
L 297.168 258.249638 
L 298.169018 239.875469 
L 298.169018 239.875469 
L 298.250182 237.729426 
L 298.277236 237.729426 
L 299.602909 209.489286 
L 299.602909 209.489286 
L 299.684073 207.056541 
L 299.711127 207.056541 
L 304.662109 97.425194 
L 304.689164 97.425194 
L 304.770327 95.490244 
L 304.797382 95.490244 
L 305.906618 77.798144 
L 305.906618 77.798144 
L 306.826473 66.465797 
L 306.826473 66.465797 
L 307.584 59.488204 
L 307.611055 59.488204 
L 308.206255 55.830839 
L 308.233309 55.830839 
L 308.233309 55.830839 
L 308.314473 55.369176 
L 308.341527 55.369176 
L 308.801455 53.992224 
L 309.126109 53.594529 
L 309.3696 53.60945 
L 309.3696 53.60945 
L 309.586036 53.84811 
L 309.586036 53.84811 
L 309.694255 54.104825 
L 309.748364 54.166078 
L 309.748364 54.166078 
L 309.829527 54.444072 
L 309.856582 54.444072 
L 310.208291 55.710534 
L 310.316509 56.344567 
L 310.343564 56.344567 
L 310.776436 58.915277 
L 310.884655 59.885933 
L 310.911709 59.885933 
L 310.911709 59.885933 
L 311.4528 64.5468 
L 311.4528 64.5468 
L 311.561018 65.902584 
L 311.588073 65.902584 
L 311.588073 65.902584 
L 312.291491 74.129714 
L 312.399709 75.930142 
L 312.426764 75.930142 
L 312.507927 77.419198 
L 312.534982 77.419198 
L 313.346618 89.896722 
L 313.454836 92.188004 
L 313.481891 92.188004 
L 313.590109 94.061736 
L 313.590109 94.061736 
L 314.645236 114.048 
L 314.753455 116.810876 
L 314.780509 116.810876 
L 314.861673 119.04975 
L 314.888727 119.04975 
L 316.322618 150.619368 
L 316.322618 150.619368 
L 316.403782 153.10783 
L 316.430836 153.10783 
L 320.326691 240.407538 
L 320.326691 240.407538 
L 321.5712 263.136389 
L 321.598255 263.136389 
L 322.599273 277.663354 
L 322.626327 277.663354 
L 322.734545 278.964326 
L 322.734545 278.964326 
L 323.546182 287.225371 
L 323.546182 287.225371 
L 324.222545 292.145866 
L 324.2496 292.145866 
L 324.2496 292.145866 
L 324.763636 294.368859 
L 325.169455 295.322229 
L 325.304727 295.428314 
L 325.304727 295.428314 
L 325.548218 295.473077 
L 325.548218 295.461471 
L 325.710545 295.353719 
L 325.954036 294.951175 
L 326.0352 294.68637 
L 326.062255 294.68637 
L 326.441018 293.345466 
L 326.441018 293.345466 
L 326.900945 290.860229 
L 326.900945 290.860229 
L 326.982109 290.140723 
L 327.009164 290.140723 
L 327.550255 285.789608 
L 327.658473 284.5092 
L 327.685527 284.5092 
L 327.685527 284.5092 
L 328.361891 276.995868 
L 328.361891 276.995868 
L 328.443055 275.627258 
L 328.470109 275.627258 
L 329.281745 263.993777 
L 329.389964 261.832117 
L 329.417018 261.832117 
L 330.363927 245.113145 
L 330.363927 245.113145 
L 330.445091 243.040498 
L 330.472145 243.040498 
L 331.716655 217.284317 
L 331.716655 217.284317 
L 331.824873 214.905278 
L 333.826909 168.830004 
L 333.826909 168.830004 
L 333.935127 166.30087 
L 333.935127 166.30087 
L 336.234764 114.597319 
L 336.261818 114.597319 
L 337.587491 89.896722 
L 338.642618 74.129714 
L 338.642618 74.129714 
L 339.508364 64.28466 
L 339.508364 64.28466 
L 340.211782 58.370876 
L 340.238836 58.370876 
L 340.806982 55.369176 
L 341.266909 53.940879 
L 341.348073 53.84811 
L 341.456291 53.674102 
L 341.997382 53.768574 
L 342.267927 54.298483 
L 342.376145 54.687141 
L 342.430255 54.774738 
L 342.836073 56.481108 
L 343.323055 59.488204 
L 343.431273 60.506085 
L 343.458327 60.506085 
L 343.566545 61.37669 
L 343.566545 61.37669 
L 344.161745 67.04086 
L 344.161745 67.04086 
L 344.269964 68.226282 
L 344.269964 68.226282 
L 344.973382 77.042915 
L 345.0816 78.56398 
L 345.0816 78.56398 
L 345.920291 91.725182 
L 346.028509 94.061736 
L 346.055564 94.061736 
L 347.083636 113.500339 
L 347.1648 115.700872 
L 347.191855 115.700872 
L 348.598691 146.290449 
L 348.598691 146.290449 
L 348.706909 148.759845 
L 348.706909 148.759845 
L 352.981527 244.597851 
L 353.008582 244.597851 
L 353.008582 244.597851 
L 354.226036 266.094122 
L 354.253091 266.094122 
L 354.253091 266.094122 
L 354.361309 268.131712 
L 354.388364 268.131712 
L 355.335273 280.526056 
L 355.335273 280.526056 
L 356.119855 288.120841 
L 356.119855 288.120841 
L 356.769164 292.435114 
L 356.769164 292.435114 
L 357.2832 294.611928 
L 357.337309 294.68637 
L 357.337309 294.68637 
L 357.716073 295.406763 
L 358.203055 295.322229 
L 358.203055 295.322229 
L 358.311273 295.115121 
L 358.392436 295.009127 
L 358.500655 294.68637 
L 358.554764 294.611928 
L 358.554764 294.611928 
L 358.933527 293.225161 
L 358.933527 293.225161 
L 359.041745 292.574892 
L 359.0688 292.574892 
L 359.528727 289.761933 
L 359.636945 288.966485 
L 359.636945 288.966485 
L 360.205091 283.97588 
L 360.286255 282.873295 
L 360.313309 282.873295 
L 360.989673 274.926286 
L 360.989673 274.926286 
L 361.097891 273.125858 
L 361.124945 273.125858 
L 361.963636 260.506304 
L 362.071855 258.705612 
L 363.045818 240.9378 
L 363.154036 238.805972 
L 363.154036 238.805972 
L 364.452655 211.303839 
L 364.560873 208.882496 
L 369.674182 95.970764 
L 369.701236 95.970764 
L 369.701236 95.970764 
L 369.809455 93.589962 
L 369.836509 93.589962 
L 369.944727 91.26463 
L 369.971782 91.26463 
L 371.026909 74.841696 
L 371.053964 74.841696 
L 371.919709 64.811956 
L 372.650182 58.549165 
L 372.677236 58.549165 
L 373.245382 55.369176 
L 373.299491 55.261919 
L 373.299491 55.261919 
L 373.732364 53.992224 
L 373.732364 53.992224 
L 374.057018 53.594529 
L 374.057018 53.594529 
L 374.300509 53.60945 
L 374.381673 53.702281 
L 374.408727 53.702281 
L 374.652218 54.104825 
L 374.760436 54.36963 
L 374.760436 54.36963 
L 375.112145 55.593486 
L 375.112145 55.593486 
L 375.220364 56.211266 
L 375.247418 56.211266 
L 375.328582 56.763896 
L 375.355636 56.763896 
L 375.815564 59.685494 
L 375.815564 59.685494 
L 375.923782 60.506085 
L 375.923782 60.506085 
L 376.491927 65.625441 
L 376.491927 65.625441 
L 376.573091 66.751851 
L 376.600145 66.751851 
L 377.276509 74.841696 
L 377.384727 76.298377 
L 377.384727 76.298377 
L 378.250473 89.445377 
L 378.250473 89.445377 
L 378.358691 91.264631 
L 378.358691 91.264631 
L 379.386764 110.250028 
L 379.494982 112.95435 
L 379.522036 112.95435 
L 379.522036 112.95435 
L 380.847709 141.389893 
L 380.955927 144.446471 
L 380.982982 144.446471 
L 380.982982 144.446471 
L 385.663418 248.163782 
L 385.663418 248.163782 
L 386.826764 267.729282 
L 386.826764 267.729282 
L 387.773673 280.219488 
L 388.558255 287.901629 
L 388.558255 287.901629 
L 389.207564 292.292104 
L 389.207564 292.292104 
L 389.7216 294.534194 
L 389.775709 294.611928 
L 389.775709 294.611928 
L 390.154473 295.353719 
L 390.154473 295.353719 
L 390.425018 295.486342 
L 390.425018 295.486342 
L 390.641455 295.353719 
L 390.749673 295.20789 
L 391.020218 294.611928 
L 391.101382 294.281262 
L 391.128436 294.281262 
L 391.534255 292.574892 
L 391.642473 291.843719 
L 391.669527 291.843719 
L 391.750691 291.200865 
L 391.777745 291.200865 
L 392.264727 287.67931 
L 392.345891 286.759073 
L 392.372945 286.759073 
L 392.968145 280.829718 
L 392.968145 280.829718 
L 393.049309 279.597668 
L 393.076364 279.597668 
L 393.806836 270.10515 
L 393.888 268.531576 
L 393.915055 268.531576 
L 394.807855 254.04411 
L 394.807855 254.04411 
L 394.916073 251.630806 
L 394.943127 251.630806 
L 395.051345 249.662036 
L 395.051345 249.662036 
L 396.214691 226.602622 
L 396.295855 224.304777 
L 396.322909 224.304777 
L 397.919127 188.430798 
L 398.000291 185.911342 
L 398.027345 185.911342 
L 398.487273 175.161342 
L 398.487273 175.161342 
" clip-path="url(#p636b3b8778)" style="fill: none; stroke: #1f77b4; stroke-width: 1.5; stroke-linecap: square"/>
   </g>
   <g id="patch_3">
    <path d="M 57.6 307.584 
L 57.6 41.472 
" style="fill: none; stroke: #000000; stroke-width: 0.8; stroke-linejoin: miter; stroke-linecap: square"/>
   </g>
   <g id="patch_4">
    <path d="M 414.72 307.584 
L 414.72 41.472 
" style="fill: none; stroke: #000000; stroke-width: 0.8; stroke-linejoin: miter; stroke-linecap: square"/>
   </g>
   <g id="patch_5">
    <path d="M 57.6 307.584 
L 414.72 307.584 
" style="fill: none; stroke: #000000; stroke-width: 0.8; stroke-linejoin: miter; stroke-linecap: square"/>
   </g>
   <g id="patch_6">
    <path d="M 57.6 41.472 
L 414.72 41.472 
" style="fill: none; stroke: #000000; stroke-width: 0.8; stroke-linejoin: miter; stroke-linecap: square"/>
   </g>
  </g>
  <g id="text_17">
   <!-- Leitura do Encoder da Junta -->
   <g transform="translate(146.975625 16.030125) scale(0.12 -0.12)">
    <defs>
     <path id="DejaVuSans-4c" d="M 628 4666 
L 1259 4666 
L 1259 531 
L 3531 531 
L 3531 0 
L 628 0 
L 628 4666 
z
" transform="scale(0.015625)"/>
     <path id="DejaVuSans-74" d="M 1172 4494 
L 1172 3500 
L 2356 3500 
L 2356 3053 
L 1172 3053 
L 1172 1153 
Q 1172 725 1289 603 
Q 1406 481 1766 481 
L 2356 481 
L 2356 0 
L 1766 0 
Q 1100 0 847 248 
Q 594 497 594 1153 
L 594 3053 
L 172 3053 
L 172 3500 
L 594 3500 
L 594 4494 
L 1172 4494 
z
" transform="scale(0.015625)"/>
     <path id="DejaVuSans-75" d="M 544 1381 
L 544 3500 
L 1119 3500 
L 1119 1403 
Q 1119 906 1312 657 
Q 1506 409 1894 409 
Q 2359 409 2629 706 
Q 2900 1003 2900 1516 
L 2900 3500 
L 3475 3500 
L 3475 0 
L 2900 0 
L 2900 538 
Q 2691 219 2414 64 
Q 2138 -91 1772 -91 
Q 1169 -91 856 284 
Q 544 659 544 1381 
z
M 1991 3584 
L 1991 3584 
z
" transform="scale(0.015625)"/>
     <path id="DejaVuSans-72" d="M 2631 2963 
Q 2534 3019 2420 3045 
Q 2306 3072 2169 3072 
Q 1681 3072 1420 2755 
Q 1159 2438 1159 1844 
L 1159 0 
L 581 0 
L 581 3500 
L 1159 3500 
L 1159 2956 
Q 1341 3275 1631 3429 
Q 1922 3584 2338 3584 
Q 2397 3584 2469 3576 
Q 2541 3569 2628 3553 
L 2631 2963 
z
" transform="scale(0.015625)"/>
     <path id="DejaVuSans-45" d="M 628 4666 
L 3578 4666 
L 3578 4134 
L 1259 4134 
L 1259 2753 
L 3481 2753 
L 3481 2222 
L 1259 2222 
L 1259 531 
L 3634 531 
L 3634 0 
L 628 0 
L 628 4666 
z
" transform="scale(0.015625)"/>
     <path id="DejaVuSans-6e" d="M 3513 2113 
L 3513 0 
L 2938 0 
L 2938 2094 
Q 2938 2591 2744 2837 
Q 2550 3084 2163 3084 
Q 1697 3084 1428 2787 
Q 1159 2491 1159 1978 
L 1159 0 
L 581 0 
L 581 3500 
L 1159 3500 
L 1159 2956 
Q 1366 3272 1645 3428 
Q 1925 3584 2291 3584 
Q 2894 3584 3203 3211 
Q 3513 2838 3513 2113 
z
" transform="scale(0.015625)"/>
     <path id="DejaVuSans-4a" d="M 628 4666 
L 1259 4666 
L 1259 325 
Q 1259 -519 939 -900 
Q 619 -1281 -91 -1281 
L -331 -1281 
L -331 -750 
L -134 -750 
Q 284 -750 456 -515 
Q 628 -281 628 325 
L 628 4666 
z
" transform="scale(0.015625)"/>
    </defs>
    <use xlink:href="#DejaVuSans-4c"/>
    <use xlink:href="#DejaVuSans-65" x="53.962891"/>
    <use xlink:href="#DejaVuSans-69" x="115.486328"/>
    <use xlink:href="#DejaVuSans-74" x="143.269531"/>
    <use xlink:href="#DejaVuSans-75" x="182.478516"/>
    <use xlink:href="#DejaVuSans-72" x="245.857422"/>
    <use xlink:href="#DejaVuSans-61" x="286.970703"/>
    <use xlink:href="#DejaVuSans-20" x="348.25"/>
    <use xlink:href="#DejaVuSans-64" x="380.037109"/>
    <use xlink:href="#DejaVuSans-6f" x="443.513672"/>
    <use xlink:href="#DejaVuSans-20" x="504.695312"/>
    <use xlink:href="#DejaVuSans-45" x="536.482422"/>
    <use xlink:href="#DejaVuSans-6e" x="599.666016"/>
    <use xlink:href="#DejaVuSans-63" x="663.044922"/>
    <use xlink:href="#DejaVuSans-6f" x="718.025391"/>
    <use xlink:href="#DejaVuSans-64" x="779.207031"/>
    <use xlink:href="#DejaVuSans-65" x="842.683594"/>
    <use xlink:href="#DejaVuSans-72" x="904.207031"/>
    <use xlink:href="#DejaVuSans-20" x="945.320312"/>
    <use xlink:href="#DejaVuSans-64" x="977.107422"/>
    <use xlink:href="#DejaVuSans-61" x="1040.583984"/>
    <use xlink:href="#DejaVuSans-20" x="1101.863281"/>
    <use xlink:href="#DejaVuSans-4a" x="1133.650391"/>
    <use xlink:href="#DejaVuSans-75" x="1163.142578"/>
    <use xlink:href="#DejaVuSans-6e" x="1226.521484"/>
    <use xlink:href="#DejaVuSans-74" x="1289.900391"/>
    <use xlink:href="#DejaVuSans-61" x="1329.109375"/>
   </g>
  </g>
 </g>
 <defs>
  <clipPath id="p636b3b8778">
   <rect x="57.6" y="41.472" width="357.12" height="266.112"/>
  </clipPath>
 </defs>
</svg>
