<?xml version="1.0" encoding="utf-8" standalone="no"?>
<!DOCTYPE svg PUBLIC "-//W3C//DTD SVG 1.1//EN"
  "http://www.w3.org/Graphics/SVG/1.1/DTD/svg11.dtd">
<svg xmlns:xlink="http://www.w3.org/1999/xlink" width="460.8pt" height="345.6pt" viewBox="0 0 460.8 345.6" xmlns="http://www.w3.org/2000/svg" version="1.1">
 <metadata>
  <rdf:RDF xmlns:dc="http://purl.org/dc/elements/1.1/" xmlns:cc="http://creativecommons.org/ns#" xmlns:rdf="http://www.w3.org/1999/02/22-rdf-syntax-ns#">
   <cc:Work>
    <dc:type rdf:resource="http://purl.org/dc/dcmitype/StillImage"/>
    <dc:date>2024-07-31T14:14:55.017174</dc:date>
    <dc:format>image/svg+xml</dc:format>
    <dc:creator>
     <cc:Agent>
      <dc:title>Matplotlib v3.9.1, https://matplotlib.org/</dc:title>
     </cc:Agent>
    </dc:creator>
   </cc:Work>
  </rdf:RDF>
 </metadata>
 <defs>
  <style type="text/css">*{stroke-linejoin: round; stroke-linecap: butt}</style>
 </defs>
 <g id="figure_1">
  <g id="patch_1">
   <path d="M 0 345.6 
L 460.8 345.6 
L 460.8 0 
L 0 0 
z
" style="fill: #ffffff"/>
  </g>
  <g id="axes_1">
   <g id="patch_2">
    <path d="M 57.6 307.584 
L 414.72 307.584 
L 414.72 41.472 
L 57.6 41.472 
z
" style="fill: #ffffff"/>
   </g>
   <g id="matplotlib.axis_1">
    <g id="xtick_1">
     <g id="line2d_1">
      <defs>
       <path id="m30b0cb3fb6" d="M 0 0 
L 0 3.5 
" style="stroke: #000000; stroke-width: 0.8"/>
      </defs>
      <g>
       <use xlink:href="#m30b0cb3fb6" x="73.832727" y="307.584" style="stroke: #000000; stroke-width: 0.8"/>
      </g>
     </g>
     <g id="text_1">
      <!-- 0 -->
      <g transform="translate(70.651477 322.182437) scale(0.1 -0.1)">
       <defs>
        <path id="DejaVuSans-30" d="M 2034 4250 
Q 1547 4250 1301 3770 
Q 1056 3291 1056 2328 
Q 1056 1369 1301 889 
Q 1547 409 2034 409 
Q 2525 409 2770 889 
Q 3016 1369 3016 2328 
Q 3016 3291 2770 3770 
Q 2525 4250 2034 4250 
z
M 2034 4750 
Q 2819 4750 3233 4129 
Q 3647 3509 3647 2328 
Q 3647 1150 3233 529 
Q 2819 -91 2034 -91 
Q 1250 -91 836 529 
Q 422 1150 422 2328 
Q 422 3509 836 4129 
Q 1250 4750 2034 4750 
z
" transform="scale(0.015625)"/>
       </defs>
       <use xlink:href="#DejaVuSans-30"/>
      </g>
     </g>
    </g>
    <g id="xtick_2">
     <g id="line2d_2">
      <g>
       <use xlink:href="#m30b0cb3fb6" x="127.941818" y="307.584" style="stroke: #000000; stroke-width: 0.8"/>
      </g>
     </g>
     <g id="text_2">
      <!-- 100 -->
      <g transform="translate(118.398068 322.182437) scale(0.1 -0.1)">
       <defs>
        <path id="DejaVuSans-31" d="M 794 531 
L 1825 531 
L 1825 4091 
L 703 3866 
L 703 4441 
L 1819 4666 
L 2450 4666 
L 2450 531 
L 3481 531 
L 3481 0 
L 794 0 
L 794 531 
z
" transform="scale(0.015625)"/>
       </defs>
       <use xlink:href="#DejaVuSans-31"/>
       <use xlink:href="#DejaVuSans-30" x="63.623047"/>
       <use xlink:href="#DejaVuSans-30" x="127.246094"/>
      </g>
     </g>
    </g>
    <g id="xtick_3">
     <g id="line2d_3">
      <g>
       <use xlink:href="#m30b0cb3fb6" x="182.050909" y="307.584" style="stroke: #000000; stroke-width: 0.8"/>
      </g>
     </g>
     <g id="text_3">
      <!-- 200 -->
      <g transform="translate(172.507159 322.182437) scale(0.1 -0.1)">
       <defs>
        <path id="DejaVuSans-32" d="M 1228 531 
L 3431 531 
L 3431 0 
L 469 0 
L 469 531 
Q 828 903 1448 1529 
Q 2069 2156 2228 2338 
Q 2531 2678 2651 2914 
Q 2772 3150 2772 3378 
Q 2772 3750 2511 3984 
Q 2250 4219 1831 4219 
Q 1534 4219 1204 4116 
Q 875 4013 500 3803 
L 500 4441 
Q 881 4594 1212 4672 
Q 1544 4750 1819 4750 
Q 2544 4750 2975 4387 
Q 3406 4025 3406 3419 
Q 3406 3131 3298 2873 
Q 3191 2616 2906 2266 
Q 2828 2175 2409 1742 
Q 1991 1309 1228 531 
z
" transform="scale(0.015625)"/>
       </defs>
       <use xlink:href="#DejaVuSans-32"/>
       <use xlink:href="#DejaVuSans-30" x="63.623047"/>
       <use xlink:href="#DejaVuSans-30" x="127.246094"/>
      </g>
     </g>
    </g>
    <g id="xtick_4">
     <g id="line2d_4">
      <g>
       <use xlink:href="#m30b0cb3fb6" x="236.16" y="307.584" style="stroke: #000000; stroke-width: 0.8"/>
      </g>
     </g>
     <g id="text_4">
      <!-- 300 -->
      <g transform="translate(226.61625 322.182437) scale(0.1 -0.1)">
       <defs>
        <path id="DejaVuSans-33" d="M 2597 2516 
Q 3050 2419 3304 2112 
Q 3559 1806 3559 1356 
Q 3559 666 3084 287 
Q 2609 -91 1734 -91 
Q 1441 -91 1130 -33 
Q 819 25 488 141 
L 488 750 
Q 750 597 1062 519 
Q 1375 441 1716 441 
Q 2309 441 2620 675 
Q 2931 909 2931 1356 
Q 2931 1769 2642 2001 
Q 2353 2234 1838 2234 
L 1294 2234 
L 1294 2753 
L 1863 2753 
Q 2328 2753 2575 2939 
Q 2822 3125 2822 3475 
Q 2822 3834 2567 4026 
Q 2313 4219 1838 4219 
Q 1578 4219 1281 4162 
Q 984 4106 628 3988 
L 628 4550 
Q 988 4650 1302 4700 
Q 1616 4750 1894 4750 
Q 2613 4750 3031 4423 
Q 3450 4097 3450 3541 
Q 3450 3153 3228 2886 
Q 3006 2619 2597 2516 
z
" transform="scale(0.015625)"/>
       </defs>
       <use xlink:href="#DejaVuSans-33"/>
       <use xlink:href="#DejaVuSans-30" x="63.623047"/>
       <use xlink:href="#DejaVuSans-30" x="127.246094"/>
      </g>
     </g>
    </g>
    <g id="xtick_5">
     <g id="line2d_5">
      <g>
       <use xlink:href="#m30b0cb3fb6" x="290.269091" y="307.584" style="stroke: #000000; stroke-width: 0.8"/>
      </g>
     </g>
     <g id="text_5">
      <!-- 400 -->
      <g transform="translate(280.725341 322.182437) scale(0.1 -0.1)">
       <defs>
        <path id="DejaVuSans-34" d="M 2419 4116 
L 825 1625 
L 2419 1625 
L 2419 4116 
z
M 2253 4666 
L 3047 4666 
L 3047 1625 
L 3713 1625 
L 3713 1100 
L 3047 1100 
L 3047 0 
L 2419 0 
L 2419 1100 
L 313 1100 
L 313 1709 
L 2253 4666 
z
" transform="scale(0.015625)"/>
       </defs>
       <use xlink:href="#DejaVuSans-34"/>
       <use xlink:href="#DejaVuSans-30" x="63.623047"/>
       <use xlink:href="#DejaVuSans-30" x="127.246094"/>
      </g>
     </g>
    </g>
    <g id="xtick_6">
     <g id="line2d_6">
      <g>
       <use xlink:href="#m30b0cb3fb6" x="344.378182" y="307.584" style="stroke: #000000; stroke-width: 0.8"/>
      </g>
     </g>
     <g id="text_6">
      <!-- 500 -->
      <g transform="translate(334.834432 322.182437) scale(0.1 -0.1)">
       <defs>
        <path id="DejaVuSans-35" d="M 691 4666 
L 3169 4666 
L 3169 4134 
L 1269 4134 
L 1269 2991 
Q 1406 3038 1543 3061 
Q 1681 3084 1819 3084 
Q 2600 3084 3056 2656 
Q 3513 2228 3513 1497 
Q 3513 744 3044 326 
Q 2575 -91 1722 -91 
Q 1428 -91 1123 -41 
Q 819 9 494 109 
L 494 744 
Q 775 591 1075 516 
Q 1375 441 1709 441 
Q 2250 441 2565 725 
Q 2881 1009 2881 1497 
Q 2881 1984 2565 2268 
Q 2250 2553 1709 2553 
Q 1456 2553 1204 2497 
Q 953 2441 691 2322 
L 691 4666 
z
" transform="scale(0.015625)"/>
       </defs>
       <use xlink:href="#DejaVuSans-35"/>
       <use xlink:href="#DejaVuSans-30" x="63.623047"/>
       <use xlink:href="#DejaVuSans-30" x="127.246094"/>
      </g>
     </g>
    </g>
    <g id="xtick_7">
     <g id="line2d_7">
      <g>
       <use xlink:href="#m30b0cb3fb6" x="398.487273" y="307.584" style="stroke: #000000; stroke-width: 0.8"/>
      </g>
     </g>
     <g id="text_7">
      <!-- 600 -->
      <g transform="translate(388.943523 322.182437) scale(0.1 -0.1)">
       <defs>
        <path id="DejaVuSans-36" d="M 2113 2584 
Q 1688 2584 1439 2293 
Q 1191 2003 1191 1497 
Q 1191 994 1439 701 
Q 1688 409 2113 409 
Q 2538 409 2786 701 
Q 3034 994 3034 1497 
Q 3034 2003 2786 2293 
Q 2538 2584 2113 2584 
z
M 3366 4563 
L 3366 3988 
Q 3128 4100 2886 4159 
Q 2644 4219 2406 4219 
Q 1781 4219 1451 3797 
Q 1122 3375 1075 2522 
Q 1259 2794 1537 2939 
Q 1816 3084 2150 3084 
Q 2853 3084 3261 2657 
Q 3669 2231 3669 1497 
Q 3669 778 3244 343 
Q 2819 -91 2113 -91 
Q 1303 -91 875 529 
Q 447 1150 447 2328 
Q 447 3434 972 4092 
Q 1497 4750 2381 4750 
Q 2619 4750 2861 4703 
Q 3103 4656 3366 4563 
z
" transform="scale(0.015625)"/>
       </defs>
       <use xlink:href="#DejaVuSans-36"/>
       <use xlink:href="#DejaVuSans-30" x="63.623047"/>
       <use xlink:href="#DejaVuSans-30" x="127.246094"/>
      </g>
     </g>
    </g>
    <g id="text_8">
     <!-- Tempo (s) -->
     <g transform="translate(211.680312 335.860562) scale(0.1 -0.1)">
      <defs>
       <path id="DejaVuSans-54" d="M -19 4666 
L 3928 4666 
L 3928 4134 
L 2272 4134 
L 2272 0 
L 1638 0 
L 1638 4134 
L -19 4134 
L -19 4666 
z
" transform="scale(0.015625)"/>
       <path id="DejaVuSans-65" d="M 3597 1894 
L 3597 1613 
L 953 1613 
Q 991 1019 1311 708 
Q 1631 397 2203 397 
Q 2534 397 2845 478 
Q 3156 559 3463 722 
L 3463 178 
Q 3153 47 2828 -22 
Q 2503 -91 2169 -91 
Q 1331 -91 842 396 
Q 353 884 353 1716 
Q 353 2575 817 3079 
Q 1281 3584 2069 3584 
Q 2775 3584 3186 3129 
Q 3597 2675 3597 1894 
z
M 3022 2063 
Q 3016 2534 2758 2815 
Q 2500 3097 2075 3097 
Q 1594 3097 1305 2825 
Q 1016 2553 972 2059 
L 3022 2063 
z
" transform="scale(0.015625)"/>
       <path id="DejaVuSans-6d" d="M 3328 2828 
Q 3544 3216 3844 3400 
Q 4144 3584 4550 3584 
Q 5097 3584 5394 3201 
Q 5691 2819 5691 2113 
L 5691 0 
L 5113 0 
L 5113 2094 
Q 5113 2597 4934 2840 
Q 4756 3084 4391 3084 
Q 3944 3084 3684 2787 
Q 3425 2491 3425 1978 
L 3425 0 
L 2847 0 
L 2847 2094 
Q 2847 2600 2669 2842 
Q 2491 3084 2119 3084 
Q 1678 3084 1418 2786 
Q 1159 2488 1159 1978 
L 1159 0 
L 581 0 
L 581 3500 
L 1159 3500 
L 1159 2956 
Q 1356 3278 1631 3431 
Q 1906 3584 2284 3584 
Q 2666 3584 2933 3390 
Q 3200 3197 3328 2828 
z
" transform="scale(0.015625)"/>
       <path id="DejaVuSans-70" d="M 1159 525 
L 1159 -1331 
L 581 -1331 
L 581 3500 
L 1159 3500 
L 1159 2969 
Q 1341 3281 1617 3432 
Q 1894 3584 2278 3584 
Q 2916 3584 3314 3078 
Q 3713 2572 3713 1747 
Q 3713 922 3314 415 
Q 2916 -91 2278 -91 
Q 1894 -91 1617 61 
Q 1341 213 1159 525 
z
M 3116 1747 
Q 3116 2381 2855 2742 
Q 2594 3103 2138 3103 
Q 1681 3103 1420 2742 
Q 1159 2381 1159 1747 
Q 1159 1113 1420 752 
Q 1681 391 2138 391 
Q 2594 391 2855 752 
Q 3116 1113 3116 1747 
z
" transform="scale(0.015625)"/>
       <path id="DejaVuSans-6f" d="M 1959 3097 
Q 1497 3097 1228 2736 
Q 959 2375 959 1747 
Q 959 1119 1226 758 
Q 1494 397 1959 397 
Q 2419 397 2687 759 
Q 2956 1122 2956 1747 
Q 2956 2369 2687 2733 
Q 2419 3097 1959 3097 
z
M 1959 3584 
Q 2709 3584 3137 3096 
Q 3566 2609 3566 1747 
Q 3566 888 3137 398 
Q 2709 -91 1959 -91 
Q 1206 -91 779 398 
Q 353 888 353 1747 
Q 353 2609 779 3096 
Q 1206 3584 1959 3584 
z
" transform="scale(0.015625)"/>
       <path id="DejaVuSans-20" transform="scale(0.015625)"/>
       <path id="DejaVuSans-28" d="M 1984 4856 
Q 1566 4138 1362 3434 
Q 1159 2731 1159 2009 
Q 1159 1288 1364 580 
Q 1569 -128 1984 -844 
L 1484 -844 
Q 1016 -109 783 600 
Q 550 1309 550 2009 
Q 550 2706 781 3412 
Q 1013 4119 1484 4856 
L 1984 4856 
z
" transform="scale(0.015625)"/>
       <path id="DejaVuSans-73" d="M 2834 3397 
L 2834 2853 
Q 2591 2978 2328 3040 
Q 2066 3103 1784 3103 
Q 1356 3103 1142 2972 
Q 928 2841 928 2578 
Q 928 2378 1081 2264 
Q 1234 2150 1697 2047 
L 1894 2003 
Q 2506 1872 2764 1633 
Q 3022 1394 3022 966 
Q 3022 478 2636 193 
Q 2250 -91 1575 -91 
Q 1294 -91 989 -36 
Q 684 19 347 128 
L 347 722 
Q 666 556 975 473 
Q 1284 391 1588 391 
Q 1994 391 2212 530 
Q 2431 669 2431 922 
Q 2431 1156 2273 1281 
Q 2116 1406 1581 1522 
L 1381 1569 
Q 847 1681 609 1914 
Q 372 2147 372 2553 
Q 372 3047 722 3315 
Q 1072 3584 1716 3584 
Q 2034 3584 2315 3537 
Q 2597 3491 2834 3397 
z
" transform="scale(0.015625)"/>
       <path id="DejaVuSans-29" d="M 513 4856 
L 1013 4856 
Q 1481 4119 1714 3412 
Q 1947 2706 1947 2009 
Q 1947 1309 1714 600 
Q 1481 -109 1013 -844 
L 513 -844 
Q 928 -128 1133 580 
Q 1338 1288 1338 2009 
Q 1338 2731 1133 3434 
Q 928 4138 513 4856 
z
" transform="scale(0.015625)"/>
      </defs>
      <use xlink:href="#DejaVuSans-54"/>
      <use xlink:href="#DejaVuSans-65" x="44.083984"/>
      <use xlink:href="#DejaVuSans-6d" x="105.607422"/>
      <use xlink:href="#DejaVuSans-70" x="203.019531"/>
      <use xlink:href="#DejaVuSans-6f" x="266.496094"/>
      <use xlink:href="#DejaVuSans-20" x="327.677734"/>
      <use xlink:href="#DejaVuSans-28" x="359.464844"/>
      <use xlink:href="#DejaVuSans-73" x="398.478516"/>
      <use xlink:href="#DejaVuSans-29" x="450.578125"/>
     </g>
    </g>
   </g>
   <g id="matplotlib.axis_2">
    <g id="ytick_1">
     <g id="line2d_8">
      <defs>
       <path id="me30f5ada3e" d="M 0 0 
L -3.5 0 
" style="stroke: #000000; stroke-width: 0.8"/>
      </defs>
      <g>
       <use xlink:href="#me30f5ada3e" x="57.6" y="297.314574" style="stroke: #000000; stroke-width: 0.8"/>
      </g>
     </g>
     <g id="text_9">
      <!-- −6 -->
      <g transform="translate(35.857813 301.113792) scale(0.1 -0.1)">
       <defs>
        <path id="DejaVuSans-2212" d="M 678 2272 
L 4684 2272 
L 4684 1741 
L 678 1741 
L 678 2272 
z
" transform="scale(0.015625)"/>
       </defs>
       <use xlink:href="#DejaVuSans-2212"/>
       <use xlink:href="#DejaVuSans-36" x="83.789062"/>
      </g>
     </g>
    </g>
    <g id="ytick_2">
     <g id="line2d_9">
      <g>
       <use xlink:href="#me30f5ada3e" x="57.6" y="255.929377" style="stroke: #000000; stroke-width: 0.8"/>
      </g>
     </g>
     <g id="text_10">
      <!-- −4 -->
      <g transform="translate(35.857813 259.728596) scale(0.1 -0.1)">
       <use xlink:href="#DejaVuSans-2212"/>
       <use xlink:href="#DejaVuSans-34" x="83.789062"/>
      </g>
     </g>
    </g>
    <g id="ytick_3">
     <g id="line2d_10">
      <g>
       <use xlink:href="#me30f5ada3e" x="57.6" y="214.544181" style="stroke: #000000; stroke-width: 0.8"/>
      </g>
     </g>
     <g id="text_11">
      <!-- −2 -->
      <g transform="translate(35.857813 218.3434) scale(0.1 -0.1)">
       <use xlink:href="#DejaVuSans-2212"/>
       <use xlink:href="#DejaVuSans-32" x="83.789062"/>
      </g>
     </g>
    </g>
    <g id="ytick_4">
     <g id="line2d_11">
      <g>
       <use xlink:href="#me30f5ada3e" x="57.6" y="173.158985" style="stroke: #000000; stroke-width: 0.8"/>
      </g>
     </g>
     <g id="text_12">
      <!-- 0 -->
      <g transform="translate(44.2375 176.958204) scale(0.1 -0.1)">
       <use xlink:href="#DejaVuSans-30"/>
      </g>
     </g>
    </g>
    <g id="ytick_5">
     <g id="line2d_12">
      <g>
       <use xlink:href="#me30f5ada3e" x="57.6" y="131.773789" style="stroke: #000000; stroke-width: 0.8"/>
      </g>
     </g>
     <g id="text_13">
      <!-- 2 -->
      <g transform="translate(44.2375 135.573008) scale(0.1 -0.1)">
       <use xlink:href="#DejaVuSans-32"/>
      </g>
     </g>
    </g>
    <g id="ytick_6">
     <g id="line2d_13">
      <g>
       <use xlink:href="#me30f5ada3e" x="57.6" y="90.388593" style="stroke: #000000; stroke-width: 0.8"/>
      </g>
     </g>
     <g id="text_14">
      <!-- 4 -->
      <g transform="translate(44.2375 94.187812) scale(0.1 -0.1)">
       <use xlink:href="#DejaVuSans-34"/>
      </g>
     </g>
    </g>
    <g id="ytick_7">
     <g id="line2d_14">
      <g>
       <use xlink:href="#me30f5ada3e" x="57.6" y="49.003397" style="stroke: #000000; stroke-width: 0.8"/>
      </g>
     </g>
     <g id="text_15">
      <!-- 6 -->
      <g transform="translate(44.2375 52.802616) scale(0.1 -0.1)">
       <use xlink:href="#DejaVuSans-36"/>
      </g>
     </g>
    </g>
    <g id="text_16">
     <!-- Velocidade (rad/s) -->
     <g transform="translate(29.778125 220.917844) rotate(-90) scale(0.1 -0.1)">
      <defs>
       <path id="DejaVuSans-56" d="M 1831 0 
L 50 4666 
L 709 4666 
L 2188 738 
L 3669 4666 
L 4325 4666 
L 2547 0 
L 1831 0 
z
" transform="scale(0.015625)"/>
       <path id="DejaVuSans-6c" d="M 603 4863 
L 1178 4863 
L 1178 0 
L 603 0 
L 603 4863 
z
" transform="scale(0.015625)"/>
       <path id="DejaVuSans-63" d="M 3122 3366 
L 3122 2828 
Q 2878 2963 2633 3030 
Q 2388 3097 2138 3097 
Q 1578 3097 1268 2742 
Q 959 2388 959 1747 
Q 959 1106 1268 751 
Q 1578 397 2138 397 
Q 2388 397 2633 464 
Q 2878 531 3122 666 
L 3122 134 
Q 2881 22 2623 -34 
Q 2366 -91 2075 -91 
Q 1284 -91 818 406 
Q 353 903 353 1747 
Q 353 2603 823 3093 
Q 1294 3584 2113 3584 
Q 2378 3584 2631 3529 
Q 2884 3475 3122 3366 
z
" transform="scale(0.015625)"/>
       <path id="DejaVuSans-69" d="M 603 3500 
L 1178 3500 
L 1178 0 
L 603 0 
L 603 3500 
z
M 603 4863 
L 1178 4863 
L 1178 4134 
L 603 4134 
L 603 4863 
z
" transform="scale(0.015625)"/>
       <path id="DejaVuSans-64" d="M 2906 2969 
L 2906 4863 
L 3481 4863 
L 3481 0 
L 2906 0 
L 2906 525 
Q 2725 213 2448 61 
Q 2172 -91 1784 -91 
Q 1150 -91 751 415 
Q 353 922 353 1747 
Q 353 2572 751 3078 
Q 1150 3584 1784 3584 
Q 2172 3584 2448 3432 
Q 2725 3281 2906 2969 
z
M 947 1747 
Q 947 1113 1208 752 
Q 1469 391 1925 391 
Q 2381 391 2643 752 
Q 2906 1113 2906 1747 
Q 2906 2381 2643 2742 
Q 2381 3103 1925 3103 
Q 1469 3103 1208 2742 
Q 947 2381 947 1747 
z
" transform="scale(0.015625)"/>
       <path id="DejaVuSans-61" d="M 2194 1759 
Q 1497 1759 1228 1600 
Q 959 1441 959 1056 
Q 959 750 1161 570 
Q 1363 391 1709 391 
Q 2188 391 2477 730 
Q 2766 1069 2766 1631 
L 2766 1759 
L 2194 1759 
z
M 3341 1997 
L 3341 0 
L 2766 0 
L 2766 531 
Q 2569 213 2275 61 
Q 1981 -91 1556 -91 
Q 1019 -91 701 211 
Q 384 513 384 1019 
Q 384 1609 779 1909 
Q 1175 2209 1959 2209 
L 2766 2209 
L 2766 2266 
Q 2766 2663 2505 2880 
Q 2244 3097 1772 3097 
Q 1472 3097 1187 3025 
Q 903 2953 641 2809 
L 641 3341 
Q 956 3463 1253 3523 
Q 1550 3584 1831 3584 
Q 2591 3584 2966 3190 
Q 3341 2797 3341 1997 
z
" transform="scale(0.015625)"/>
       <path id="DejaVuSans-67" d="M 2906 1791 
Q 2906 2416 2648 2759 
Q 2391 3103 1925 3103 
Q 1463 3103 1205 2759 
Q 947 2416 947 1791 
Q 947 1169 1205 825 
Q 1463 481 1925 481 
Q 2391 481 2648 825 
Q 2906 1169 2906 1791 
z
M 3481 434 
Q 3481 -459 3084 -895 
Q 2688 -1331 1869 -1331 
Q 1566 -1331 1297 -1286 
Q 1028 -1241 775 -1147 
L 775 -588 
Q 1028 -725 1275 -790 
Q 1522 -856 1778 -856 
Q 2344 -856 2625 -561 
Q 2906 -266 2906 331 
L 2906 616 
Q 2728 306 2450 153 
Q 2172 0 1784 0 
Q 1141 0 747 490 
Q 353 981 353 1791 
Q 353 2603 747 3093 
Q 1141 3584 1784 3584 
Q 2172 3584 2450 3431 
Q 2728 3278 2906 2969 
L 2906 3500 
L 3481 3500 
L 3481 434 
z
" transform="scale(0.015625)"/>
       <path id="DejaVuSans-2f" d="M 1625 4666 
L 2156 4666 
L 531 -594 
L 0 -594 
L 1625 4666 
z
" transform="scale(0.015625)"/>
      </defs>
      <use xlink:href="#DejaVuSans-56"/>
      <use xlink:href="#DejaVuSans-65" x="60.658203"/>
      <use xlink:href="#DejaVuSans-6c" x="122.181641"/>
      <use xlink:href="#DejaVuSans-6f" x="149.964844"/>
      <use xlink:href="#DejaVuSans-63" x="211.146484"/>
      <use xlink:href="#DejaVuSans-69" x="266.126953"/>
      <use xlink:href="#DejaVuSans-64" x="293.910156"/>
      <use xlink:href="#DejaVuSans-61" x="357.386719"/>
      <use xlink:href="#DejaVuSans-64" x="418.666016"/>
      <use xlink:href="#DejaVuSans-65" x="482.142578"/>
      <use xlink:href="#DejaVuSans-20" x="543.666016"/>
      <use xlink:href="#DejaVuSans-28" x="575.453125"/>
      <use xlink:href="#DejaVuSans-64" x="614.466797"/>
      <use xlink:href="#DejaVuSans-65" x="677.943359"/>
      <use xlink:href="#DejaVuSans-67" x="739.466797"/>
      <use xlink:href="#DejaVuSans-2f" x="802.943359"/>
      <use xlink:href="#DejaVuSans-73" x="836.634766"/>
      <use xlink:href="#DejaVuSans-29" x="888.734375"/>
     </g>
    </g>
   </g>
   <g id="line2d_15">
    <path d="M 73.832727 173.158985 
L 73.859782 173.158985 
L 76.457018 109.927884 
L 76.484073 109.927884 
L 76.484073 109.927884 
L 76.592291 106.975749 
L 76.619345 106.975749 
L 76.619345 106.975749 
L 76.727564 104.068972 
L 76.754618 104.068972 
L 76.754618 104.068972 
L 76.862836 101.209547 
L 76.889891 101.209547 
L 76.889891 101.209547 
L 76.944 100.130514 
L 76.998109 102.377042 
L 77.025164 102.377042 
L 77.052218 103.088869 
L 77.133382 102.106658 
L 77.160436 102.106658 
L 77.160436 102.106658 
L 77.2416 97.718606 
L 77.268655 97.718606 
L 77.485091 89.291019 
L 77.512145 89.882636 
L 77.5392 89.882636 
L 77.5392 89.882636 
L 77.647418 97.617914 
L 77.674473 97.617914 
L 77.999127 115.727169 
L 77.999127 115.727169 
L 78.053236 116.139706 
L 78.107345 115.797039 
L 78.215564 112.138345 
L 78.242618 112.138345 
L 78.242618 112.138345 
L 78.350836 106.258702 
L 78.377891 106.258702 
L 78.540218 102.125499 
L 78.567273 102.276775 
L 78.648436 104.443399 
L 78.648436 104.443399 
L 78.756655 112.123596 
L 78.783709 112.123596 
L 78.783709 112.123596 
L 79.135418 128.70247 
L 79.162473 128.70247 
L 79.243636 129.175346 
L 79.270691 128.925365 
L 79.297745 128.925365 
L 79.405964 127.199543 
L 79.405964 127.199543 
L 79.649455 119.326963 
L 79.730618 116.145645 
L 79.757673 116.145645 
L 79.838836 115.106149 
L 79.892945 115.324633 
L 80.001164 118.020419 
L 80.109382 122.894156 
L 80.109382 122.894156 
L 80.542255 140.515875 
L 80.569309 140.515875 
L 80.569309 140.515875 
L 80.677527 141.843016 
L 80.677527 141.843016 
L 80.785745 142.197975 
L 80.8128 142.039089 
L 80.839855 142.039089 
L 80.839855 142.039089 
L 80.948073 141.091415 
L 81.164509 136.958486 
L 81.164509 136.958486 
L 81.597382 128.057651 
L 81.624436 128.103651 
L 81.7056 128.949314 
L 81.894982 134.2921 
L 81.894982 134.2921 
L 82.0032 139.359351 
L 82.030255 139.359351 
L 82.030255 139.359351 
L 82.463127 151.756129 
L 82.490182 151.756129 
L 82.571345 153.213726 
L 82.5984 153.213726 
L 82.868945 155.071797 
L 82.868945 155.071797 
L 83.004218 155.211832 
L 83.031273 155.183402 
L 83.166545 154.76812 
L 83.166545 154.76812 
L 83.382982 153.161404 
L 83.382982 153.161404 
L 83.653527 149.53822 
L 83.653527 149.53822 
L 83.761745 147.177739 
L 83.7888 147.177739 
L 83.7888 147.177739 
L 84.221673 141.104168 
L 84.275782 141.040062 
L 84.302836 141.097155 
L 84.384 141.921944 
L 84.411055 141.921944 
L 84.600436 145.282388 
L 84.708655 148.490629 
L 84.735709 148.490629 
L 84.735709 148.490629 
L 84.816873 151.120483 
L 84.843927 151.120483 
L 85.330909 160.562468 
L 85.357964 160.562468 
L 85.357964 160.562468 
L 85.790836 164.725451 
L 85.817891 164.725451 
L 85.817891 164.725451 
L 85.926109 165.345459 
L 85.926109 165.345459 
L 86.358982 167.092235 
L 86.413091 167.161603 
L 86.521309 167.411005 
L 86.521309 167.411005 
L 86.927127 168.043024 
L 87.089455 168.143635 
L 87.441164 168.228243 
L 87.765818 168.092964 
L 87.765818 168.092964 
L 87.874036 167.974623 
L 87.982255 167.884924 
L 88.090473 167.742197 
L 88.090473 167.742197 
L 88.442182 167.071145 
L 88.523345 166.790466 
L 88.5504 166.790466 
L 88.929164 165.454076 
L 88.929164 165.454076 
L 89.037382 164.815113 
L 89.064436 164.815113 
L 89.172655 164.073961 
L 89.199709 164.073961 
L 89.605527 161.154923 
L 89.632582 161.601355 
L 92.797964 238.755359 
L 92.825018 238.755359 
L 92.825018 238.755359 
L 94.123636 264.611148 
L 94.123636 264.611148 
L 95.178764 281.826836 
L 95.205818 281.826836 
L 95.314036 283.658147 
L 95.341091 283.658147 
L 95.449309 285.413727 
L 95.476364 285.413727 
L 95.9904 291.373707 
L 96.098618 284.168428 
L 96.098618 284.168428 
L 96.152727 282.428615 
L 96.206836 283.371363 
L 96.315055 292.673197 
L 96.342109 292.673197 
L 96.396218 295.488 
L 96.450327 295.435726 
L 96.558545 286.759707 
L 96.558545 286.759707 
L 96.666764 274.750135 
L 96.666764 274.750135 
L 96.774982 269.390542 
L 96.829091 269.963234 
L 96.910255 275.875367 
L 96.937309 275.875367 
L 97.072582 282.964131 
L 97.126691 282.248085 
L 97.234909 270.93042 
L 97.261964 270.93042 
L 97.261964 270.93042 
L 97.505455 256.299313 
L 97.505455 256.622086 
L 97.532509 256.622086 
L 97.613673 261.08253 
L 97.830109 270.068154 
L 97.857164 269.9777 
L 97.938327 266.583674 
L 97.938327 266.583674 
L 98.317091 243.223965 
L 98.344145 243.385493 
L 98.425309 245.392625 
L 98.533527 252.017132 
L 98.560582 252.017132 
L 98.560582 252.017132 
L 98.6688 257.034128 
L 98.722909 257.136583 
L 98.722909 257.136583 
L 98.804073 255.049247 
L 98.885236 247.90338 
L 98.912291 247.90338 
L 99.236945 230.222841 
L 99.291055 230.186999 
L 99.291055 230.186999 
L 99.372218 231.163166 
L 99.372218 231.163166 
L 99.480436 235.711757 
L 99.507491 235.711757 
L 99.615709 240.493372 
L 99.615709 240.493372 
L 99.778036 244.169344 
L 99.778036 243.90738 
L 99.940364 238.63135 
L 99.940364 238.63135 
L 100.400291 217.267266 
L 100.427345 217.267266 
L 100.427345 217.15484 
L 100.535564 217.811327 
L 100.562618 217.811327 
L 100.724945 221.652177 
L 100.724945 221.652177 
L 100.833164 226.399109 
L 100.860218 226.399109 
L 100.968436 230.383436 
L 100.995491 230.383436 
L 101.076655 231.230028 
L 101.103709 230.86359 
L 101.130764 230.86359 
L 101.238982 226.789034 
L 101.266036 226.789034 
L 101.374255 220.119897 
L 101.401309 220.119897 
L 101.401309 220.119897 
L 101.780073 205.631586 
L 101.807127 205.631586 
L 101.807127 205.631586 
L 101.996509 204.11519 
L 101.996509 204.11519 
L 102.050618 204.206447 
L 102.050618 204.206447 
L 102.158836 205.026289 
L 102.158836 205.026289 
L 102.24 206.640489 
L 102.267055 206.640489 
L 102.645818 215.970792 
L 102.645818 215.970792 
L 102.8352 218.256723 
L 102.8352 218.16593 
L 102.862255 218.16593 
L 102.862255 218.16593 
L 102.970473 215.991937 
L 102.997527 215.991937 
L 102.997527 215.991937 
L 103.078691 212.626233 
L 103.105745 212.626233 
L 103.700945 194.831558 
L 103.700945 194.831558 
L 103.998545 191.516521 
L 104.0256 191.516521 
L 104.0256 191.516521 
L 104.214982 191.097784 
L 104.214982 191.097784 
L 104.3232 191.275706 
L 104.3232 191.275706 
L 104.512582 192.285027 
L 104.512582 192.285027 
L 104.593745 193.261743 
L 104.6208 193.261743 
L 104.891345 196.949028 
L 104.891345 196.949028 
L 104.999564 198.83523 
L 104.999564 198.83523 
L 105.161891 201.786559 
L 105.216 200.856223 
L 105.324218 197.521448 
L 105.351273 197.521448 
L 109.355345 101.209547 
L 110.599855 77.455008 
L 110.599855 77.455008 
L 111.600873 62.30261 
L 111.817309 59.555116 
L 111.844364 59.614094 
L 111.925527 63.926835 
L 111.952582 63.926835 
L 112.006691 62.773416 
L 112.006691 62.773416 
L 112.277236 54.383982 
L 112.3584 62.737111 
L 112.385455 62.737111 
L 112.574836 76.92151 
L 112.601891 76.373783 
L 112.628945 76.373783 
L 112.628945 76.373783 
L 112.764218 68.574358 
L 112.872436 63.361789 
L 112.872436 63.361789 
L 112.899491 63.36218 
L 112.899491 63.36218 
L 113.007709 69.736639 
L 113.007709 69.736639 
L 113.305309 90.021796 
L 113.305309 90.021796 
L 113.359418 89.033585 
L 113.359418 89.033585 
L 113.467636 83.643217 
L 113.467636 83.643217 
L 113.629964 76.254222 
L 113.684073 76.944942 
L 113.792291 83.968341 
L 113.792291 83.968341 
L 114.089891 103.094473 
L 114.116945 103.094473 
L 114.116945 103.094473 
L 114.225164 99.857502 
L 114.252218 99.857502 
L 114.360436 92.938023 
L 114.387491 92.938023 
L 114.495709 89.179164 
L 114.522764 89.179164 
L 114.522764 89.179164 
L 114.576873 90.15958 
L 114.576873 90.15958 
L 114.712145 98.362447 
L 114.712145 98.362447 
L 114.820364 106.679587 
L 114.820364 106.679587 
L 115.063855 116.091829 
L 115.063855 116.091829 
L 115.090909 116.132358 
L 115.117964 115.986451 
L 115.117964 115.986451 
L 115.226182 113.721558 
L 115.226182 113.721558 
L 115.577891 102.145857 
L 115.632 102.946477 
L 115.740218 107.648002 
L 115.740218 107.648002 
L 116.200145 129.046462 
L 116.2272 129.046462 
L 116.281309 129.162909 
L 116.335418 128.515826 
L 116.362473 128.515826 
L 116.5248 124.687115 
L 116.5248 124.687115 
L 116.633018 119.942631 
L 116.660073 119.942631 
L 116.876509 115.088292 
L 116.903564 115.168715 
L 116.984727 116.572647 
L 116.984727 116.572647 
L 117.065891 120.721204 
L 117.092945 120.721204 
L 117.606982 140.67559 
L 117.606982 140.67559 
L 117.796364 142.202529 
L 117.796364 142.185665 
L 117.850473 142.113975 
L 117.958691 140.968502 
L 117.985745 140.968502 
L 117.985745 140.968502 
L 118.093964 138.614802 
L 118.121018 138.614802 
L 118.635055 128.060502 
L 118.689164 128.354979 
L 118.797382 130.308936 
L 118.797382 130.308936 
L 119.094982 140.707761 
L 119.094982 140.707761 
L 119.2032 145.228266 
L 119.230255 145.228266 
L 119.230255 145.228266 
L 119.581964 152.670742 
L 119.879564 155.097655 
L 119.960727 155.197298 
L 119.960727 155.197298 
L 120.041891 155.203858 
L 120.068945 155.16891 
L 120.204218 154.721504 
L 120.204218 154.721504 
L 120.285382 154.038059 
L 120.312436 154.038059 
L 120.582982 151.056203 
L 120.582982 151.056203 
L 121.259345 141.075826 
L 121.2864 141.485275 
L 125.912727 251.766197 
L 125.912727 251.766197 
L 127.076073 273.337594 
L 127.103127 273.337594 
L 127.184291 275.051225 
L 127.211345 275.051225 
L 128.1312 287.74203 
L 128.1312 287.74203 
L 128.158255 288.062151 
L 128.185309 287.607835 
L 128.185309 287.607835 
L 128.293527 282.437975 
L 128.347636 283.258155 
L 128.455855 291.65547 
L 128.482909 291.65547 
L 128.591127 293.015417 
L 128.618182 293.015417 
L 128.618182 293.015417 
L 128.7264 281.026014 
L 128.753455 281.026014 
L 128.861673 270.087461 
L 128.888727 270.087461 
L 128.888727 270.087461 
L 128.942836 269.370997 
L 128.969891 269.803429 
L 129.105164 277.372174 
L 129.105164 277.372174 
L 129.240436 283.008824 
L 129.267491 282.46032 
L 129.375709 274.411539 
L 129.375709 274.411539 
L 129.456873 263.435749 
L 129.483927 263.435749 
L 129.646255 256.279757 
L 129.673309 256.519093 
L 129.781527 262.349183 
L 129.808582 262.349183 
L 129.808582 262.349183 
L 129.997964 270.043256 
L 130.025018 269.534723 
L 130.133236 260.383185 
L 130.160291 260.383185 
L 130.160291 260.383185 
L 130.430836 243.410973 
L 130.430836 243.410973 
L 130.457891 243.225892 
L 130.484945 243.326483 
L 130.566109 245.176654 
L 130.647273 250.245012 
L 130.674327 250.245012 
L 130.863709 257.147803 
L 130.890764 256.324692 
L 130.917818 256.324692 
L 130.917818 256.324692 
L 131.026036 248.366479 
L 131.053091 248.366479 
L 131.053091 248.366479 
L 131.377745 230.528923 
L 131.377745 230.528923 
L 131.431855 230.178646 
L 131.458909 230.578913 
L 131.485964 230.578913 
L 131.485964 230.578913 
L 131.621236 234.348577 
L 131.621236 234.348577 
L 131.918836 244.187806 
L 131.945891 243.990054 
L 132.027055 241.693177 
L 132.027055 241.693177 
L 132.135273 233.912295 
L 132.162327 233.912295 
L 132.162327 233.912295 
L 132.270545 225.576143 
L 132.2976 225.576143 
L 132.2976 225.576143 
L 132.568145 217.169656 
L 132.649309 217.234743 
L 132.649309 217.234743 
L 132.757527 218.629921 
L 132.757527 218.629921 
L 132.865745 222.343678 
L 132.8928 222.343678 
L 132.8928 222.343678 
L 133.217455 231.222814 
L 133.244509 230.942202 
L 133.271564 230.942202 
L 133.271564 230.942202 
L 133.379782 227.044623 
L 133.406836 227.044623 
L 134.002036 204.958486 
L 134.002036 204.958486 
L 134.137309 204.118639 
L 134.164364 204.185754 
L 134.191418 204.185754 
L 134.299636 204.95997 
L 134.299636 204.95997 
L 134.407855 206.532544 
L 134.407855 206.532544 
L 134.732509 214.507648 
L 134.732509 214.507648 
L 134.840727 216.956567 
L 134.840727 216.956567 
L 134.976 218.260855 
L 135.003055 218.01261 
L 135.030109 218.01261 
L 135.030109 218.01261 
L 135.165382 215.42392 
L 135.165382 215.42392 
L 135.2736 211.869469 
L 135.841745 194.930027 
L 135.841745 194.930027 
L 136.139345 191.5457 
L 136.1664 191.5457 
L 136.355782 191.096543 
L 136.355782 191.096543 
L 136.436945 191.19048 
L 136.545164 191.710706 
L 136.572218 191.710706 
L 136.572218 191.710706 
L 136.7616 193.200476 
L 136.7616 193.200476 
L 136.869818 194.811143 
L 136.896873 194.811143 
L 136.896873 194.811143 
L 137.302691 201.681888 
L 137.302691 201.681888 
L 137.410909 203.828774 
L 137.437964 203.828774 
L 137.519127 204.740507 
L 137.546182 204.172015 
L 137.6544 201.520973 
L 137.6544 201.520973 
L 141.983127 97.843497 
L 141.983127 97.843497 
L 143.200582 75.184119 
L 143.200582 75.184119 
L 144.174545 60.904244 
L 144.174545 60.904244 
L 144.363927 58.57594 
L 144.363927 59.095192 
L 144.4992 63.911577 
L 144.526255 63.7121 
L 144.634473 57.699723 
L 144.769745 53.836725 
L 144.7968 53.836725 
L 144.7968 53.836725 
L 144.7968 53.568 
L 144.905018 62.55277 
L 144.932073 62.55277 
L 144.932073 62.55277 
L 145.0944 76.354285 
L 145.121455 76.916132 
L 145.175564 76.41394 
L 145.310836 68.675423 
L 145.310836 68.675423 
L 145.392 63.380276 
L 145.419055 63.380276 
L 145.446109 63.34512 
L 145.446109 63.34512 
L 145.527273 67.215404 
L 145.527273 67.215404 
L 145.824873 90.02776 
L 145.878982 89.078031 
L 145.906036 89.078031 
L 146.176582 76.264795 
L 146.257745 78.008226 
L 146.474182 95.792565 
L 146.474182 95.792565 
L 146.5824 102.511812 
L 146.609455 102.511812 
L 146.609455 102.511812 
L 146.663564 103.094894 
L 146.717673 102.546246 
L 146.852945 97.305998 
L 146.852945 97.305998 
L 147.069382 89.175197 
L 147.096436 90.11273 
L 147.123491 90.11273 
L 147.258764 98.250033 
L 147.339927 106.578071 
L 147.366982 106.578071 
L 147.610473 116.134966 
L 147.637527 116.134966 
L 147.637527 116.134966 
L 147.691636 115.683826 
L 147.799855 111.817114 
L 147.826909 111.817114 
L 147.826909 111.817114 
L 148.124509 102.140481 
L 148.151564 102.910207 
L 148.178618 102.910207 
L 148.286836 109.18374 
L 148.313891 109.18374 
L 148.313891 109.18374 
L 148.719709 128.798043 
L 148.746764 128.798043 
L 148.746764 128.798043 
L 148.800873 129.165669 
L 148.854982 129.061877 
L 148.9632 127.610016 
L 149.044364 124.73302 
L 149.071418 124.73302 
L 149.423127 115.089443 
L 149.450182 115.425436 
L 149.477236 115.425436 
L 149.477236 115.425436 
L 149.612509 119.437737 
L 149.612509 119.437737 
L 150.207709 141.404296 
L 150.207709 141.404296 
L 150.342982 142.201868 
L 150.370036 142.187954 
L 150.4512 141.821056 
L 150.532364 140.610492 
L 150.559418 140.610492 
L 150.7488 136.064553 
L 151.154618 128.094631 
L 151.154618 128.094631 
L 151.181673 128.059135 
L 151.208727 128.140706 
L 151.316945 130.272217 
L 151.344 130.272217 
L 151.6416 140.655509 
L 151.6416 140.655509 
L 151.749818 145.184786 
L 151.776873 145.184786 
L 151.776873 145.184786 
L 152.128582 152.651891 
L 152.426182 155.013482 
L 152.426182 155.013482 
L 152.561455 155.220729 
L 152.588509 155.205203 
L 152.696727 154.959951 
L 152.696727 154.959951 
L 152.859055 154.049063 
L 152.859055 154.049063 
L 152.967273 152.789542 
L 152.994327 152.789542 
L 152.994327 152.789542 
L 153.102545 151.454619 
L 153.102545 151.454619 
L 153.508364 144.568445 
L 153.508364 144.568445 
L 153.589527 142.812372 
L 153.616582 142.812372 
L 153.751855 141.485276 
L 153.751855 141.485276 
L 158.378182 251.766197 
L 158.378182 251.766197 
L 159.541527 273.337594 
L 159.568582 273.337594 
L 159.568582 273.337594 
L 159.649745 275.051225 
L 159.6768 275.051225 
L 160.596655 287.74203 
L 160.596655 287.734554 
L 160.623709 287.734554 
L 160.758982 282.474557 
L 160.786036 283.107894 
L 161.056582 292.74997 
L 161.083636 292.475812 
L 161.354182 269.348194 
L 161.4624 273.340329 
L 161.489455 273.340329 
L 161.597673 280.615539 
L 161.597673 280.615539 
L 161.678836 283.033437 
L 161.705891 282.598566 
L 161.814109 274.870153 
L 161.814109 274.870153 
L 162.084655 256.277633 
L 162.138764 257.00157 
L 162.246982 262.075145 
L 162.246982 262.075145 
L 162.436364 270.075505 
L 162.463418 269.656064 
L 162.571636 263.198399 
L 162.571636 263.198399 
L 162.896291 243.236458 
L 162.896291 243.290673 
L 162.923345 243.290673 
L 162.923345 243.290673 
L 163.004509 245.02041 
L 163.004509 245.02041 
L 163.112727 251.460517 
L 163.139782 251.460517 
L 163.302109 257.14354 
L 163.329164 257.001637 
L 163.410327 254.207217 
L 163.491491 246.593717 
L 163.518545 246.593717 
L 163.816145 230.2879 
L 163.897309 230.257886 
L 164.005527 233.174404 
L 164.032582 233.174404 
L 164.032582 233.174404 
L 164.113745 237.645995 
L 164.1408 237.645995 
L 164.357236 244.192504 
L 164.384291 244.042995 
L 164.465455 241.88136 
L 164.573673 235.955618 
L 164.573673 235.955618 
L 164.952436 217.61754 
L 165.060655 217.142534 
L 165.087709 217.212577 
L 165.168873 218.541175 
L 165.195927 218.541175 
L 165.412364 225.048046 
L 165.412364 225.048046 
L 165.520582 228.756296 
L 165.520582 228.756296 
L 165.655855 231.211308 
L 165.709964 230.995185 
L 165.818182 228.30365 
L 165.818182 228.30365 
L 165.9264 222.052835 
L 165.953455 222.052835 
L 165.953455 222.052835 
L 166.061673 215.28517 
L 166.088727 215.28517 
L 166.196945 210.804823 
L 166.196945 210.804823 
L 166.467491 204.476207 
L 166.494545 204.476207 
L 166.494545 204.476207 
L 166.575709 204.119845 
L 166.602764 204.171885 
L 166.656873 204.278074 
L 166.656873 204.278074 
L 166.765091 205.224504 
L 166.765091 205.224504 
L 166.846255 206.953592 
L 166.873309 206.953592 
L 167.225018 215.732375 
L 167.225018 215.732375 
L 167.306182 217.721494 
L 167.333236 217.721494 
L 167.4144 218.26024 
L 167.468509 218.051184 
L 167.603782 215.548734 
L 167.603782 215.548734 
L 167.712 212.031809 
L 167.712 212.031809 
L 168.280145 194.56442 
L 168.3072 194.56442 
L 168.415418 192.812209 
L 168.442473 192.812209 
L 168.442473 192.812209 
L 168.713018 191.179982 
L 168.821236 191.106022 
L 168.848291 191.13434 
L 168.956509 191.549072 
L 168.983564 191.549072 
L 168.983564 191.549072 
L 169.2 193.154904 
L 169.2 193.154904 
L 169.470545 196.777056 
L 169.578764 199.137238 
L 169.984582 204.832695 
L 169.984582 204.832695 
L 174.610909 94.010608 
L 174.637964 94.010608 
L 175.801309 72.54782 
L 175.828364 72.54782 
L 175.909527 70.845292 
L 175.936582 70.845292 
L 176.829382 58.57594 
L 176.829382 58.57594 
L 176.856436 58.701465 
L 176.856436 58.701465 
L 176.9376 63.863098 
L 176.964655 63.81407 
L 177.099927 58.182599 
L 177.099927 58.182599 
L 177.262255 53.568 
L 177.289309 53.568 
L 177.397527 65.031976 
L 177.424582 65.031976 
L 177.424582 65.031976 
L 177.613964 76.960163 
L 177.613964 76.960163 
L 177.668073 75.704841 
L 177.668073 75.704841 
L 177.776291 67.238421 
L 177.803345 67.238421 
L 177.911564 63.294507 
L 177.938618 64.954597 
L 178.317382 90.040638 
L 178.398545 88.342824 
L 178.669091 76.256752 
L 178.7232 77.715259 
L 178.885527 90.727977 
L 178.885527 90.727977 
L 178.993745 99.01923 
L 178.993745 99.01923 
L 179.129018 103.087778 
L 179.156073 103.010329 
L 179.264291 100.178939 
L 179.345455 94.737391 
L 179.372509 94.737391 
L 179.534836 89.170941 
L 179.561891 89.346245 
L 179.670109 93.869535 
L 179.778327 104.141635 
L 179.805382 104.141635 
L 180.075927 116.140122 
L 180.130036 116.045259 
L 180.2112 114.71392 
L 180.319418 109.782712 
L 180.346473 109.782712 
L 180.589964 102.12683 
L 180.617018 102.300438 
L 180.725236 107.218805 
L 180.752291 107.218805 
L 180.752291 107.218805 
L 180.860509 114.02942 
L 180.860509 114.02942 
L 181.185164 128.340452 
L 181.293382 129.173844 
L 181.320436 128.907233 
L 181.347491 128.907233 
L 181.455709 127.151881 
L 181.455709 127.151881 
L 181.726255 118.341259 
L 181.726255 118.341259 
L 181.834473 115.262689 
L 181.861527 115.262689 
L 181.888582 115.100261 
L 181.942691 115.348602 
L 182.050909 118.097894 
L 182.132073 122.998877 
L 182.159127 122.998877 
L 182.592 140.059787 
L 182.592 140.059787 
L 182.808436 142.197329 
L 182.862545 142.139337 
L 182.862545 142.139337 
L 182.970764 141.382359 
L 183.078982 139.320974 
L 183.106036 139.320974 
L 183.106036 139.320974 
L 183.214255 136.221897 
L 183.241309 136.221897 
L 183.620073 128.057023 
L 183.647127 128.112058 
L 183.7824 129.501282 
L 183.7824 129.501282 
L 183.890618 133.404535 
L 183.917673 133.404535 
L 184.539927 152.195212 
L 184.566982 152.195212 
L 184.6752 153.794476 
L 184.702255 153.794476 
L 184.810473 154.613292 
L 184.810473 154.613292 
L 185.026909 155.221662 
L 185.026909 155.210304 
L 185.108073 155.132295 
L 185.216291 154.75823 
L 185.216291 154.75823 
L 185.405673 153.40644 
L 185.405673 153.40644 
L 185.513891 151.893687 
L 185.540945 151.893687 
L 185.649164 149.941906 
L 185.676218 149.941906 
L 185.784436 147.630563 
L 185.811491 147.630563 
L 185.892655 145.651335 
L 185.919709 145.651335 
L 186.217309 141.485275 
L 186.217309 141.485275 
L 190.843636 252.307362 
L 190.870691 252.307362 
L 192.034036 273.770151 
L 192.061091 273.770151 
L 192.061091 273.770151 
L 192.169309 275.472678 
L 192.169309 275.472678 
L 193.062109 287.74203 
L 193.062109 287.74203 
L 193.089164 287.656559 
L 193.197382 282.461636 
L 193.197382 282.495635 
L 193.224436 282.495635 
L 193.332655 288.087947 
L 193.332655 288.087947 
L 193.494982 292.481245 
L 193.494982 292.481245 
L 193.522036 292.74997 
L 193.522036 292.377096 
L 193.549091 292.377096 
L 193.846691 269.35488 
L 193.927855 271.853329 
L 194.144291 283.026593 
L 194.1984 281.396312 
L 194.360727 263.686001 
L 194.550109 256.277145 
L 194.550109 256.476155 
L 194.577164 256.476155 
L 194.685382 262.17516 
L 194.712436 262.17516 
L 194.820655 269.410641 
L 194.847709 269.410641 
L 194.901818 270.065407 
L 194.955927 267.156357 
L 194.982982 267.156357 
L 195.361745 243.231678 
L 195.415855 244.245543 
L 195.442909 244.245543 
L 195.442909 244.245543 
L 195.551127 250.0925 
L 195.578182 250.0925 
L 195.767564 257.14636 
L 195.794618 256.980016 
L 195.875782 254.117651 
L 195.956945 246.463898 
L 195.984 246.463898 
L 196.2816 230.275753 
L 196.362764 230.268616 
L 196.362764 230.268616 
L 196.470982 232.343114 
L 196.470982 232.343114 
L 196.822691 244.191699 
L 196.8768 243.565454 
L 197.012073 237.544291 
L 197.012073 237.544291 
L 197.417891 217.597395 
L 197.444945 217.597395 
L 197.526109 217.143625 
L 197.553164 217.405429 
L 197.580218 217.405429 
L 197.661382 219.152252 
L 197.688436 219.152252 
L 197.931927 227.042311 
L 197.931927 227.042311 
L 198.040145 230.706548 
L 198.0672 230.706548 
L 198.094255 231.216121 
L 198.175418 230.563523 
L 198.202473 230.563523 
L 198.202473 230.563523 
L 198.337745 225.972894 
L 198.445964 219.182845 
L 198.473018 219.182845 
L 198.581236 212.83689 
L 198.608291 212.83689 
L 198.716509 208.173555 
L 198.743564 208.173555 
L 198.824727 205.776989 
L 198.851782 205.776989 
L 199.068218 204.121437 
L 199.068218 204.121437 
L 199.149382 204.448741 
L 199.2576 205.609989 
L 199.2576 205.609989 
L 199.501091 210.78864 
L 199.501091 210.78864 
L 199.609309 214.433997 
L 199.636364 214.433997 
L 199.879855 218.260836 
L 199.879855 218.208416 
L 200.015127 216.829291 
L 200.204509 210.978704 
L 200.312727 206.903682 
L 200.312727 206.903682 
L 200.7456 194.538741 
L 200.772655 194.538741 
L 200.880873 193.08754 
L 200.880873 193.08754 
L 201.151418 191.242035 
L 201.151418 191.242035 
L 201.286691 191.107214 
L 201.313745 191.136647 
L 201.421964 191.436648 
L 201.503127 192.025946 
L 201.530182 192.025946 
L 201.746618 194.07817 
L 201.827782 195.536889 
L 201.854836 195.536889 
L 202.450036 204.832695 
L 202.477091 203.510485 
L 202.504145 203.510485 
L 202.585309 200.856223 
L 202.612364 200.856223 
L 206.886982 98.399432 
L 206.886982 98.399432 
L 208.104436 75.632974 
L 208.104436 75.632974 
L 209.0784 61.249243 
L 209.0784 61.249243 
L 209.294836 58.57594 
L 209.321891 58.67216 
L 209.430109 63.858181 
L 209.484218 61.908241 
L 209.511273 61.908241 
L 209.754764 53.568 
L 209.754764 53.568 
L 209.781818 53.950633 
L 209.781818 53.950633 
L 209.862982 64.980539 
L 209.890036 64.980539 
L 210.079418 76.962332 
L 210.079418 76.579179 
L 210.106473 76.579179 
L 210.106473 76.579179 
L 210.241745 69.135276 
L 210.349964 63.292183 
L 210.377018 63.292183 
L 210.377018 63.292183 
L 210.458182 66.706623 
L 210.5664 77.340375 
L 210.5664 77.340375 
L 210.782836 90.040794 
L 210.836945 89.267494 
L 210.836945 89.267494 
L 210.972218 82.452101 
L 211.080436 76.330602 
L 211.134545 76.253659 
L 211.134545 76.253659 
L 211.215709 79.171703 
L 211.215709 79.171703 
L 211.323927 90.688116 
L 211.350982 90.688116 
L 211.594473 103.086704 
L 211.621527 103.013807 
L 211.621527 103.013807 
L 211.729745 100.197322 
L 211.729745 100.197322 
L 212.000291 89.171412 
L 212.0544 89.914573 
L 212.189673 97.744044 
L 212.189673 97.744044 
L 212.514327 115.751226 
L 212.514327 115.751226 
L 212.568436 116.140126 
L 212.622545 115.775576 
L 212.757818 112.07459 
L 213.055418 102.126407 
L 213.082473 102.295283 
L 213.190691 105.755329 
L 213.271855 112.230469 
L 213.298909 112.230469 
L 213.650618 128.722526 
L 213.677673 128.722526 
L 213.758836 129.174217 
L 213.785891 129.096844 
L 213.894109 127.741437 
L 213.894109 127.741437 
L 214.110545 121.204694 
L 214.218764 116.751345 
L 214.245818 116.751345 
L 214.245818 116.751345 
L 214.354036 115.101415 
L 214.408145 115.34343 
L 214.516364 119.159917 
L 214.543418 119.159917 
L 215.138618 141.327442 
L 215.138618 141.327442 
L 215.300945 142.196366 
L 215.300945 142.196366 
L 215.382109 141.868107 
L 215.490327 140.292672 
L 215.517382 140.292672 
L 215.6256 137.574036 
L 215.652655 137.574036 
L 215.652655 137.574036 
L 215.760873 134.063823 
L 215.787927 134.063823 
L 215.787927 134.063823 
L 215.869091 131.192463 
L 215.896145 131.192463 
L 216.112582 128.057099 
L 216.112582 128.057099 
L 216.166691 128.281896 
L 216.274909 130.109283 
L 216.599564 141.39378 
L 217.005382 151.781742 
L 217.005382 151.781742 
L 217.302982 154.885388 
L 217.357091 154.991086 
L 217.357091 154.991086 
L 217.519418 155.210636 
L 217.519418 155.181094 
L 217.573527 155.133224 
L 217.681745 154.760333 
L 217.681745 154.760333 
L 217.898182 153.144815 
L 217.979345 151.899332 
L 218.0064 151.899332 
L 218.331055 146.652727 
L 218.412218 144.683446 
L 218.439273 144.683446 
L 218.682764 141.485275 
L 218.682764 141.485275 
L 223.309091 252.307362 
L 223.336145 252.307362 
L 224.499491 273.337594 
L 224.499491 273.337594 
L 225.4464 287.092373 
L 225.473455 287.092373 
L 225.473455 287.092373 
L 225.500509 287.74203 
L 225.581673 284.346019 
L 225.662836 282.460281 
L 225.689891 283.170873 
L 225.987491 292.74997 
L 226.014545 292.369953 
L 226.014545 292.369953 
L 226.312145 269.355433 
L 226.393309 271.859608 
L 226.501527 279.047587 
L 226.501527 279.047587 
L 226.609745 283.026006 
L 226.6368 281.389878 
L 226.663855 281.389878 
L 226.663855 281.389878 
L 226.853236 263.675563 
L 226.961455 256.473812 
L 226.988509 256.473812 
L 226.988509 256.473812 
L 227.015564 256.277167 
L 227.015564 256.477853 
L 227.042618 256.477853 
L 227.150836 262.182353 
L 227.177891 262.182353 
L 227.286109 269.414121 
L 227.313164 269.414121 
L 227.340218 269.986837 
L 227.394327 269.610217 
L 227.502545 260.633061 
L 227.773091 243.445882 
L 227.800145 243.445882 
L 227.800145 243.445882 
L 227.8272 243.231376 
L 227.854255 243.648908 
L 227.881309 243.648908 
L 228.233018 257.146507 
L 228.233018 257.146507 
L 228.287127 256.40463 
L 228.665891 231.760204 
L 228.692945 231.760204 
L 228.801164 230.177846 
L 228.801164 230.269412 
L 228.936436 232.3467 
L 228.936436 232.3467 
L 229.288145 244.191601 
L 229.342255 242.817907 
L 229.369309 242.817907 
L 229.558691 232.320042 
L 229.883345 217.985549 
L 229.964509 217.143719 
L 230.018618 217.406466 
L 230.180945 219.819958 
L 230.289164 224.134614 
L 230.316218 224.134614 
L 230.316218 224.134614 
L 230.586764 231.21644 
L 230.613818 230.975045 
L 230.640873 230.975045 
L 230.640873 230.975045 
L 230.749091 227.159867 
L 230.776145 227.159867 
L 230.884364 220.566767 
L 230.911418 220.566767 
L 230.911418 220.566767 
L 231.019636 215.20388 
L 231.019636 215.20388 
L 231.344291 205.350125 
L 231.344291 205.350125 
L 231.533673 204.121559 
L 231.533673 204.121559 
L 231.614836 204.449562 
L 231.614836 204.449562 
L 231.777164 206.483833 
L 231.777164 206.483833 
L 232.047709 212.991003 
L 232.155927 215.77309 
L 232.155927 215.77309 
L 232.345309 218.260862 
L 232.372364 218.20793 
L 232.480582 216.826824 
L 232.480582 216.826824 
L 232.5888 213.847975 
L 232.5888 213.847975 
L 233.292218 193.405511 
L 233.319273 193.405511 
L 233.319273 193.405511 
L 233.427491 192.070683 
L 233.454545 192.070683 
L 233.454545 192.070683 
L 233.535709 191.432767 
L 233.562764 191.432767 
L 233.725091 191.096275 
L 233.752145 191.107302 
L 233.860364 191.334882 
L 233.860364 191.334882 
L 234.049745 192.43034 
L 234.157964 193.759117 
L 234.185018 193.759117 
L 234.482618 198.195173 
L 234.563782 200.16163 
L 234.590836 200.16163 
L 234.915491 204.832695 
L 234.915491 204.832695 
L 239.541818 94.010608 
L 239.568873 94.010608 
L 240.732218 72.54782 
L 240.759273 72.54782 
L 241.706182 58.899203 
L 241.733236 58.899203 
L 241.760291 58.57594 
L 241.787345 58.670054 
L 241.895564 63.857821 
L 241.949673 63.146676 
L 242.220218 53.568 
L 242.247273 53.948718 
L 242.355491 68.034989 
L 242.382545 68.034989 
L 242.544873 76.962482 
L 242.544873 76.579912 
L 242.734255 67.269619 
L 242.734255 67.269619 
L 242.815418 63.292023 
L 242.842473 63.292023 
L 242.896582 64.928724 
L 242.977745 74.465138 
L 243.0048 74.465138 
L 243.248291 90.040801 
L 243.248291 90.040801 
L 243.3024 89.268363 
L 243.3024 89.268363 
L 243.410618 82.454072 
L 243.6 76.253443 
L 243.6 76.708061 
L 243.627055 76.708061 
L 243.735273 83.271494 
L 243.735273 83.271494 
L 244.059927 103.086624 
L 244.059927 103.014053 
L 244.086982 103.014053 
L 244.086982 103.014053 
L 244.141091 101.236551 
L 244.465745 89.17145 
L 244.519855 89.913671 
L 244.655127 97.741609 
L 244.655127 97.741609 
L 244.979782 116.043144 
L 245.033891 116.140125 
L 245.060945 116.04848 
L 245.169164 113.970919 
L 245.169164 113.970919 
L 245.277382 108.592223 
L 245.304436 108.592223 
L 245.520873 102.12638 
L 245.547927 102.294916 
L 245.656145 105.753758 
L 245.764364 113.998681 
L 245.791418 113.998681 
L 245.791418 113.998681 
L 245.899636 120.594921 
L 245.899636 120.594921 
L 246.170182 129.139721 
L 246.251345 129.096998 
L 246.332509 127.74206 
L 246.359564 127.74206 
L 246.576 121.205837 
L 246.576 121.205837 
L 246.684218 116.752164 
L 246.711273 116.752164 
L 246.819491 115.1015 
L 246.819491 115.124665 
L 246.846545 115.124665 
L 246.954764 118.080238 
L 246.981818 118.080238 
L 246.981818 118.080238 
L 247.090036 122.975089 
L 247.090036 122.975089 
L 247.522909 140.543171 
L 247.549964 140.543171 
L 247.549964 140.543171 
L 247.7664 142.196399 
L 247.847564 141.653452 
L 247.874618 141.653452 
L 248.036945 139.330126 
L 248.145164 136.918743 
L 248.145164 136.918743 
L 248.578036 128.057106 
L 248.578036 128.057106 
L 248.632145 128.281627 
L 248.632145 128.281627 
L 248.740364 130.818244 
L 248.767418 130.818244 
L 249.660218 154.030888 
L 249.903709 155.214043 
L 250.038982 155.13329 
L 250.201309 154.465691 
L 250.201309 154.465691 
L 250.4448 152.238227 
L 250.553018 150.779176 
L 250.553018 150.779176 
L 251.148218 141.485275 
L 251.175273 142.807485 
L 251.202327 142.807485 
L 251.310545 146.127257 
L 251.3376 146.127257 
L 255.585164 248.474474 
L 255.612218 248.474474 
L 255.612218 248.474474 
L 255.720436 251.222877 
L 255.747491 251.222877 
L 256.937891 272.90229 
L 256.937891 272.90229 
L 257.8848 286.762854 
L 257.911855 286.762854 
L 257.911855 286.762854 
L 257.993018 287.74203 
L 258.020073 287.648123 
L 258.128291 282.460185 
L 258.1824 284.407797 
L 258.209455 284.407797 
L 258.452945 292.74997 
L 258.452945 292.74997 
L 258.48 292.36944 
L 258.48 292.36944 
L 258.561164 281.341484 
L 258.588218 281.341484 
L 258.7776 269.355473 
L 258.7776 269.355473 
L 258.858764 271.860059 
L 258.966982 280.715043 
L 258.994036 280.715043 
L 258.994036 280.715043 
L 259.0752 283.025963 
L 259.102255 281.389416 
L 259.129309 281.389416 
L 259.129309 281.389416 
L 259.318691 263.674815 
L 259.318691 263.674815 
L 259.426909 256.473687 
L 259.453964 256.473687 
L 259.481018 256.277168 
L 259.481018 256.477975 
L 259.508073 256.477975 
L 259.616291 260.585629 
L 259.616291 260.585629 
L 259.832727 270.064549 
L 259.859782 269.609992 
L 259.968 263.046742 
L 259.968 263.046742 
L 260.076218 253.243176 
L 260.292655 243.231354 
L 260.292655 243.231354 
L 260.319709 243.303893 
L 260.319709 243.303893 
L 260.400873 246.119203 
L 260.427927 246.119203 
L 260.698473 257.146517 
L 260.752582 256.404388 
L 260.887855 248.5766 
L 260.887855 248.5766 
L 260.969018 240.206749 
L 260.996073 240.206749 
L 261.239564 230.274848 
L 261.239564 230.274848 
L 261.266618 230.177846 
L 261.293673 230.269469 
L 261.401891 232.346957 
L 261.401891 232.346957 
L 261.7536 244.191594 
L 261.807709 243.562637 
L 261.942982 237.536604 
L 261.942982 237.536604 
L 262.3488 217.985408 
L 262.457018 217.143725 
L 262.484073 217.220958 
L 262.565236 218.088099 
L 262.673455 221.378228 
L 262.700509 221.378228 
L 262.700509 221.378228 
L 263.052218 231.216462 
L 263.106327 230.974946 
L 263.214545 228.237848 
L 263.214545 228.237848 
L 263.322764 221.962042 
L 263.349818 221.962042 
L 263.782691 205.350002 
L 263.809745 205.350002 
L 263.999127 204.121568 
L 263.999127 204.121568 
L 264.080291 204.449621 
L 264.080291 204.449621 
L 264.215564 206.02474 
L 264.323782 208.743116 
L 264.350836 208.743116 
L 264.350836 208.743116 
L 264.459055 212.253203 
L 264.486109 212.253203 
L 264.810764 218.260864 
L 264.864873 218.03637 
L 264.973091 216.209539 
L 265.081309 212.929948 
L 265.081309 212.929948 
L 265.703564 194.536769 
L 265.703564 194.536769 
L 266.001164 191.432731 
L 266.055273 191.327006 
L 266.163491 191.096276 
L 266.244655 191.136827 
L 266.244655 191.184674 
L 266.434036 191.85226 
L 266.434036 191.85226 
L 266.650473 193.759214 
L 266.758691 195.538749 
L 266.785745 195.538749 
L 266.866909 197.257243 
L 266.893964 197.257243 
L 267.380945 204.832695 
L 267.408 204.172015 
L 267.516218 201.520973 
L 267.516218 201.520973 
L 271.844945 97.843497 
L 271.844945 97.843497 
L 273.0624 75.184119 
L 274.036364 60.904244 
L 274.036364 60.904244 
L 274.225745 58.57594 
L 274.2528 58.669903 
L 274.361018 63.857795 
L 274.415127 61.910128 
L 274.442182 61.910128 
L 274.523345 54.944265 
L 274.5504 54.944265 
L 274.685673 53.568 
L 274.712727 53.948581 
L 274.820945 64.976583 
L 275.010327 76.962493 
L 275.091491 74.457867 
L 275.091491 74.457867 
L 275.199709 67.269769 
L 275.199709 67.269769 
L 275.307927 63.292012 
L 275.334982 63.771679 
L 275.4432 71.628008 
L 275.686691 90.040802 
L 275.713745 89.839984 
L 275.7408 89.839984 
L 275.794909 87.163985 
L 276.065455 76.253427 
L 276.092509 76.708001 
L 276.200727 83.271299 
L 276.525382 103.086618 
L 276.525382 103.086618 
L 276.552436 103.014071 
L 276.552436 103.014071 
L 276.660655 100.198733 
L 276.660655 100.198733 
L 276.9312 89.171452 
L 276.985309 89.913606 
L 277.066473 95.70806 
L 277.093527 95.70806 
L 277.472291 116.043128 
L 277.499345 116.140125 
L 277.5264 116.048496 
L 277.634618 113.081751 
L 277.661673 113.081751 
L 277.986327 102.126378 
L 278.040436 102.755352 
L 278.175709 108.781417 
L 278.175709 108.781417 
L 278.283927 117.447647 
L 278.554473 127.818396 
L 278.554473 127.818396 
L 278.689745 129.174244 
L 278.7168 129.097009 
L 278.825018 127.742104 
L 278.825018 127.742104 
L 278.933236 124.064923 
L 278.960291 124.064923 
L 278.960291 124.064923 
L 279.284945 115.101506 
L 279.312 115.124655 
L 279.393164 116.35992 
L 279.393164 116.35992 
L 279.555491 122.974975 
L 279.555491 122.974975 
L 279.636655 128.508066 
L 279.663709 128.508066 
L 280.015418 140.543133 
L 280.015418 140.543133 
L 280.231855 142.196401 
L 280.340073 141.387461 
L 280.367127 141.387461 
L 280.448291 139.833972 
L 280.475345 139.833972 
L 280.718836 133.326716 
L 281.016436 128.057106 
L 281.070545 128.110079 
L 281.151709 129.491341 
L 281.178764 129.491341 
L 281.368145 135.343986 
L 281.449309 139.419015 
L 281.476364 139.419015 
L 281.909236 151.342487 
L 281.909236 151.342487 
L 282.206836 154.610514 
L 282.206836 154.610514 
L 282.396218 155.221695 
L 282.423273 155.210662 
L 282.504436 155.133295 
L 282.504436 155.133295 
L 282.639709 154.622137 
L 282.747927 153.65839 
L 282.774982 153.65839 
L 282.774982 153.65839 
L 283.018473 150.779209 
L 283.018473 150.779209 
L 283.126691 149.060714 
L 283.613673 141.485275 
L 283.640727 142.145955 
L 283.721891 144.796997 
L 283.748945 144.796997 
L 288.077673 249.028345 
L 288.104727 249.028345 
L 288.185891 251.222877 
L 288.212945 251.222877 
L 289.403345 273.337594 
L 289.4304 273.337594 
L 290.377309 286.762854 
L 290.377309 286.762854 
L 290.431418 287.74203 
L 290.485527 287.648083 
L 290.593745 282.460178 
L 290.647855 284.40783 
L 290.674909 284.40783 
L 290.674909 284.40783 
L 290.9184 292.74997 
L 291.026618 284.545224 
L 291.026618 284.545224 
L 291.243055 269.355476 
L 291.324218 271.860091 
L 291.432436 280.715077 
L 291.459491 280.715077 
L 291.540655 283.02596 
L 291.567709 281.389382 
L 291.594764 281.389382 
L 291.702982 271.853097 
L 291.702982 271.853097 
L 291.946473 256.277169 
L 291.946473 256.277169 
L 292.000582 257.049539 
L 292.000582 257.049539 
L 292.1088 263.863743 
L 292.298182 270.064545 
L 292.298182 269.609975 
L 292.325236 269.609975 
L 292.433455 263.04669 
L 292.433455 263.04669 
L 292.758109 243.231353 
L 292.758109 243.303898 
L 292.785164 243.303898 
L 292.785164 243.303898 
L 292.866327 245.081333 
L 292.866327 245.081333 
L 293.163927 257.146518 
L 293.245091 255.436928 
L 293.353309 246.453858 
L 293.380364 246.453858 
L 293.461527 238.335362 
L 293.488582 238.335362 
L 293.705018 230.177846 
L 293.759127 230.269473 
L 293.840291 232.346975 
L 293.867345 232.346975 
L 294.219055 244.191593 
L 294.273164 242.817612 
L 294.300218 242.817612 
L 294.408436 235.842778 
L 294.435491 235.842778 
L 294.814255 217.595857 
L 294.841309 217.595857 
L 294.922473 217.143726 
L 294.949527 217.220961 
L 295.030691 218.088109 
L 295.138909 220.563988 
L 295.138909 220.563988 
L 295.517673 231.216464 
L 295.571782 230.561136 
L 295.598836 230.561136 
L 295.734109 225.967082 
L 295.842327 220.5663 
L 295.842327 220.5663 
L 296.221091 205.774841 
L 296.248145 205.774841 
L 296.464582 204.121569 
L 296.464582 204.121569 
L 296.5728 204.930507 
L 296.599855 204.930507 
L 296.708073 206.987796 
L 296.735127 206.987796 
L 296.735127 206.987796 
L 296.816291 209.399166 
L 296.843345 209.399166 
L 297.276218 218.260864 
L 297.276218 218.260864 
L 297.330327 218.036365 
L 297.330327 218.036365 
L 297.438545 215.499795 
L 297.4656 215.499795 
L 298.3584 192.070615 
L 298.385455 192.070615 
L 298.628945 191.103929 
L 298.628945 191.103929 
L 298.737164 191.184675 
L 298.818327 191.557475 
L 298.845382 191.557475 
L 299.034764 192.907037 
L 299.142982 194.418201 
L 299.170036 194.418201 
L 299.278255 195.945806 
L 299.8464 204.832695 
L 299.873455 203.510485 
L 299.900509 203.510485 
L 299.900509 203.510485 
L 304.391564 96.188139 
L 304.391564 96.188139 
L 305.581964 74.294479 
L 306.555927 59.887749 
L 306.582982 59.887749 
L 306.582982 59.887749 
L 306.664145 58.57594 
L 306.6912 58.669892 
L 306.718255 58.669892 
L 306.826473 63.857793 
L 306.880582 61.910137 
L 306.907636 61.910137 
L 306.907636 61.910137 
L 307.015855 54.662499 
L 307.042909 54.662499 
L 307.042909 54.662499 
L 307.151127 53.568 
L 307.178182 53.948571 
L 307.475782 76.962494 
L 307.556945 74.457876 
L 307.638109 67.269779 
L 307.665164 67.269779 
L 307.773382 63.292011 
L 307.800436 63.771674 
L 307.908655 71.627992 
L 307.908655 71.627992 
L 308.016873 82.643215 
L 308.1792 90.040802 
L 308.206255 89.839986 
L 308.287418 87.163993 
L 308.368582 80.784403 
L 308.395636 80.784403 
L 308.530909 76.253426 
L 308.557964 77.693476 
L 308.585018 77.693476 
L 308.801455 95.28918 
L 308.909673 101.542974 
L 308.909673 101.542974 
L 308.990836 103.086618 
L 309.044945 102.668902 
L 309.180218 97.645831 
L 309.288436 90.880917 
L 309.315491 90.880917 
L 309.396655 89.171452 
L 309.423709 89.339689 
L 309.504873 92.207295 
L 309.586036 99.864117 
L 309.613091 99.864117 
L 309.910691 116.043127 
L 309.991855 116.048497 
L 310.100073 113.081756 
L 310.127127 113.081756 
L 310.127127 113.081756 
L 310.451782 102.126377 
L 310.505891 102.755349 
L 310.587055 107.192159 
L 310.614109 107.192159 
L 311.074036 128.990093 
L 311.101091 128.990093 
L 311.101091 128.990093 
L 311.1552 129.174244 
L 311.182255 128.911424 
L 311.209309 128.911424 
L 311.209309 128.911424 
L 311.317527 127.162799 
L 311.425745 123.141402 
L 311.4528 123.141402 
L 311.7504 115.101506 
L 311.777455 115.124654 
L 311.858618 116.359915 
L 311.966836 121.631661 
L 311.993891 121.631661 
L 312.480873 140.54313 
L 312.480873 140.54313 
L 312.697309 142.196402 
L 312.778473 141.653474 
L 312.805527 141.653474 
L 312.967855 139.330174 
L 313.076073 136.234102 
L 313.103127 136.234102 
L 313.211345 132.595395 
L 313.2384 132.595395 
L 313.508945 128.057106 
L 313.563055 128.281606 
L 313.698327 130.818177 
L 313.806545 135.34398 
L 313.8336 135.34398 
L 314.347636 150.870998 
L 314.347636 150.870998 
L 314.672291 154.610513 
L 314.672291 154.610513 
L 314.888727 155.221695 
L 314.888727 155.210662 
L 314.969891 155.133295 
L 315.078109 154.622137 
L 315.105164 154.622137 
L 315.105164 154.622137 
L 315.294545 153.14516 
L 315.402764 151.543523 
L 315.429818 151.543523 
L 315.538036 149.511926 
L 315.565091 149.511926 
L 316.079127 141.485275 
L 316.106182 142.145955 
L 320.651345 251.222877 
L 320.6784 251.222877 
L 320.759564 253.383168 
L 320.786618 253.383168 
L 321.949964 274.199949 
L 321.949964 274.199949 
L 322.896873 287.74203 
L 322.950982 287.64808 
L 323.0592 282.460177 
L 323.113309 284.407833 
L 323.140364 284.407833 
L 323.248582 291.373705 
L 323.248582 291.373705 
L 323.383855 292.74997 
L 323.410909 292.369401 
L 323.708509 269.355477 
L 323.789673 271.860094 
L 323.897891 280.715079 
L 323.924945 280.715079 
L 323.924945 280.715079 
L 324.006109 283.02596 
L 324.033164 282.546296 
L 324.141382 274.68998 
L 324.2496 263.674757 
L 324.411927 256.277169 
L 324.438982 257.04954 
L 324.466036 257.04954 
L 324.601309 263.863746 
L 324.682473 269.414389 
L 324.709527 269.414389 
L 324.763636 270.064544 
L 324.790691 269.609974 
L 324.871855 263.046686 
L 325.196509 243.445761 
L 325.223564 243.231353 
L 325.250618 243.649068 
L 325.277673 243.649068 
L 325.412945 248.672139 
L 325.521164 254.294564 
L 325.521164 254.294564 
L 325.629382 257.146518 
L 325.656436 256.40437 
L 325.683491 256.40437 
L 325.818764 248.57655 
L 326.143418 230.274844 
L 326.224582 230.269474 
L 326.3328 233.236213 
L 326.359855 233.236213 
L 326.359855 233.236213 
L 326.441018 237.725638 
L 326.468073 237.725638 
L 326.684509 244.191593 
L 326.711564 244.023083 
L 326.819782 239.125812 
L 326.846836 239.125812 
L 327.306764 217.595856 
L 327.306764 217.595856 
L 327.387927 217.143726 
L 327.414982 217.220961 
L 327.5232 218.575863 
L 327.5232 218.575863 
L 327.631418 221.378248 
L 327.631418 221.378248 
L 327.983127 231.216464 
L 328.037236 230.974938 
L 328.145455 228.237824 
L 328.145455 228.237824 
L 328.848873 204.176975 
L 328.984145 204.286863 
L 328.984145 204.286863 
L 329.092364 205.611813 
L 329.119418 205.611813 
L 329.119418 205.611813 
L 329.335855 210.083868 
L 329.335855 210.083868 
L 329.444073 213.722575 
L 329.471127 213.722575 
L 329.471127 213.722575 
L 329.741673 218.260864 
L 329.741673 218.260864 
L 329.795782 218.036364 
L 329.904 215.499794 
L 329.931055 215.499794 
L 330.823855 192.287103 
L 330.823855 192.287103 
L 331.067345 191.103929 
L 331.202618 191.184675 
L 331.310836 191.695833 
L 331.337891 191.695833 
L 331.337891 191.695833 
L 331.446109 192.659579 
L 331.473164 192.659579 
L 331.743709 195.945806 
L 331.851927 197.720862 
L 331.851927 197.720862 
L 332.311855 204.832695 
L 332.311855 204.832695 
L 336.938182 94.010608 
L 336.965236 94.010608 
L 338.128582 72.980377 
L 339.075491 59.225598 
L 339.102545 59.225598 
L 339.1296 58.57594 
L 339.183709 60.276047 
L 339.210764 60.276047 
L 339.291927 63.857793 
L 339.346036 63.146765 
L 339.616582 53.568 
L 339.643636 53.94857 
L 339.941236 76.962494 
L 340.0224 74.457876 
L 340.103564 67.26978 
L 340.130618 67.26978 
L 340.238836 63.292011 
L 340.265891 63.771674 
L 340.374109 71.627991 
L 340.374109 71.627991 
L 340.644655 90.040802 
L 340.644655 89.839986 
L 340.671709 89.839986 
L 340.779927 85.732305 
L 340.779927 85.732305 
L 340.996364 76.253426 
L 341.023418 77.693476 
L 341.050473 77.693476 
L 341.050473 77.693476 
L 341.131636 85.685743 
L 341.158691 85.685743 
L 341.456291 103.086618 
L 341.5104 102.668902 
L 341.5104 102.668902 
L 341.591564 98.988453 
L 341.862109 89.171452 
L 341.889164 89.339689 
L 341.970327 92.207294 
L 342.078545 102.006087 
L 342.1056 102.006087 
L 342.1056 102.006087 
L 342.376145 115.750734 
L 342.4032 116.140125 
L 342.484364 115.776028 
L 342.592582 113.081757 
L 342.7008 107.375039 
L 342.727855 107.375039 
L 342.836073 102.630589 
L 342.863127 102.630589 
L 342.917236 102.126377 
L 342.971345 103.50036 
L 342.9984 103.50036 
L 343.187782 113.998522 
L 343.187782 113.998522 
L 343.512436 128.332573 
L 343.620655 129.174244 
L 343.647709 129.097009 
L 343.755927 127.742108 
L 343.755927 127.742108 
L 343.945309 122.18303 
L 344.053527 117.508846 
L 344.215855 115.101506 
L 344.242909 115.124654 
L 344.324073 116.359915 
L 344.405236 120.35089 
L 344.432291 120.35089 
L 344.973382 141.327032 
L 345.000436 141.327032 
L 345.108655 142.140996 
L 345.108655 142.140996 
L 345.162764 142.196402 
L 345.189818 142.140795 
L 345.298036 141.387463 
L 345.514473 137.574839 
L 345.622691 134.800502 
L 345.622691 134.800502 
L 345.9744 128.057106 
L 345.9744 128.110078 
L 346.001455 128.110078 
L 346.001455 128.110078 
L 346.082618 128.976417 
L 346.190836 132.470295 
L 346.217891 132.470295 
L 346.921309 152.565103 
L 346.921309 152.565103 
L 347.218909 155.076288 
L 347.245964 155.076288 
L 347.245964 155.141654 
L 347.381236 155.210662 
L 347.381236 155.181143 
L 347.435345 155.133295 
L 347.435345 155.133295 
L 347.570618 154.622137 
L 347.570618 154.622137 
L 347.651782 153.887556 
L 347.678836 153.887556 
L 347.949382 150.779212 
L 348.0576 148.597108 
L 348.192873 146.65335 
L 348.301091 144.211757 
L 348.328145 144.211757 
L 348.544582 141.485275 
L 348.544582 141.485275 
L 353.170909 251.766197 
L 353.170909 251.766197 
L 354.334255 272.90229 
L 354.334255 272.90229 
L 355.281164 286.762854 
L 355.308218 286.762854 
L 355.362327 287.74203 
L 355.416436 286.041924 
L 355.443491 286.041924 
L 355.524655 282.460177 
L 355.578764 284.407833 
L 355.7952 292.209249 
L 355.7952 292.209249 
L 355.849309 292.74997 
L 355.876364 292.3694 
L 356.173964 269.355477 
L 356.255127 271.860094 
L 356.471564 283.02596 
L 356.525673 281.38938 
L 356.742109 261.442817 
L 356.823273 256.473677 
L 356.850327 256.473677 
L 356.877382 256.277169 
L 356.877382 256.477984 
L 356.904436 256.477984 
L 357.012655 262.182909 
L 357.039709 262.182909 
L 357.147927 269.414389 
L 357.174982 269.414389 
L 357.202036 270.064544 
L 357.2832 267.1484 
L 357.310255 267.1484 
L 357.418473 258.126007 
L 357.418473 258.126007 
L 357.689018 243.231353 
L 357.689018 243.303898 
L 357.716073 243.303898 
L 357.797236 245.081335 
L 357.797236 245.081335 
L 358.094836 257.146518 
L 358.176 255.436926 
L 358.257164 248.57655 
L 358.284218 248.57655 
L 358.608873 230.274844 
L 358.690036 230.269474 
L 358.690036 230.269474 
L 358.798255 232.346977 
L 359.149964 244.191593 
L 359.204073 242.81761 
L 359.231127 242.81761 
L 359.339345 235.842775 
L 359.3664 235.842775 
L 359.474618 227.248439 
L 359.501673 227.248439 
L 359.501673 227.248439 
L 359.582836 221.850421 
L 359.609891 221.850421 
L 359.826327 217.178257 
L 359.826327 217.178257 
L 359.853382 217.143726 
L 359.853382 217.220961 
L 359.880436 217.220961 
L 359.988655 218.575863 
L 359.988655 218.575863 
L 360.069818 221.378248 
L 360.096873 221.378248 
L 360.448582 231.216464 
L 360.502691 230.974938 
L 360.610909 228.237824 
L 360.610909 228.237824 
L 360.719127 221.962008 
L 360.746182 221.962008 
L 360.746182 221.962008 
L 361.152 205.77484 
L 361.179055 205.77484 
L 361.287273 204.290426 
L 361.314327 204.290426 
L 361.341382 204.121114 
L 361.422545 204.177176 
L 361.530764 204.930508 
L 361.530764 204.930508 
L 361.7472 208.743131 
L 361.7472 208.743131 
L 362.207127 218.260864 
L 362.234182 218.207892 
L 362.3424 216.826633 
L 362.3424 216.826633 
L 362.558836 209.959872 
L 362.667055 204.925398 
L 362.694109 204.925398 
L 362.802327 201.332326 
L 362.802327 201.332326 
L 363.154036 193.405399 
L 363.181091 193.405399 
L 363.181091 193.405399 
L 363.289309 192.287103 
L 363.289309 192.287103 
L 363.5328 191.130512 
L 363.5328 191.130512 
L 363.613964 191.107309 
L 363.641018 191.136828 
L 363.776291 191.557475 
L 363.884509 192.430414 
L 363.911564 192.430414 
L 363.911564 192.430414 
L 364.155055 195.148114 
L 364.263273 197.257254 
L 364.290327 197.257254 
L 364.777309 204.832695 
L 364.804364 204.172015 
L 369.349527 95.640554 
L 370.566982 72.980377 
L 370.594036 72.980377 
L 371.540945 59.555116 
L 371.622109 58.57594 
L 371.649164 58.669891 
L 371.757382 63.857793 
L 371.811491 61.910137 
L 371.838545 61.910137 
L 371.838545 61.910137 
L 371.946764 54.662499 
L 371.973818 54.662499 
L 371.973818 54.662499 
L 372.082036 53.568 
L 372.109091 53.94857 
L 372.406691 76.962494 
L 372.487855 74.457876 
L 372.704291 63.292011 
L 372.7584 64.928591 
L 372.866618 77.336811 
L 372.893673 77.336811 
L 372.893673 77.336811 
L 373.110109 90.040802 
L 373.164218 89.26843 
L 373.164218 89.26843 
L 373.299491 82.454224 
L 373.380655 76.903581 
L 373.407709 76.903581 
L 373.461818 76.253426 
L 373.488873 76.707996 
L 373.597091 83.271284 
L 373.597091 83.271284 
L 373.921745 103.086618 
L 373.921745 103.014072 
L 373.9488 103.014072 
L 373.9488 103.014072 
L 374.029964 101.236636 
L 374.029964 101.236636 
L 374.111127 96.218669 
L 374.138182 96.218669 
L 374.327564 89.171452 
L 374.354618 89.339689 
L 374.435782 92.207294 
L 374.435782 92.207294 
L 374.544 99.864116 
L 374.544 99.864116 
L 374.8416 116.043127 
L 374.922764 116.048497 
L 375.003927 113.970994 
L 375.030982 113.970994 
L 375.382691 102.126377 
L 375.4368 102.755348 
L 375.572073 108.781406 
L 375.680291 115.748807 
L 375.680291 115.748807 
L 375.977891 128.722114 
L 376.004945 128.722114 
L 376.059055 129.174244 
L 376.113164 129.097009 
L 376.194327 128.229861 
L 376.275491 125.753981 
L 376.302545 125.753981 
L 376.681309 115.101506 
L 376.735418 115.343032 
L 376.843636 118.080147 
L 376.951855 124.355962 
L 376.978909 124.355962 
L 377.384727 140.050575 
L 377.601164 142.196857 
L 377.655273 142.140795 
L 377.655273 142.140795 
L 377.763491 141.071323 
L 377.790545 141.071323 
L 378.006982 136.918803 
L 378.006982 136.918803 
L 378.439855 128.057106 
L 378.439855 128.110078 
L 378.466909 128.110078 
L 378.575127 130.108448 
L 378.602182 130.108448 
L 378.899782 140.416996 
L 378.899782 140.416996 
L 378.980945 144.139851 
L 379.008 144.139851 
L 379.386764 152.565103 
L 379.386764 152.565103 
L 379.684364 155.076288 
L 379.738473 155.141654 
L 379.792582 155.221695 
L 379.846691 155.210662 
L 379.954909 154.983057 
L 379.954909 154.983057 
L 380.063127 154.291164 
L 380.090182 154.291164 
L 380.333673 151.899768 
L 380.333673 151.899768 
L 380.658327 146.65335 
L 380.766545 144.211757 
L 380.7936 144.211757 
L 380.901818 142.177667 
L 381.010036 141.485275 
L 381.010036 141.485275 
L 385.636364 252.307362 
L 385.663418 252.307362 
L 385.744582 254.450176 
L 385.771636 254.450176 
L 386.907927 275.051225 
L 386.934982 275.051225 
L 387.0432 277.130328 
L 387.070255 277.130328 
L 387.070255 277.130328 
L 387.178473 279.138174 
L 387.205527 279.138174 
L 387.854836 287.74203 
L 387.881891 287.648079 
L 387.963055 282.460177 
L 387.990109 282.460177 
L 388.017164 282.497354 
L 388.098327 286.09781 
L 388.098327 286.09781 
L 388.287709 292.481245 
L 388.314764 292.74997 
L 388.341818 292.3694 
L 388.341818 292.3694 
L 388.639418 269.355477 
L 388.720582 271.860094 
L 388.937018 283.02596 
L 388.991127 281.38938 
L 389.072291 271.853092 
L 389.099345 271.853092 
L 389.342836 256.277169 
L 389.396945 257.04954 
L 389.396945 257.04954 
L 389.532218 263.863746 
L 389.640436 269.986949 
L 389.667491 270.064544 
L 389.775709 267.1484 
L 389.775709 267.1484 
L 389.883927 258.126007 
L 389.883927 258.126007 
L 390.154473 243.231353 
L 390.154473 243.231353 
L 390.181527 243.303898 
L 390.289745 247.329518 
L 390.3168 247.329518 
L 390.560291 257.146518 
L 390.587345 256.40437 
L 390.6144 256.40437 
L 390.722618 248.57655 
L 390.749673 248.57655 
L 390.749673 248.57655 
L 391.074327 230.567236 
L 391.074327 230.567236 
L 391.128436 230.177846 
L 391.182545 230.541943 
L 391.290764 233.236214 
L 391.371927 237.725638 
L 391.398982 237.725638 
L 391.615418 244.191593 
L 391.642473 244.023083 
L 391.750691 239.125812 
L 391.777745 239.125812 
L 391.777745 239.125812 
L 392.237673 217.595856 
L 392.237673 217.595856 
L 392.318836 217.143726 
L 392.345891 217.220961 
L 392.454109 218.575863 
L 392.454109 218.575863 
L 392.643491 224.134941 
L 392.751709 227.961231 
L 392.751709 227.961231 
L 392.914036 231.216464 
L 392.941091 230.974938 
L 392.968145 230.974938 
L 392.968145 230.974938 
L 393.049309 228.237824 
L 393.076364 228.237824 
L 393.779782 204.290426 
L 393.779782 204.290426 
L 393.860945 204.121569 
L 393.888 204.177176 
L 393.996218 204.930508 
L 394.104436 206.987797 
L 394.131491 206.987797 
L 394.131491 206.987797 
L 394.672582 218.260864 
L 394.753745 217.746606 
L 394.889018 214.708494 
L 394.997236 209.959872 
L 395.024291 209.959872 
L 395.511273 195.446972 
L 395.511273 195.446972 
L 395.835927 191.559359 
L 395.862982 191.559359 
L 395.944145 191.176316 
L 395.9712 191.176316 
L 396.079418 191.107309 
L 396.079418 191.136828 
L 396.2688 191.695833 
L 396.377018 192.659579 
L 396.404073 192.659579 
L 396.404073 192.659579 
L 396.512291 194.079713 
L 396.539345 194.079713 
L 396.891055 199.66462 
L 396.999273 201.633924 
L 397.242764 204.832695 
L 397.242764 204.172015 
L 397.269818 204.172015 
L 398.487273 173.839743 
L 398.487273 173.839743 
" clip-path="url(#p434609dec4)" style="fill: none; stroke: #1f77b4; stroke-width: 1.5; stroke-linecap: square"/>
   </g>
   <g id="patch_3">
    <path d="M 57.6 307.584 
L 57.6 41.472 
" style="fill: none; stroke: #000000; stroke-width: 0.8; stroke-linejoin: miter; stroke-linecap: square"/>
   </g>
   <g id="patch_4">
    <path d="M 414.72 307.584 
L 414.72 41.472 
" style="fill: none; stroke: #000000; stroke-width: 0.8; stroke-linejoin: miter; stroke-linecap: square"/>
   </g>
   <g id="patch_5">
    <path d="M 57.6 307.584 
L 414.72 307.584 
" style="fill: none; stroke: #000000; stroke-width: 0.8; stroke-linejoin: miter; stroke-linecap: square"/>
   </g>
   <g id="patch_6">
    <path d="M 57.6 41.472 
L 414.72 41.472 
" style="fill: none; stroke: #000000; stroke-width: 0.8; stroke-linejoin: miter; stroke-linecap: square"/>
   </g>
  </g>
  <g id="text_17">
   <!-- Leitura do Encoder da Junta -->
   <g transform="translate(146.975625 16.030125) scale(0.12 -0.12)">
    <defs>
     <path id="DejaVuSans-4c" d="M 628 4666 
L 1259 4666 
L 1259 531 
L 3531 531 
L 3531 0 
L 628 0 
L 628 4666 
z
" transform="scale(0.015625)"/>
     <path id="DejaVuSans-74" d="M 1172 4494 
L 1172 3500 
L 2356 3500 
L 2356 3053 
L 1172 3053 
L 1172 1153 
Q 1172 725 1289 603 
Q 1406 481 1766 481 
L 2356 481 
L 2356 0 
L 1766 0 
Q 1100 0 847 248 
Q 594 497 594 1153 
L 594 3053 
L 172 3053 
L 172 3500 
L 594 3500 
L 594 4494 
L 1172 4494 
z
" transform="scale(0.015625)"/>
     <path id="DejaVuSans-75" d="M 544 1381 
L 544 3500 
L 1119 3500 
L 1119 1403 
Q 1119 906 1312 657 
Q 1506 409 1894 409 
Q 2359 409 2629 706 
Q 2900 1003 2900 1516 
L 2900 3500 
L 3475 3500 
L 3475 0 
L 2900 0 
L 2900 538 
Q 2691 219 2414 64 
Q 2138 -91 1772 -91 
Q 1169 -91 856 284 
Q 544 659 544 1381 
z
M 1991 3584 
L 1991 3584 
z
" transform="scale(0.015625)"/>
     <path id="DejaVuSans-72" d="M 2631 2963 
Q 2534 3019 2420 3045 
Q 2306 3072 2169 3072 
Q 1681 3072 1420 2755 
Q 1159 2438 1159 1844 
L 1159 0 
L 581 0 
L 581 3500 
L 1159 3500 
L 1159 2956 
Q 1341 3275 1631 3429 
Q 1922 3584 2338 3584 
Q 2397 3584 2469 3576 
Q 2541 3569 2628 3553 
L 2631 2963 
z
" transform="scale(0.015625)"/>
     <path id="DejaVuSans-45" d="M 628 4666 
L 3578 4666 
L 3578 4134 
L 1259 4134 
L 1259 2753 
L 3481 2753 
L 3481 2222 
L 1259 2222 
L 1259 531 
L 3634 531 
L 3634 0 
L 628 0 
L 628 4666 
z
" transform="scale(0.015625)"/>
     <path id="DejaVuSans-6e" d="M 3513 2113 
L 3513 0 
L 2938 0 
L 2938 2094 
Q 2938 2591 2744 2837 
Q 2550 3084 2163 3084 
Q 1697 3084 1428 2787 
Q 1159 2491 1159 1978 
L 1159 0 
L 581 0 
L 581 3500 
L 1159 3500 
L 1159 2956 
Q 1366 3272 1645 3428 
Q 1925 3584 2291 3584 
Q 2894 3584 3203 3211 
Q 3513 2838 3513 2113 
z
" transform="scale(0.015625)"/>
     <path id="DejaVuSans-4a" d="M 628 4666 
L 1259 4666 
L 1259 325 
Q 1259 -519 939 -900 
Q 619 -1281 -91 -1281 
L -331 -1281 
L -331 -750 
L -134 -750 
Q 284 -750 456 -515 
Q 628 -281 628 325 
L 628 4666 
z
" transform="scale(0.015625)"/>
    </defs>
    <use xlink:href="#DejaVuSans-4c"/>
    <use xlink:href="#DejaVuSans-65" x="53.962891"/>
    <use xlink:href="#DejaVuSans-69" x="115.486328"/>
    <use xlink:href="#DejaVuSans-74" x="143.269531"/>
    <use xlink:href="#DejaVuSans-75" x="182.478516"/>
    <use xlink:href="#DejaVuSans-72" x="245.857422"/>
    <use xlink:href="#DejaVuSans-61" x="286.970703"/>
    <use xlink:href="#DejaVuSans-20" x="348.25"/>
    <use xlink:href="#DejaVuSans-64" x="380.037109"/>
    <use xlink:href="#DejaVuSans-6f" x="443.513672"/>
    <use xlink:href="#DejaVuSans-20" x="504.695312"/>
    <use xlink:href="#DejaVuSans-45" x="536.482422"/>
    <use xlink:href="#DejaVuSans-6e" x="599.666016"/>
    <use xlink:href="#DejaVuSans-63" x="663.044922"/>
    <use xlink:href="#DejaVuSans-6f" x="718.025391"/>
    <use xlink:href="#DejaVuSans-64" x="779.207031"/>
    <use xlink:href="#DejaVuSans-65" x="842.683594"/>
    <use xlink:href="#DejaVuSans-72" x="904.207031"/>
    <use xlink:href="#DejaVuSans-20" x="945.320312"/>
    <use xlink:href="#DejaVuSans-64" x="977.107422"/>
    <use xlink:href="#DejaVuSans-61" x="1040.583984"/>
    <use xlink:href="#DejaVuSans-20" x="1101.863281"/>
    <use xlink:href="#DejaVuSans-4a" x="1133.650391"/>
    <use xlink:href="#DejaVuSans-75" x="1163.142578"/>
    <use xlink:href="#DejaVuSans-6e" x="1226.521484"/>
    <use xlink:href="#DejaVuSans-74" x="1289.900391"/>
    <use xlink:href="#DejaVuSans-61" x="1329.109375"/>
   </g>
  </g>
 </g>
 <defs>
  <clipPath id="p434609dec4">
   <rect x="57.6" y="41.472" width="357.12" height="266.112"/>
  </clipPath>
 </defs>
</svg>
